<?xml version="1.0" encoding="UTF-8"?>
<svg id="Layer_2" xmlns="http://www.w3.org/2000/svg" viewBox="0 0 506.15 286.16">
  <defs>
    <style>
      .cls-1 {
        fill: #fee0c6;
        isolation: isolate;
        opacity: .4;
      }
    </style>
  </defs>
  <g id="Layer_1-2" data-name="Layer_1">
    <g>
      <circle id="Ellipse_36" class="cls-1" cx=".95" cy=".95" r=".95"/>
      <circle id="Ellipse_558" class="cls-1" cx=".95" cy="127.29" r=".95"/>
      <circle id="Ellipse_316" class="cls-1" cx=".95" cy="64.12" r=".95"/>
      <circle id="Ellipse_518" class="cls-1" cx=".95" cy="190.45" r=".95"/>
      <circle id="Ellipse_592" class="cls-1" cx=".95" cy="253.62" r=".95"/>
      <circle id="Ellipse_149" class="cls-1" cx=".95" cy="32.54" r=".95"/>
      <circle id="Ellipse_519" class="cls-1" cx=".95" cy="158.87" r=".95"/>
      <circle id="Ellipse_317" class="cls-1" cx=".95" cy="95.7" r=".95"/>
      <circle id="Ellipse_520" class="cls-1" cx=".95" cy="222.04" r=".95"/>
      <circle id="Ellipse_593" class="cls-1" cx=".95" cy="285.2" r=".95"/>
      <circle id="Ellipse_115" class="cls-1" cx=".95" cy="16.74" r=".95"/>
      <circle id="Ellipse_524" class="cls-1" cx=".95" cy="143.08" r=".95"/>
      <circle id="Ellipse_318" class="cls-1" cx=".95" cy="79.91" r=".95"/>
      <circle id="Ellipse_521" class="cls-1" cx=".95" cy="206.24" r=".95"/>
      <circle id="Ellipse_594" class="cls-1" cx=".95" cy="269.41" r=".95"/>
      <circle id="Ellipse_150" class="cls-1" cx=".95" cy="48.33" r=".95"/>
      <circle id="Ellipse_522" class="cls-1" cx=".95" cy="174.66" r=".95"/>
      <circle id="Ellipse_319" class="cls-1" cx=".95" cy="111.49" r=".95"/>
      <circle id="Ellipse_523" class="cls-1" cx=".95" cy="237.83" r=".95"/>
      <circle id="Ellipse_56" class="cls-1" cx="316.24" cy=".95" r=".95"/>
      <circle id="Ellipse_559" class="cls-1" cx="316.24" cy="127.29" r=".95"/>
      <circle id="Ellipse_247" class="cls-1" cx="316.24" cy="64.12" r=".95"/>
      <circle id="Ellipse_386" class="cls-1" cx="316.24" cy="190.45" r=".95"/>
      <circle id="Ellipse_672" class="cls-1" cx="316.24" cy="253.62" r=".95"/>
      <circle id="Ellipse_151" class="cls-1" cx="316.24" cy="32.54" r=".95"/>
      <circle id="Ellipse_480" class="cls-1" cx="316.24" cy="158.87" r=".95"/>
      <circle id="Ellipse_196" class="cls-1" cx="316.24" cy="95.7" r=".95"/>
      <circle id="Ellipse_328" class="cls-1" cx="316.24" cy="222.04" r=".95"/>
      <circle id="Ellipse_673" class="cls-1" cx="316.24" cy="285.2" r=".95"/>
      <circle id="Ellipse_89" class="cls-1" cx="316.24" cy="16.74" r=".95"/>
      <circle id="Ellipse_525" class="cls-1" cx="316.24" cy="143.08" r=".95"/>
      <circle id="Ellipse_197" class="cls-1" cx="316.24" cy="79.91" r=".95"/>
      <circle id="Ellipse_352" class="cls-1" cx="316.24" cy="206.24" r=".95"/>
      <circle id="Ellipse_674" class="cls-1" cx="316.24" cy="269.41" r=".95"/>
      <circle id="Ellipse_116" class="cls-1" cx="316.24" cy="48.33" r=".95"/>
      <circle id="Ellipse_428" class="cls-1" cx="316.24" cy="174.66" r=".95"/>
      <circle id="Ellipse_198" class="cls-1" cx="316.24" cy="111.49" r=".95"/>
      <circle id="Ellipse_329" class="cls-1" cx="316.24" cy="237.83" r=".95"/>
      <circle id="Ellipse_46" class="cls-1" cx="158.6" cy=".95" r=".95"/>
      <circle id="Ellipse_560" class="cls-1" cx="158.6" cy="127.29" r=".95"/>
      <circle id="Ellipse_276" class="cls-1" cx="158.6" cy="64.12" r=".95"/>
      <circle id="Ellipse_387" class="cls-1" cx="158.6" cy="190.45" r=".95"/>
      <circle id="Ellipse_632" class="cls-1" cx="158.6" cy="253.62" r=".95"/>
      <circle id="Ellipse_152" class="cls-1" cx="158.6" cy="32.54" r=".95"/>
      <circle id="Ellipse_481" class="cls-1" cx="158.6" cy="158.87" r=".95"/>
      <circle id="Ellipse_277" class="cls-1" cx="158.6" cy="95.7" r=".95"/>
      <circle id="Ellipse_388" class="cls-1" cx="158.6" cy="222.04" r=".95"/>
      <circle id="Ellipse_633" class="cls-1" cx="158.6" cy="285.2" r=".95"/>
      <circle id="Ellipse_105" class="cls-1" cx="158.6" cy="16.74" r=".95"/>
      <circle id="Ellipse_526" class="cls-1" cx="158.6" cy="143.08" r=".95"/>
      <circle id="Ellipse_278" class="cls-1" cx="158.6" cy="79.91" r=".95"/>
      <circle id="Ellipse_389" class="cls-1" cx="158.6" cy="206.24" r=".95"/>
      <circle id="Ellipse_634" class="cls-1" cx="158.6" cy="269.41" r=".95"/>
      <circle id="Ellipse_117" class="cls-1" cx="158.6" cy="48.33" r=".95"/>
      <circle id="Ellipse_429" class="cls-1" cx="158.6" cy="174.66" r=".95"/>
      <circle id="Ellipse_279" class="cls-1" cx="158.6" cy="111.49" r=".95"/>
      <circle id="Ellipse_390" class="cls-1" cx="158.6" cy="237.83" r=".95"/>
      <circle id="Ellipse_57" class="cls-1" cx="473.61" cy=".95" r=".95"/>
      <circle id="Ellipse_561" class="cls-1" cx="473.61" cy="127.29" r=".95"/>
      <circle id="Ellipse_248" class="cls-1" cx="473.61" cy="64.12" r=".95"/>
      <circle id="Ellipse_391" class="cls-1" cx="473.61" cy="190.45" r=".95"/>
      <circle id="Ellipse_712" class="cls-1" cx="473.61" cy="253.62" r=".95"/>
      <circle id="Ellipse_153" class="cls-1" cx="473.61" cy="32.54" r=".95"/>
      <circle id="Ellipse_482" class="cls-1" cx="473.61" cy="158.87" r=".95"/>
      <circle id="Ellipse_199" class="cls-1" cx="473.61" cy="95.7" r=".95"/>
      <circle id="Ellipse_330" class="cls-1" cx="473.61" cy="222.04" r=".95"/>
      <circle id="Ellipse_713" class="cls-1" cx="473.61" cy="285.2" r=".95"/>
      <circle id="Ellipse_82" class="cls-1" cx="473.61" cy="16.74" r=".95"/>
      <circle id="Ellipse_527" class="cls-1" cx="473.61" cy="143.08" r=".95"/>
      <circle id="Ellipse_200" class="cls-1" cx="473.61" cy="79.91" r=".95"/>
      <circle id="Ellipse_353" class="cls-1" cx="473.61" cy="206.24" r=".95"/>
      <circle id="Ellipse_714" class="cls-1" cx="473.61" cy="269.41" r=".95"/>
      <circle id="Ellipse_118" class="cls-1" cx="473.61" cy="48.33" r=".95"/>
      <circle id="Ellipse_430" class="cls-1" cx="473.61" cy="174.66" r=".95"/>
      <circle id="Ellipse_184" class="cls-1" cx="473.61" cy="111.49" r=".95"/>
      <circle id="Ellipse_320" class="cls-1" cx="473.61" cy="237.83" r=".95"/>
      <circle id="Ellipse_41" class="cls-1" cx="79.64" cy=".95" r=".95"/>
      <circle id="Ellipse_562" class="cls-1" cx="79.64" cy="127.29" r=".95"/>
      <circle id="Ellipse_292" class="cls-1" cx="79.64" cy="64.12" r=".95"/>
      <circle id="Ellipse_460" class="cls-1" cx="79.64" cy="190.45" r=".95"/>
      <circle id="Ellipse_604" class="cls-1" cx="79.64" cy="253.62" r=".95"/>
      <circle id="Ellipse_154" class="cls-1" cx="79.64" cy="32.54" r=".95"/>
      <circle id="Ellipse_483" class="cls-1" cx="79.64" cy="158.87" r=".95"/>
      <circle id="Ellipse_293" class="cls-1" cx="79.64" cy="95.7" r=".95"/>
      <circle id="Ellipse_461" class="cls-1" cx="79.64" cy="222.04" r=".95"/>
      <circle id="Ellipse_605" class="cls-1" cx="79.64" cy="285.2" r=".95"/>
      <circle id="Ellipse_110" class="cls-1" cx="79.64" cy="16.74" r=".95"/>
      <circle id="Ellipse_528" class="cls-1" cx="79.64" cy="143.08" r=".95"/>
      <circle id="Ellipse_294" class="cls-1" cx="79.64" cy="79.91" r=".95"/>
      <circle id="Ellipse_462" class="cls-1" cx="79.64" cy="206.24" r=".95"/>
      <circle id="Ellipse_606" class="cls-1" cx="79.64" cy="269.41" r=".95"/>
      <circle id="Ellipse_119" class="cls-1" cx="79.64" cy="48.33" r=".95"/>
      <circle id="Ellipse_463" class="cls-1" cx="79.64" cy="174.66" r=".95"/>
      <circle id="Ellipse_295" class="cls-1" cx="79.64" cy="111.49" r=".95"/>
      <circle id="Ellipse_464" class="cls-1" cx="79.64" cy="237.83" r=".95"/>
      <circle id="Ellipse_58" class="cls-1" cx="394.93" cy=".95" r=".95"/>
      <circle id="Ellipse_563" class="cls-1" cx="394.93" cy="127.29" r=".95"/>
      <circle id="Ellipse_249" class="cls-1" cx="394.93" cy="64.12" r=".95"/>
      <circle id="Ellipse_392" class="cls-1" cx="394.93" cy="190.45" r=".95"/>
      <circle id="Ellipse_692" class="cls-1" cx="394.93" cy="253.62" r=".95"/>
      <circle id="Ellipse_155" class="cls-1" cx="394.93" cy="32.54" r=".95"/>
      <circle id="Ellipse_484" class="cls-1" cx="394.93" cy="158.87" r=".95"/>
      <circle id="Ellipse_201" class="cls-1" cx="394.93" cy="95.7" r=".95"/>
      <circle id="Ellipse_331" class="cls-1" cx="394.93" cy="222.04" r=".95"/>
      <circle id="Ellipse_693" class="cls-1" cx="394.93" cy="285.2" r=".95"/>
      <circle id="Ellipse_90" class="cls-1" cx="394.93" cy="16.74" r=".95"/>
      <circle id="Ellipse_529" class="cls-1" cx="394.93" cy="143.08" r=".95"/>
      <circle id="Ellipse_202" class="cls-1" cx="394.93" cy="79.91" r=".95"/>
      <circle id="Ellipse_354" class="cls-1" cx="394.93" cy="206.24" r=".95"/>
      <circle id="Ellipse_694" class="cls-1" cx="394.93" cy="269.41" r=".95"/>
      <circle id="Ellipse_120" class="cls-1" cx="394.93" cy="48.33" r=".95"/>
      <circle id="Ellipse_431" class="cls-1" cx="394.93" cy="174.66" r=".95"/>
      <circle id="Ellipse_185" class="cls-1" cx="394.93" cy="111.49" r=".95"/>
      <circle id="Ellipse_332" class="cls-1" cx="394.93" cy="237.83" r=".95"/>
      <circle id="Ellipse_51" class="cls-1" cx="237.28" cy=".95" r=".95"/>
      <circle id="Ellipse_564" class="cls-1" cx="237.28" cy="127.29" r=".95"/>
      <circle id="Ellipse_250" class="cls-1" cx="237.28" cy="64.12" r=".95"/>
      <circle id="Ellipse_393" class="cls-1" cx="237.28" cy="190.45" r=".95"/>
      <circle id="Ellipse_652" class="cls-1" cx="237.28" cy="253.62" r=".95"/>
      <circle id="Ellipse_156" class="cls-1" cx="237.28" cy="32.54" r=".95"/>
      <circle id="Ellipse_485" class="cls-1" cx="237.28" cy="158.87" r=".95"/>
      <circle id="Ellipse_203" class="cls-1" cx="237.28" cy="95.7" r=".95"/>
      <circle id="Ellipse_374" class="cls-1" cx="237.28" cy="222.04" r=".95"/>
      <circle id="Ellipse_653" class="cls-1" cx="237.28" cy="285.2" r=".95"/>
      <circle id="Ellipse_100" class="cls-1" cx="237.28" cy="16.74" r=".95"/>
      <circle id="Ellipse_530" class="cls-1" cx="237.28" cy="143.08" r=".95"/>
      <circle id="Ellipse_204" class="cls-1" cx="237.28" cy="79.91" r=".95"/>
      <circle id="Ellipse_375" class="cls-1" cx="237.28" cy="206.24" r=".95"/>
      <circle id="Ellipse_654" class="cls-1" cx="237.28" cy="269.41" r=".95"/>
      <circle id="Ellipse_121" class="cls-1" cx="237.28" cy="48.33" r=".95"/>
      <circle id="Ellipse_432" class="cls-1" cx="237.28" cy="174.66" r=".95"/>
      <circle id="Ellipse_205" class="cls-1" cx="237.28" cy="111.49" r=".95"/>
      <circle id="Ellipse_376" class="cls-1" cx="237.28" cy="237.83" r=".95"/>
      <circle id="Ellipse_80" class="cls-1" cx="505.2" cy=".95" r=".95"/>
      <circle id="Ellipse_565" class="cls-1" cx="505.2" cy="127.29" r=".95"/>
      <circle id="Ellipse_251" class="cls-1" cx="505.2" cy="64.12" r=".95"/>
      <circle id="Ellipse_394" class="cls-1" cx="505.2" cy="190.45" r=".95"/>
      <circle id="Ellipse_720" class="cls-1" cx="505.2" cy="253.62" r=".95"/>
      <circle id="Ellipse_157" class="cls-1" cx="505.2" cy="32.54" r=".95"/>
      <circle id="Ellipse_486" class="cls-1" cx="505.2" cy="158.87" r=".95"/>
      <circle id="Ellipse_206" class="cls-1" cx="505.2" cy="95.7" r=".95"/>
      <circle id="Ellipse_333" class="cls-1" cx="505.2" cy="222.04" r=".95"/>
      <circle id="Ellipse_721" class="cls-1" cx="505.2" cy="285.2" r=".95"/>
      <circle id="Ellipse_83" class="cls-1" cx="505.2" cy="16.74" r=".95"/>
      <circle id="Ellipse_531" class="cls-1" cx="505.2" cy="143.08" r=".95"/>
      <circle id="Ellipse_207" class="cls-1" cx="505.2" cy="79.91" r=".95"/>
      <circle id="Ellipse_355" class="cls-1" cx="505.2" cy="206.24" r=".95"/>
      <circle id="Ellipse_722" class="cls-1" cx="505.2" cy="269.41" r=".95"/>
      <circle id="Ellipse_122" class="cls-1" cx="505.2" cy="48.33" r=".95"/>
      <circle id="Ellipse_433" class="cls-1" cx="505.2" cy="174.66" r=".95"/>
      <circle id="Ellipse_186" class="cls-1" cx="505.2" cy="111.49" r=".95"/>
      <circle id="Ellipse_321" class="cls-1" cx="505.2" cy="237.83" r=".95"/>
      <circle id="Ellipse_37" class="cls-1" cx="16.74" cy=".95" r=".95"/>
      <circle id="Ellipse_566" class="cls-1" cx="16.74" cy="127.29" r=".95"/>
      <circle id="Ellipse_308" class="cls-1" cx="16.74" cy="64.12" r=".95"/>
      <circle id="Ellipse_512" class="cls-1" cx="16.74" cy="190.45" r=".95"/>
      <circle id="Ellipse_595" class="cls-1" cx="16.74" cy="253.62" r=".95"/>
      <circle id="Ellipse_158" class="cls-1" cx="16.74" cy="32.54" r=".95"/>
      <circle id="Ellipse_513" class="cls-1" cx="16.74" cy="158.87" r=".95"/>
      <circle id="Ellipse_309" class="cls-1" cx="16.74" cy="95.7" r=".95"/>
      <circle id="Ellipse_514" class="cls-1" cx="16.74" cy="222.04" r=".95"/>
      <circle id="Ellipse_596" class="cls-1" cx="16.74" cy="285.2" r=".95"/>
      <circle id="Ellipse_114" class="cls-1" cx="16.74" cy="16.74" r=".95"/>
      <circle id="Ellipse_532" class="cls-1" cx="16.74" cy="143.08" r=".95"/>
      <circle id="Ellipse_310" class="cls-1" cx="16.74" cy="79.91" r=".95"/>
      <circle id="Ellipse_515" class="cls-1" cx="16.74" cy="206.24" r=".95"/>
      <circle id="Ellipse_597" class="cls-1" cx="16.74" cy="269.41" r=".95"/>
      <circle id="Ellipse_148" class="cls-1" cx="16.74" cy="48.33" r=".95"/>
      <circle id="Ellipse_516" class="cls-1" cx="16.74" cy="174.66" r=".95"/>
      <circle id="Ellipse_311" class="cls-1" cx="16.74" cy="111.49" r=".95"/>
      <circle id="Ellipse_517" class="cls-1" cx="16.74" cy="237.83" r=".95"/>
      <circle id="Ellipse_60" class="cls-1" cx="331.76" cy=".95" r=".95"/>
      <circle id="Ellipse_567" class="cls-1" cx="331.76" cy="127.29" r=".95"/>
      <circle id="Ellipse_252" class="cls-1" cx="331.76" cy="64.12" r=".95"/>
      <circle id="Ellipse_395" class="cls-1" cx="331.76" cy="190.45" r=".95"/>
      <circle id="Ellipse_676" class="cls-1" cx="331.76" cy="253.62" r=".95"/>
      <circle id="Ellipse_159" class="cls-1" cx="331.76" cy="32.54" r=".95"/>
      <circle id="Ellipse_487" class="cls-1" cx="331.76" cy="158.87" r=".95"/>
      <circle id="Ellipse_208" class="cls-1" cx="331.76" cy="95.7" r=".95"/>
      <circle id="Ellipse_334" class="cls-1" cx="331.76" cy="222.04" r=".95"/>
      <circle id="Ellipse_677" class="cls-1" cx="331.76" cy="285.2" r=".95"/>
      <circle id="Ellipse_91" class="cls-1" cx="331.76" cy="16.74" r=".95"/>
      <circle id="Ellipse_533" class="cls-1" cx="331.76" cy="143.08" r=".95"/>
      <circle id="Ellipse_209" class="cls-1" cx="331.76" cy="79.91" r=".95"/>
      <circle id="Ellipse_356" class="cls-1" cx="331.76" cy="206.24" r=".95"/>
      <circle id="Ellipse_678" class="cls-1" cx="331.76" cy="269.41" r=".95"/>
      <circle id="Ellipse_123" class="cls-1" cx="331.76" cy="48.33" r=".95"/>
      <circle id="Ellipse_434" class="cls-1" cx="331.76" cy="174.66" r=".95"/>
      <circle id="Ellipse_210" class="cls-1" cx="331.76" cy="111.49" r=".95"/>
      <circle id="Ellipse_335" class="cls-1" cx="331.76" cy="237.83" r=".95"/>
      <circle id="Ellipse_47" class="cls-1" cx="174.39" cy=".95" r=".95"/>
      <circle id="Ellipse_568" class="cls-1" cx="174.39" cy="127.29" r=".95"/>
      <circle id="Ellipse_253" class="cls-1" cx="174.39" cy="64.12" r=".95"/>
      <circle id="Ellipse_396" class="cls-1" cx="174.39" cy="190.45" r=".95"/>
      <circle id="Ellipse_636" class="cls-1" cx="174.39" cy="253.62" r=".95"/>
      <circle id="Ellipse_160" class="cls-1" cx="174.39" cy="32.54" r=".95"/>
      <circle id="Ellipse_488" class="cls-1" cx="174.39" cy="158.87" r=".95"/>
      <circle id="Ellipse_254" class="cls-1" cx="174.39" cy="95.7" r=".95"/>
      <circle id="Ellipse_397" class="cls-1" cx="174.39" cy="222.04" r=".95"/>
      <circle id="Ellipse_637" class="cls-1" cx="174.39" cy="285.2" r=".95"/>
      <circle id="Ellipse_104" class="cls-1" cx="174.39" cy="16.74" r=".95"/>
      <circle id="Ellipse_534" class="cls-1" cx="174.39" cy="143.08" r=".95"/>
      <circle id="Ellipse_255" class="cls-1" cx="174.39" cy="79.91" r=".95"/>
      <circle id="Ellipse_398" class="cls-1" cx="174.39" cy="206.24" r=".95"/>
      <circle id="Ellipse_638" class="cls-1" cx="174.39" cy="269.41" r=".95"/>
      <circle id="Ellipse_124" class="cls-1" cx="174.39" cy="48.33" r=".95"/>
      <circle id="Ellipse_435" class="cls-1" cx="174.39" cy="174.66" r=".95"/>
      <circle id="Ellipse_256" class="cls-1" cx="174.39" cy="111.49" r=".95"/>
      <circle id="Ellipse_399" class="cls-1" cx="174.39" cy="237.83" r=".95"/>
      <circle id="Ellipse_61" class="cls-1" cx="489.4" cy=".95" r=".95"/>
      <circle id="Ellipse_569" class="cls-1" cx="489.4" cy="127.29" r=".95"/>
      <circle id="Ellipse_257" class="cls-1" cx="489.4" cy="64.12" r=".95"/>
      <circle id="Ellipse_400" class="cls-1" cx="489.4" cy="190.45" r=".95"/>
      <circle id="Ellipse_716" class="cls-1" cx="489.4" cy="253.62" r=".95"/>
      <circle id="Ellipse_161" class="cls-1" cx="489.4" cy="32.54" r=".95"/>
      <circle id="Ellipse_489" class="cls-1" cx="489.4" cy="158.87" r=".95"/>
      <circle id="Ellipse_211" class="cls-1" cx="489.4" cy="95.7" r=".95"/>
      <circle id="Ellipse_336" class="cls-1" cx="489.4" cy="222.04" r=".95"/>
      <circle id="Ellipse_717" class="cls-1" cx="489.4" cy="285.2" r=".95"/>
      <circle id="Ellipse_84" class="cls-1" cx="489.4" cy="16.74" r=".95"/>
      <circle id="Ellipse_535" class="cls-1" cx="489.4" cy="143.08" r=".95"/>
      <circle id="Ellipse_212" class="cls-1" cx="489.4" cy="79.91" r=".95"/>
      <circle id="Ellipse_357" class="cls-1" cx="489.4" cy="206.24" r=".95"/>
      <circle id="Ellipse_718" class="cls-1" cx="489.4" cy="269.41" r=".95"/>
      <circle id="Ellipse_125" class="cls-1" cx="489.4" cy="48.33" r=".95"/>
      <circle id="Ellipse_436" class="cls-1" cx="489.4" cy="174.66" r=".95"/>
      <circle id="Ellipse_187" class="cls-1" cx="489.4" cy="111.49" r=".95"/>
      <circle id="Ellipse_322" class="cls-1" cx="489.4" cy="237.83" r=".95"/>
      <circle id="Ellipse_42" class="cls-1" cx="95.43" cy=".95" r=".95"/>
      <circle id="Ellipse_570" class="cls-1" cx="95.43" cy="127.29" r=".95"/>
      <circle id="Ellipse_296" class="cls-1" cx="95.43" cy="64.12" r=".95"/>
      <circle id="Ellipse_437" class="cls-1" cx="95.43" cy="190.45" r=".95"/>
      <circle id="Ellipse_613" class="cls-1" cx="95.43" cy="253.62" r=".95"/>
      <circle id="Ellipse_162" class="cls-1" cx="95.43" cy="32.54" r=".95"/>
      <circle id="Ellipse_490" class="cls-1" cx="95.43" cy="158.87" r=".95"/>
      <circle id="Ellipse_297" class="cls-1" cx="95.43" cy="95.7" r=".95"/>
      <circle id="Ellipse_438" class="cls-1" cx="95.43" cy="222.04" r=".95"/>
      <circle id="Ellipse_614" class="cls-1" cx="95.43" cy="285.2" r=".95"/>
      <circle id="Ellipse_109" class="cls-1" cx="95.43" cy="16.74" r=".95"/>
      <circle id="Ellipse_536" class="cls-1" cx="95.43" cy="143.08" r=".95"/>
      <circle id="Ellipse_298" class="cls-1" cx="95.43" cy="79.91" r=".95"/>
      <circle id="Ellipse_439" class="cls-1" cx="95.43" cy="206.24" r=".95"/>
      <circle id="Ellipse_615" class="cls-1" cx="95.43" cy="269.41" r=".95"/>
      <circle id="Ellipse_126" class="cls-1" cx="95.43" cy="48.33" r=".95"/>
      <circle id="Ellipse_440" class="cls-1" cx="95.43" cy="174.66" r=".95"/>
      <circle id="Ellipse_299" class="cls-1" cx="95.43" cy="111.49" r=".95"/>
      <circle id="Ellipse_441" class="cls-1" cx="95.43" cy="237.83" r=".95"/>
      <circle id="Ellipse_62" class="cls-1" cx="410.72" cy=".95" r=".95"/>
      <circle id="Ellipse_571" class="cls-1" cx="410.72" cy="127.29" r=".95"/>
      <circle id="Ellipse_258" class="cls-1" cx="410.72" cy="64.12" r=".95"/>
      <circle id="Ellipse_401" class="cls-1" cx="410.72" cy="190.45" r=".95"/>
      <circle id="Ellipse_696" class="cls-1" cx="410.72" cy="253.62" r=".95"/>
      <circle id="Ellipse_163" class="cls-1" cx="410.72" cy="32.54" r=".95"/>
      <circle id="Ellipse_491" class="cls-1" cx="410.72" cy="158.87" r=".95"/>
      <circle id="Ellipse_213" class="cls-1" cx="410.72" cy="95.7" r=".95"/>
      <circle id="Ellipse_337" class="cls-1" cx="410.72" cy="222.04" r=".95"/>
      <circle id="Ellipse_697" class="cls-1" cx="410.72" cy="285.2" r=".95"/>
      <circle id="Ellipse_92" class="cls-1" cx="410.72" cy="16.74" r=".95"/>
      <circle id="Ellipse_537" class="cls-1" cx="410.72" cy="143.08" r=".95"/>
      <circle id="Ellipse_214" class="cls-1" cx="410.72" cy="79.91" r=".95"/>
      <circle id="Ellipse_358" class="cls-1" cx="410.72" cy="206.24" r=".95"/>
      <circle id="Ellipse_698" class="cls-1" cx="410.72" cy="269.41" r=".95"/>
      <circle id="Ellipse_127" class="cls-1" cx="410.72" cy="48.33" r=".95"/>
      <circle id="Ellipse_442" class="cls-1" cx="410.72" cy="174.66" r=".95"/>
      <circle id="Ellipse_188" class="cls-1" cx="410.72" cy="111.49" r=".95"/>
      <circle id="Ellipse_323" class="cls-1" cx="410.72" cy="237.83" r=".95"/>
      <circle id="Ellipse_52" class="cls-1" cx="253.07" cy=".95" r=".95"/>
      <circle id="Ellipse_572" class="cls-1" cx="253.07" cy="127.29" r=".95"/>
      <circle id="Ellipse_259" class="cls-1" cx="253.07" cy="64.12" r=".95"/>
      <circle id="Ellipse_402" class="cls-1" cx="253.07" cy="190.45" r=".95"/>
      <circle id="Ellipse_656" class="cls-1" cx="253.07" cy="253.62" r=".95"/>
      <circle id="Ellipse_164" class="cls-1" cx="253.07" cy="32.54" r=".95"/>
      <circle id="Ellipse_492" class="cls-1" cx="253.07" cy="158.87" r=".95"/>
      <circle id="Ellipse_215" class="cls-1" cx="253.07" cy="95.7" r=".95"/>
      <circle id="Ellipse_359" class="cls-1" cx="253.07" cy="222.04" r=".95"/>
      <circle id="Ellipse_657" class="cls-1" cx="253.07" cy="285.2" r=".95"/>
      <circle id="Ellipse_97" class="cls-1" cx="253.07" cy="16.74" r=".95"/>
      <circle id="Ellipse_538" class="cls-1" cx="253.07" cy="143.08" r=".95"/>
      <circle id="Ellipse_216" class="cls-1" cx="253.07" cy="79.91" r=".95"/>
      <circle id="Ellipse_360" class="cls-1" cx="253.07" cy="206.24" r=".95"/>
      <circle id="Ellipse_658" class="cls-1" cx="253.07" cy="269.41" r=".95"/>
      <circle id="Ellipse_128" class="cls-1" cx="253.07" cy="48.33" r=".95"/>
      <circle id="Ellipse_443" class="cls-1" cx="253.07" cy="174.66" r=".95"/>
      <circle id="Ellipse_217" class="cls-1" cx="253.07" cy="111.49" r=".95"/>
      <circle id="Ellipse_361" class="cls-1" cx="253.07" cy="237.83" r=".95"/>
      <circle id="Ellipse_38" class="cls-1" cx="32.54" cy=".95" r=".95"/>
      <circle id="Ellipse_574" class="cls-1" cx="32.54" cy="127.29" r=".95"/>
      <circle id="Ellipse_312" class="cls-1" cx="32.54" cy="64.12" r=".95"/>
      <circle id="Ellipse_475" class="cls-1" cx="32.54" cy="190.45" r=".95"/>
      <circle id="Ellipse_598" class="cls-1" cx="32.54" cy="253.62" r=".95"/>
      <circle id="Ellipse_166" class="cls-1" cx="32.54" cy="32.54" r=".95"/>
      <circle id="Ellipse_494" class="cls-1" cx="32.54" cy="158.87" r=".95"/>
      <circle id="Ellipse_313" class="cls-1" cx="32.54" cy="95.7" r=".95"/>
      <circle id="Ellipse_476" class="cls-1" cx="32.54" cy="222.04" r=".95"/>
      <circle id="Ellipse_599" class="cls-1" cx="32.54" cy="285.2" r=".95"/>
      <circle id="Ellipse_113" class="cls-1" cx="32.54" cy="16.74" r=".95"/>
      <circle id="Ellipse_540" class="cls-1" cx="32.54" cy="143.08" r=".95"/>
      <circle id="Ellipse_314" class="cls-1" cx="32.54" cy="79.91" r=".95"/>
      <circle id="Ellipse_477" class="cls-1" cx="32.54" cy="206.24" r=".95"/>
      <circle id="Ellipse_600" class="cls-1" cx="32.54" cy="269.41" r=".95"/>
      <circle id="Ellipse_147" class="cls-1" cx="32.54" cy="48.33" r=".95"/>
      <circle id="Ellipse_478" class="cls-1" cx="32.54" cy="174.66" r=".95"/>
      <circle id="Ellipse_315" class="cls-1" cx="32.54" cy="111.49" r=".95"/>
      <circle id="Ellipse_479" class="cls-1" cx="32.54" cy="237.83" r=".95"/>
      <circle id="Ellipse_64" class="cls-1" cx="347.55" cy=".95" r=".95"/>
      <circle id="Ellipse_575" class="cls-1" cx="347.55" cy="127.29" r=".95"/>
      <circle id="Ellipse_261" class="cls-1" cx="347.55" cy="64.12" r=".95"/>
      <circle id="Ellipse_404" class="cls-1" cx="347.55" cy="190.45" r=".95"/>
      <circle id="Ellipse_680" class="cls-1" cx="347.55" cy="253.62" r=".95"/>
      <circle id="Ellipse_167" class="cls-1" cx="347.55" cy="32.54" r=".95"/>
      <circle id="Ellipse_495" class="cls-1" cx="347.55" cy="158.87" r=".95"/>
      <circle id="Ellipse_220" class="cls-1" cx="347.55" cy="95.7" r=".95"/>
      <circle id="Ellipse_339" class="cls-1" cx="347.55" cy="222.04" r=".95"/>
      <circle id="Ellipse_681" class="cls-1" cx="347.55" cy="285.2" r=".95"/>
      <circle id="Ellipse_93" class="cls-1" cx="347.55" cy="16.74" r=".95"/>
      <circle id="Ellipse_541" class="cls-1" cx="347.55" cy="143.08" r=".95"/>
      <circle id="Ellipse_221" class="cls-1" cx="347.55" cy="79.91" r=".95"/>
      <circle id="Ellipse_363" class="cls-1" cx="347.55" cy="206.24" r=".95"/>
      <circle id="Ellipse_682" class="cls-1" cx="347.55" cy="269.41" r=".95"/>
      <circle id="Ellipse_130" class="cls-1" cx="347.55" cy="48.33" r=".95"/>
      <circle id="Ellipse_445" class="cls-1" cx="347.55" cy="174.66" r=".95"/>
      <circle id="Ellipse_190" class="cls-1" cx="347.55" cy="111.49" r=".95"/>
      <circle id="Ellipse_340" class="cls-1" cx="347.55" cy="237.83" r=".95"/>
      <circle id="Ellipse_48" class="cls-1" cx="190.18" cy=".95" r=".95"/>
      <circle id="Ellipse_576" class="cls-1" cx="190.18" cy="127.29" r=".95"/>
      <circle id="Ellipse_262" class="cls-1" cx="190.18" cy="64.12" r=".95"/>
      <circle id="Ellipse_405" class="cls-1" cx="190.18" cy="190.45" r=".95"/>
      <circle id="Ellipse_640" class="cls-1" cx="190.18" cy="253.62" r=".95"/>
      <circle id="Ellipse_168" class="cls-1" cx="190.18" cy="32.54" r=".95"/>
      <circle id="Ellipse_496" class="cls-1" cx="190.18" cy="158.87" r=".95"/>
      <circle id="Ellipse_263" class="cls-1" cx="190.18" cy="95.7" r=".95"/>
      <circle id="Ellipse_377" class="cls-1" cx="190.18" cy="222.04" r=".95"/>
      <circle id="Ellipse_641" class="cls-1" cx="190.18" cy="285.2" r=".95"/>
      <circle id="Ellipse_103" class="cls-1" cx="190.18" cy="16.74" r=".95"/>
      <circle id="Ellipse_542" class="cls-1" cx="190.18" cy="143.08" r=".95"/>
      <circle id="Ellipse_264" class="cls-1" cx="190.18" cy="79.91" r=".95"/>
      <circle id="Ellipse_378" class="cls-1" cx="190.18" cy="206.24" r=".95"/>
      <circle id="Ellipse_642" class="cls-1" cx="190.18" cy="269.41" r=".95"/>
      <circle id="Ellipse_131" class="cls-1" cx="190.18" cy="48.33" r=".95"/>
      <circle id="Ellipse_446" class="cls-1" cx="190.18" cy="174.66" r=".95"/>
      <circle id="Ellipse_265" class="cls-1" cx="190.18" cy="111.49" r=".95"/>
      <circle id="Ellipse_379" class="cls-1" cx="190.18" cy="237.83" r=".95"/>
      <circle id="Ellipse_43" class="cls-1" cx="111.22" cy=".95" r=".95"/>
      <circle id="Ellipse_577" class="cls-1" cx="111.22" cy="127.29" r=".95"/>
      <circle id="Ellipse_280" class="cls-1" cx="111.22" cy="64.12" r=".95"/>
      <circle id="Ellipse_416" class="cls-1" cx="111.22" cy="190.45" r=".95"/>
      <circle id="Ellipse_618" class="cls-1" cx="111.22" cy="253.62" r=".95"/>
      <circle id="Ellipse_169" class="cls-1" cx="111.22" cy="32.54" r=".95"/>
      <circle id="Ellipse_497" class="cls-1" cx="111.22" cy="158.87" r=".95"/>
      <circle id="Ellipse_281" class="cls-1" cx="111.22" cy="95.7" r=".95"/>
      <circle id="Ellipse_417" class="cls-1" cx="111.22" cy="222.04" r=".95"/>
      <circle id="Ellipse_619" class="cls-1" cx="111.22" cy="285.2" r=".95"/>
      <circle id="Ellipse_108" class="cls-1" cx="111.22" cy="16.74" r=".95"/>
      <circle id="Ellipse_543" class="cls-1" cx="111.22" cy="143.08" r=".95"/>
      <circle id="Ellipse_282" class="cls-1" cx="111.22" cy="79.91" r=".95"/>
      <circle id="Ellipse_418" class="cls-1" cx="111.22" cy="206.24" r=".95"/>
      <circle id="Ellipse_620" class="cls-1" cx="111.22" cy="269.41" r=".95"/>
      <circle id="Ellipse_132" class="cls-1" cx="111.22" cy="48.33" r=".95"/>
      <circle id="Ellipse_447" class="cls-1" cx="111.22" cy="174.66" r=".95"/>
      <circle id="Ellipse_283" class="cls-1" cx="111.22" cy="111.49" r=".95"/>
      <circle id="Ellipse_419" class="cls-1" cx="111.22" cy="237.83" r=".95"/>
      <circle id="Ellipse_66" class="cls-1" cx="426.51" cy=".95" r=".95"/>
      <circle id="Ellipse_578" class="cls-1" cx="426.51" cy="127.29" r=".95"/>
      <circle id="Ellipse_266" class="cls-1" cx="426.51" cy="64.12" r=".95"/>
      <circle id="Ellipse_406" class="cls-1" cx="426.51" cy="190.45" r=".95"/>
      <circle id="Ellipse_700" class="cls-1" cx="426.51" cy="253.62" r=".95"/>
      <circle id="Ellipse_170" class="cls-1" cx="426.51" cy="32.54" r=".95"/>
      <circle id="Ellipse_498" class="cls-1" cx="426.51" cy="158.87" r=".95"/>
      <circle id="Ellipse_222" class="cls-1" cx="426.51" cy="95.7" r=".95"/>
      <circle id="Ellipse_341" class="cls-1" cx="426.51" cy="222.04" r=".95"/>
      <circle id="Ellipse_701" class="cls-1" cx="426.51" cy="285.2" r=".95"/>
      <circle id="Ellipse_86" class="cls-1" cx="426.51" cy="16.74" r=".95"/>
      <circle id="Ellipse_544" class="cls-1" cx="426.51" cy="143.08" r=".95"/>
      <circle id="Ellipse_223" class="cls-1" cx="426.51" cy="79.91" r=".95"/>
      <circle id="Ellipse_364" class="cls-1" cx="426.51" cy="206.24" r=".95"/>
      <circle id="Ellipse_702" class="cls-1" cx="426.51" cy="269.41" r=".95"/>
      <circle id="Ellipse_133" class="cls-1" cx="426.51" cy="48.33" r=".95"/>
      <circle id="Ellipse_448" class="cls-1" cx="426.51" cy="174.66" r=".95"/>
      <circle id="Ellipse_191" class="cls-1" cx="426.51" cy="111.49" r=".95"/>
      <circle id="Ellipse_325" class="cls-1" cx="426.51" cy="237.83" r=".95"/>
      <circle id="Ellipse_53" class="cls-1" cx="268.87" cy=".95" r=".95"/>
      <circle id="Ellipse_579" class="cls-1" cx="268.87" cy="127.29" r=".95"/>
      <circle id="Ellipse_267" class="cls-1" cx="268.87" cy="64.12" r=".95"/>
      <circle id="Ellipse_407" class="cls-1" cx="268.87" cy="190.45" r=".95"/>
      <circle id="Ellipse_660" class="cls-1" cx="268.87" cy="253.62" r=".95"/>
      <circle id="Ellipse_171" class="cls-1" cx="268.87" cy="32.54" r=".95"/>
      <circle id="Ellipse_499" class="cls-1" cx="268.87" cy="158.87" r=".95"/>
      <circle id="Ellipse_224" class="cls-1" cx="268.87" cy="95.7" r=".95"/>
      <circle id="Ellipse_365" class="cls-1" cx="268.87" cy="222.04" r=".95"/>
      <circle id="Ellipse_661" class="cls-1" cx="268.87" cy="285.2" r=".95"/>
      <circle id="Ellipse_98" class="cls-1" cx="268.87" cy="16.74" r=".95"/>
      <circle id="Ellipse_545" class="cls-1" cx="268.87" cy="143.08" r=".95"/>
      <circle id="Ellipse_225" class="cls-1" cx="268.87" cy="79.91" r=".95"/>
      <circle id="Ellipse_366" class="cls-1" cx="268.87" cy="206.24" r=".95"/>
      <circle id="Ellipse_662" class="cls-1" cx="268.87" cy="269.41" r=".95"/>
      <circle id="Ellipse_134" class="cls-1" cx="268.87" cy="48.33" r=".95"/>
      <circle id="Ellipse_449" class="cls-1" cx="268.87" cy="174.66" r=".95"/>
      <circle id="Ellipse_226" class="cls-1" cx="268.87" cy="111.49" r=".95"/>
      <circle id="Ellipse_367" class="cls-1" cx="268.87" cy="237.83" r=".95"/>
      <circle id="Ellipse_39" class="cls-1" cx="48.33" cy=".95" r=".95"/>
      <circle id="Ellipse_580" class="cls-1" cx="48.33" cy="127.29" r=".95"/>
      <circle id="Ellipse_300" class="cls-1" cx="48.33" cy="64.12" r=".95"/>
      <circle id="Ellipse_470" class="cls-1" cx="48.33" cy="190.45" r=".95"/>
      <circle id="Ellipse_601" class="cls-1" cx="48.33" cy="253.62" r=".95"/>
      <circle id="Ellipse_172" class="cls-1" cx="48.33" cy="32.54" r=".95"/>
      <circle id="Ellipse_500" class="cls-1" cx="48.33" cy="158.87" r=".95"/>
      <circle id="Ellipse_301" class="cls-1" cx="48.33" cy="95.7" r=".95"/>
      <circle id="Ellipse_471" class="cls-1" cx="48.33" cy="222.04" r=".95"/>
      <circle id="Ellipse_602" class="cls-1" cx="48.33" cy="285.2" r=".95"/>
      <circle id="Ellipse_112" class="cls-1" cx="48.33" cy="16.74" r=".95"/>
      <circle id="Ellipse_546" class="cls-1" cx="48.33" cy="143.08" r=".95"/>
      <circle id="Ellipse_302" class="cls-1" cx="48.33" cy="79.91" r=".95"/>
      <circle id="Ellipse_472" class="cls-1" cx="48.33" cy="206.24" r=".95"/>
      <circle id="Ellipse_603" class="cls-1" cx="48.33" cy="269.41" r=".95"/>
      <circle id="Ellipse_146" class="cls-1" cx="48.33" cy="48.33" r=".95"/>
      <circle id="Ellipse_473" class="cls-1" cx="48.33" cy="174.66" r=".95"/>
      <circle id="Ellipse_303" class="cls-1" cx="48.33" cy="111.49" r=".95"/>
      <circle id="Ellipse_474" class="cls-1" cx="48.33" cy="237.83" r=".95"/>
      <circle id="Ellipse_68" class="cls-1" cx="363.34" cy=".95" r=".95"/>
      <circle id="Ellipse_581" class="cls-1" cx="363.34" cy="127.29" r=".95"/>
      <circle id="Ellipse_268" class="cls-1" cx="363.34" cy="64.12" r=".95"/>
      <circle id="Ellipse_408" class="cls-1" cx="363.34" cy="190.45" r=".95"/>
      <circle id="Ellipse_684" class="cls-1" cx="363.34" cy="253.62" r=".95"/>
      <circle id="Ellipse_173" class="cls-1" cx="363.34" cy="32.54" r=".95"/>
      <circle id="Ellipse_501" class="cls-1" cx="363.34" cy="158.87" r=".95"/>
      <circle id="Ellipse_227" class="cls-1" cx="363.34" cy="95.7" r=".95"/>
      <circle id="Ellipse_342" class="cls-1" cx="363.34" cy="222.04" r=".95"/>
      <circle id="Ellipse_685" class="cls-1" cx="363.34" cy="285.2" r=".95"/>
      <circle id="Ellipse_94" class="cls-1" cx="363.34" cy="16.74" r=".95"/>
      <circle id="Ellipse_547" class="cls-1" cx="363.34" cy="143.08" r=".95"/>
      <circle id="Ellipse_228" class="cls-1" cx="363.34" cy="79.91" r=".95"/>
      <circle id="Ellipse_368" class="cls-1" cx="363.34" cy="206.24" r=".95"/>
      <circle id="Ellipse_686" class="cls-1" cx="363.34" cy="269.41" r=".95"/>
      <circle id="Ellipse_135" class="cls-1" cx="363.34" cy="48.33" r=".95"/>
      <circle id="Ellipse_450" class="cls-1" cx="363.34" cy="174.66" r=".95"/>
      <circle id="Ellipse_192" class="cls-1" cx="363.34" cy="111.49" r=".95"/>
      <circle id="Ellipse_343" class="cls-1" cx="363.34" cy="237.83" r=".95"/>
      <circle id="Ellipse_49" class="cls-1" cx="205.7" cy=".95" r=".95"/>
      <circle id="Ellipse_582" class="cls-1" cx="205.7" cy="127.29" r=".95"/>
      <circle id="Ellipse_269" class="cls-1" cx="205.7" cy="64.12" r=".95"/>
      <circle id="Ellipse_409" class="cls-1" cx="205.7" cy="190.45" r=".95"/>
      <circle id="Ellipse_644" class="cls-1" cx="205.7" cy="253.62" r=".95"/>
      <circle id="Ellipse_174" class="cls-1" cx="205.7" cy="32.54" r=".95"/>
      <circle id="Ellipse_502" class="cls-1" cx="205.7" cy="158.87" r=".95"/>
      <circle id="Ellipse_229" class="cls-1" cx="205.7" cy="95.7" r=".95"/>
      <circle id="Ellipse_380" class="cls-1" cx="205.7" cy="222.04" r=".95"/>
      <circle id="Ellipse_645" class="cls-1" cx="205.7" cy="285.2" r=".95"/>
      <circle id="Ellipse_101" class="cls-1" cx="205.7" cy="16.74" r=".95"/>
      <circle id="Ellipse_548" class="cls-1" cx="205.7" cy="143.08" r=".95"/>
      <circle id="Ellipse_230" class="cls-1" cx="205.7" cy="79.91" r=".95"/>
      <circle id="Ellipse_381" class="cls-1" cx="205.7" cy="206.24" r=".95"/>
      <circle id="Ellipse_646" class="cls-1" cx="205.7" cy="269.41" r=".95"/>
      <circle id="Ellipse_136" class="cls-1" cx="205.7" cy="48.33" r=".95"/>
      <circle id="Ellipse_451" class="cls-1" cx="205.7" cy="174.66" r=".95"/>
      <circle id="Ellipse_231" class="cls-1" cx="205.7" cy="111.49" r=".95"/>
      <circle id="Ellipse_382" class="cls-1" cx="205.7" cy="237.83" r=".95"/>
      <circle id="Ellipse_44" class="cls-1" cx="127.01" cy=".95" r=".95"/>
      <circle id="Ellipse_583" class="cls-1" cx="127.01" cy="127.29" r=".95"/>
      <circle id="Ellipse_284" class="cls-1" cx="127.01" cy="64.12" r=".95"/>
      <circle id="Ellipse_420" class="cls-1" cx="127.01" cy="190.45" r=".95"/>
      <circle id="Ellipse_624" class="cls-1" cx="127.01" cy="253.62" r=".95"/>
      <circle id="Ellipse_175" class="cls-1" cx="127.01" cy="32.54" r=".95"/>
      <circle id="Ellipse_503" class="cls-1" cx="127.01" cy="158.87" r=".95"/>
      <circle id="Ellipse_285" class="cls-1" cx="127.01" cy="95.7" r=".95"/>
      <circle id="Ellipse_421" class="cls-1" cx="127.01" cy="222.04" r=".95"/>
      <circle id="Ellipse_625" class="cls-1" cx="127.01" cy="285.2" r=".95"/>
      <circle id="Ellipse_107" class="cls-1" cx="127.01" cy="16.74" r=".95"/>
      <circle id="Ellipse_549" class="cls-1" cx="127.01" cy="143.08" r=".95"/>
      <circle id="Ellipse_286" class="cls-1" cx="127.01" cy="79.91" r=".95"/>
      <circle id="Ellipse_422" class="cls-1" cx="127.01" cy="206.24" r=".95"/>
      <circle id="Ellipse_626" class="cls-1" cx="127.01" cy="269.41" r=".95"/>
      <circle id="Ellipse_137" class="cls-1" cx="127.01" cy="48.33" r=".95"/>
      <circle id="Ellipse_452" class="cls-1" cx="127.01" cy="174.66" r=".95"/>
      <circle id="Ellipse_287" class="cls-1" cx="127.01" cy="111.49" r=".95"/>
      <circle id="Ellipse_423" class="cls-1" cx="127.01" cy="237.83" r=".95"/>
      <circle id="Ellipse_70" class="cls-1" cx="442.3" cy=".95" r=".95"/>
      <circle id="Ellipse_584" class="cls-1" cx="442.3" cy="127.29" r=".95"/>
      <circle id="Ellipse_270" class="cls-1" cx="442.3" cy="64.12" r=".95"/>
      <circle id="Ellipse_410" class="cls-1" cx="442.3" cy="190.45" r=".95"/>
      <circle id="Ellipse_704" class="cls-1" cx="442.3" cy="253.62" r=".95"/>
      <circle id="Ellipse_176" class="cls-1" cx="442.3" cy="32.54" r=".95"/>
      <circle id="Ellipse_504" class="cls-1" cx="442.3" cy="158.87" r=".95"/>
      <circle id="Ellipse_232" class="cls-1" cx="442.3" cy="95.7" r=".95"/>
      <circle id="Ellipse_344" class="cls-1" cx="442.3" cy="222.04" r=".95"/>
      <circle id="Ellipse_705" class="cls-1" cx="442.3" cy="285.2" r=".95"/>
      <circle id="Ellipse_87" class="cls-1" cx="442.3" cy="16.74" r=".95"/>
      <circle id="Ellipse_550" class="cls-1" cx="442.3" cy="143.08" r=".95"/>
      <circle id="Ellipse_233" class="cls-1" cx="442.3" cy="79.91" r=".95"/>
      <circle id="Ellipse_369" class="cls-1" cx="442.3" cy="206.24" r=".95"/>
      <circle id="Ellipse_706" class="cls-1" cx="442.3" cy="269.41" r=".95"/>
      <circle id="Ellipse_138" class="cls-1" cx="442.3" cy="48.33" r=".95"/>
      <circle id="Ellipse_453" class="cls-1" cx="442.3" cy="174.66" r=".95"/>
      <circle id="Ellipse_193" class="cls-1" cx="442.3" cy="111.49" r=".95"/>
      <circle id="Ellipse_326" class="cls-1" cx="442.3" cy="237.83" r=".95"/>
      <circle id="Ellipse_54" class="cls-1" cx="284.66" cy=".95" r=".95"/>
      <circle id="Ellipse_585" class="cls-1" cx="284.66" cy="127.29" r=".95"/>
      <circle id="Ellipse_271" class="cls-1" cx="284.66" cy="64.12" r=".95"/>
      <circle id="Ellipse_411" class="cls-1" cx="284.66" cy="190.45" r=".95"/>
      <circle id="Ellipse_664" class="cls-1" cx="284.66" cy="253.62" r=".95"/>
      <circle id="Ellipse_177" class="cls-1" cx="284.66" cy="32.54" r=".95"/>
      <circle id="Ellipse_505" class="cls-1" cx="284.66" cy="158.87" r=".95"/>
      <circle id="Ellipse_234" class="cls-1" cx="284.66" cy="95.7" r=".95"/>
      <circle id="Ellipse_345" class="cls-1" cx="284.66" cy="222.04" r=".95"/>
      <circle id="Ellipse_665" class="cls-1" cx="284.66" cy="285.2" r=".95"/>
      <circle id="Ellipse_99" class="cls-1" cx="284.66" cy="16.74" r=".95"/>
      <circle id="Ellipse_551" class="cls-1" cx="284.66" cy="143.08" r=".95"/>
      <circle id="Ellipse_235" class="cls-1" cx="284.66" cy="79.91" r=".95"/>
      <circle id="Ellipse_370" class="cls-1" cx="284.66" cy="206.24" r=".95"/>
      <circle id="Ellipse_666" class="cls-1" cx="284.66" cy="269.41" r=".95"/>
      <circle id="Ellipse_139" class="cls-1" cx="284.66" cy="48.33" r=".95"/>
      <circle id="Ellipse_454" class="cls-1" cx="284.66" cy="174.66" r=".95"/>
      <circle id="Ellipse_236" class="cls-1" cx="284.66" cy="111.49" r=".95"/>
      <circle id="Ellipse_346" class="cls-1" cx="284.66" cy="237.83" r=".95"/>
      <circle id="Ellipse_40" class="cls-1" cx="64.12" cy=".95" r=".95"/>
      <circle id="Ellipse_586" class="cls-1" cx="64.12" cy="127.29" r=".95"/>
      <circle id="Ellipse_304" class="cls-1" cx="64.12" cy="64.12" r=".95"/>
      <circle id="Ellipse_465" class="cls-1" cx="64.12" cy="190.45" r=".95"/>
      <circle id="Ellipse_607" class="cls-1" cx="64.12" cy="253.62" r=".95"/>
      <circle id="Ellipse_178" class="cls-1" cx="64.12" cy="32.54" r=".95"/>
      <circle id="Ellipse_506" class="cls-1" cx="64.12" cy="158.87" r=".95"/>
      <circle id="Ellipse_305" class="cls-1" cx="64.12" cy="95.7" r=".95"/>
      <circle id="Ellipse_466" class="cls-1" cx="64.12" cy="222.04" r=".95"/>
      <circle id="Ellipse_608" class="cls-1" cx="64.12" cy="285.2" r=".95"/>
      <circle id="Ellipse_111" class="cls-1" cx="64.12" cy="16.74" r=".95"/>
      <circle id="Ellipse_552" class="cls-1" cx="64.12" cy="143.08" r=".95"/>
      <circle id="Ellipse_306" class="cls-1" cx="64.12" cy="79.91" r=".95"/>
      <circle id="Ellipse_467" class="cls-1" cx="64.12" cy="206.24" r=".95"/>
      <circle id="Ellipse_609" class="cls-1" cx="64.12" cy="269.41" r=".95"/>
      <circle id="Ellipse_140" class="cls-1" cx="64.12" cy="48.33" r=".95"/>
      <circle id="Ellipse_468" class="cls-1" cx="64.12" cy="174.66" r=".95"/>
      <circle id="Ellipse_307" class="cls-1" cx="64.12" cy="111.49" r=".95"/>
      <circle id="Ellipse_469" class="cls-1" cx="64.12" cy="237.83" r=".95"/>
      <circle id="Ellipse_72" class="cls-1" cx="379.14" cy=".95" r=".95"/>
      <circle id="Ellipse_587" class="cls-1" cx="379.14" cy="127.29" r=".95"/>
      <circle id="Ellipse_272" class="cls-1" cx="379.14" cy="64.12" r=".95"/>
      <circle id="Ellipse_412" class="cls-1" cx="379.14" cy="190.45" r=".95"/>
      <circle id="Ellipse_688" class="cls-1" cx="379.14" cy="253.62" r=".95"/>
      <circle id="Ellipse_179" class="cls-1" cx="379.14" cy="32.54" r=".95"/>
      <circle id="Ellipse_507" class="cls-1" cx="379.14" cy="158.87" r=".95"/>
      <circle id="Ellipse_237" class="cls-1" cx="379.14" cy="95.7" r=".95"/>
      <circle id="Ellipse_347" class="cls-1" cx="379.14" cy="222.04" r=".95"/>
      <circle id="Ellipse_689" class="cls-1" cx="379.14" cy="285.2" r=".95"/>
      <circle id="Ellipse_95" class="cls-1" cx="379.14" cy="16.74" r=".95"/>
      <circle id="Ellipse_553" class="cls-1" cx="379.14" cy="143.08" r=".95"/>
      <circle id="Ellipse_238" class="cls-1" cx="379.14" cy="79.91" r=".95"/>
      <circle id="Ellipse_371" class="cls-1" cx="379.14" cy="206.24" r=".95"/>
      <circle id="Ellipse_690" class="cls-1" cx="379.14" cy="269.41" r=".95"/>
      <circle id="Ellipse_141" class="cls-1" cx="379.14" cy="48.33" r=".95"/>
      <circle id="Ellipse_455" class="cls-1" cx="379.14" cy="174.66" r=".95"/>
      <circle id="Ellipse_194" class="cls-1" cx="379.14" cy="111.49" r=".95"/>
      <circle id="Ellipse_348" class="cls-1" cx="379.14" cy="237.83" r=".95"/>
      <circle id="Ellipse_50" class="cls-1" cx="221.49" cy=".95" r=".95"/>
      <circle id="Ellipse_588" class="cls-1" cx="221.49" cy="127.29" r=".95"/>
      <circle id="Ellipse_273" class="cls-1" cx="221.49" cy="64.12" r=".95"/>
      <circle id="Ellipse_413" class="cls-1" cx="221.49" cy="190.45" r=".95"/>
      <circle id="Ellipse_648" class="cls-1" cx="221.49" cy="253.62" r=".95"/>
      <circle id="Ellipse_180" class="cls-1" cx="221.49" cy="32.54" r=".95"/>
      <circle id="Ellipse_508" class="cls-1" cx="221.49" cy="158.87" r=".95"/>
      <circle id="Ellipse_239" class="cls-1" cx="221.49" cy="95.7" r=".95"/>
      <circle id="Ellipse_383" class="cls-1" cx="221.49" cy="222.04" r=".95"/>
      <circle id="Ellipse_649" class="cls-1" cx="221.49" cy="285.2" r=".95"/>
      <circle id="Ellipse_102" class="cls-1" cx="221.49" cy="16.74" r=".95"/>
      <circle id="Ellipse_554" class="cls-1" cx="221.49" cy="143.08" r=".95"/>
      <circle id="Ellipse_240" class="cls-1" cx="221.49" cy="79.91" r=".95"/>
      <circle id="Ellipse_384" class="cls-1" cx="221.49" cy="206.24" r=".95"/>
      <circle id="Ellipse_650" class="cls-1" cx="221.49" cy="269.41" r=".95"/>
      <circle id="Ellipse_142" class="cls-1" cx="221.49" cy="48.33" r=".95"/>
      <circle id="Ellipse_456" class="cls-1" cx="221.49" cy="174.66" r=".95"/>
      <circle id="Ellipse_241" class="cls-1" cx="221.49" cy="111.49" r=".95"/>
      <circle id="Ellipse_385" class="cls-1" cx="221.49" cy="237.83" r=".95"/>
      <circle id="Ellipse_45" class="cls-1" cx="142.81" cy=".95" r=".95"/>
      <circle id="Ellipse_589" class="cls-1" cx="142.81" cy="127.29" r=".95"/>
      <circle id="Ellipse_288" class="cls-1" cx="142.81" cy="64.12" r=".95"/>
      <circle id="Ellipse_424" class="cls-1" cx="142.81" cy="190.45" r=".95"/>
      <circle id="Ellipse_628" class="cls-1" cx="142.81" cy="253.62" r=".95"/>
      <circle id="Ellipse_181" class="cls-1" cx="142.81" cy="32.54" r=".95"/>
      <circle id="Ellipse_509" class="cls-1" cx="142.81" cy="158.87" r=".95"/>
      <circle id="Ellipse_289" class="cls-1" cx="142.81" cy="95.7" r=".95"/>
      <circle id="Ellipse_425" class="cls-1" cx="142.81" cy="222.04" r=".95"/>
      <circle id="Ellipse_629" class="cls-1" cx="142.81" cy="285.2" r=".95"/>
      <circle id="Ellipse_106" class="cls-1" cx="142.81" cy="16.74" r=".95"/>
      <circle id="Ellipse_555" class="cls-1" cx="142.81" cy="143.08" r=".95"/>
      <circle id="Ellipse_290" class="cls-1" cx="142.81" cy="79.91" r=".95"/>
      <circle id="Ellipse_426" class="cls-1" cx="142.81" cy="206.24" r=".95"/>
      <circle id="Ellipse_630" class="cls-1" cx="142.81" cy="269.41" r=".95"/>
      <circle id="Ellipse_143" class="cls-1" cx="142.81" cy="48.33" r=".95"/>
      <circle id="Ellipse_457" class="cls-1" cx="142.81" cy="174.66" r=".95"/>
      <circle id="Ellipse_291" class="cls-1" cx="142.81" cy="111.49" r=".95"/>
      <circle id="Ellipse_427" class="cls-1" cx="142.81" cy="237.83" r=".95"/>
      <circle id="Ellipse_74" class="cls-1" cx="457.82" cy=".95" r=".95"/>
      <circle id="Ellipse_590" class="cls-1" cx="457.82" cy="127.29" r=".95"/>
      <circle id="Ellipse_274" class="cls-1" cx="457.82" cy="64.12" r=".95"/>
      <circle id="Ellipse_414" class="cls-1" cx="457.82" cy="190.45" r=".95"/>
      <circle id="Ellipse_708" class="cls-1" cx="457.82" cy="253.62" r=".95"/>
      <circle id="Ellipse_182" class="cls-1" cx="457.82" cy="32.54" r=".95"/>
      <circle id="Ellipse_510" class="cls-1" cx="457.82" cy="158.87" r=".95"/>
      <circle id="Ellipse_242" class="cls-1" cx="457.82" cy="95.7" r=".95"/>
      <circle id="Ellipse_349" class="cls-1" cx="457.82" cy="222.04" r=".95"/>
      <circle id="Ellipse_709" class="cls-1" cx="457.82" cy="285.2" r=".95"/>
      <circle id="Ellipse_88" class="cls-1" cx="457.82" cy="16.74" r=".95"/>
      <circle id="Ellipse_556" class="cls-1" cx="457.82" cy="143.08" r=".95"/>
      <circle id="Ellipse_243" class="cls-1" cx="457.82" cy="79.91" r=".95"/>
      <circle id="Ellipse_372" class="cls-1" cx="457.82" cy="206.24" r=".95"/>
      <circle id="Ellipse_710" class="cls-1" cx="457.82" cy="269.41" r=".95"/>
      <circle id="Ellipse_144" class="cls-1" cx="457.82" cy="48.33" r=".95"/>
      <circle id="Ellipse_458" class="cls-1" cx="457.82" cy="174.66" r=".95"/>
      <circle id="Ellipse_195" class="cls-1" cx="457.82" cy="111.49" r=".95"/>
      <circle id="Ellipse_327" class="cls-1" cx="457.82" cy="237.83" r=".95"/>
      <circle id="Ellipse_55" class="cls-1" cx="300.45" cy=".95" r=".95"/>
      <circle id="Ellipse_591" class="cls-1" cx="300.45" cy="127.29" r=".95"/>
      <circle id="Ellipse_275" class="cls-1" cx="300.45" cy="64.12" r=".95"/>
      <circle id="Ellipse_415" class="cls-1" cx="300.45" cy="190.45" r=".95"/>
      <circle id="Ellipse_668" class="cls-1" cx="300.45" cy="253.62" r=".95"/>
      <circle id="Ellipse_183" class="cls-1" cx="300.45" cy="32.54" r=".95"/>
      <circle id="Ellipse_511" class="cls-1" cx="300.45" cy="158.87" r=".95"/>
      <circle id="Ellipse_244" class="cls-1" cx="300.45" cy="95.7" r=".95"/>
      <circle id="Ellipse_350" class="cls-1" cx="300.45" cy="222.04" r=".95"/>
      <circle id="Ellipse_669" class="cls-1" cx="300.45" cy="285.2" r=".95"/>
      <circle id="Ellipse_96" class="cls-1" cx="300.45" cy="16.74" r=".95"/>
      <circle id="Ellipse_557" class="cls-1" cx="300.45" cy="143.08" r=".95"/>
      <circle id="Ellipse_245" class="cls-1" cx="300.45" cy="79.91" r=".95"/>
      <circle id="Ellipse_373" class="cls-1" cx="300.45" cy="206.24" r=".95"/>
      <circle id="Ellipse_670" class="cls-1" cx="300.45" cy="269.41" r=".95"/>
      <circle id="Ellipse_145" class="cls-1" cx="300.45" cy="48.33" r=".95"/>
      <circle id="Ellipse_459" class="cls-1" cx="300.45" cy="174.66" r=".95"/>
      <circle id="Ellipse_246" class="cls-1" cx="300.45" cy="111.49" r=".95"/>
      <circle id="Ellipse_351" class="cls-1" cx="300.45" cy="237.83" r=".95"/>
    </g>
  </g>
</svg>