<?xml version="1.0" encoding="UTF-8"?>
<svg id="Layer_2" xmlns="http://www.w3.org/2000/svg" viewBox="0 0 663.52 112.45">
  <defs>
    <style>
      .cls-1 {
        fill: #fee0c6;
        isolation: isolate;
        opacity: .4;
      }
    </style>
  </defs>
  <g id="Layer_1-2" data-name="Layer_1">
    <g>
      <g>
        <circle id="Ellipse_559" class="cls-1" cx="142.81" cy="48.33" r=".95"/>
        <circle id="Ellipse_386" class="cls-1" cx="142.81" cy="111.49" r=".95"/>
        <circle id="Ellipse_480" class="cls-1" cx="142.81" cy="79.91" r=".95"/>
        <circle id="Ellipse_196" class="cls-1" cx="142.81" cy="16.74" r=".95"/>
        <circle id="Ellipse_525" class="cls-1" cx="142.81" cy="64.12" r=".95"/>
        <circle id="Ellipse_197" class="cls-1" cx="142.81" cy=".95" r=".95"/>
        <circle id="Ellipse_428" class="cls-1" cx="142.81" cy="95.7" r=".95"/>
        <circle id="Ellipse_198" class="cls-1" cx="142.81" cy="32.54" r=".95"/>
        <circle id="Ellipse_561" class="cls-1" cx="300.18" cy="48.33" r=".95"/>
        <circle id="Ellipse_391" class="cls-1" cx="300.18" cy="111.49" r=".95"/>
        <circle id="Ellipse_482" class="cls-1" cx="300.18" cy="79.91" r=".95"/>
        <circle id="Ellipse_199" class="cls-1" cx="300.18" cy="16.74" r=".95"/>
        <circle id="Ellipse_527" class="cls-1" cx="300.18" cy="64.12" r=".95"/>
        <circle id="Ellipse_200" class="cls-1" cx="300.18" cy=".95" r=".95"/>
        <circle id="Ellipse_430" class="cls-1" cx="300.18" cy="95.7" r=".95"/>
        <circle id="Ellipse_184" class="cls-1" cx="300.18" cy="32.54" r=".95"/>
        <circle id="Ellipse_563" class="cls-1" cx="221.49" cy="48.33" r=".95"/>
        <circle id="Ellipse_392" class="cls-1" cx="221.49" cy="111.49" r=".95"/>
        <circle id="Ellipse_484" class="cls-1" cx="221.49" cy="79.91" r=".95"/>
        <circle id="Ellipse_201" class="cls-1" cx="221.49" cy="16.74" r=".95"/>
        <circle id="Ellipse_529" class="cls-1" cx="221.49" cy="64.12" r=".95"/>
        <circle id="Ellipse_202" class="cls-1" cx="221.49" cy=".95" r=".95"/>
        <circle id="Ellipse_431" class="cls-1" cx="221.49" cy="95.7" r=".95"/>
        <circle id="Ellipse_185" class="cls-1" cx="221.49" cy="32.54" r=".95"/>
        <circle id="Ellipse_564" class="cls-1" cx="63.85" cy="48.33" r=".95"/>
        <circle id="Ellipse_393" class="cls-1" cx="63.85" cy="111.49" r=".95"/>
        <circle id="Ellipse_485" class="cls-1" cx="63.85" cy="79.91" r=".95"/>
        <circle id="Ellipse_203" class="cls-1" cx="63.85" cy="16.74" r=".95"/>
        <circle id="Ellipse_530" class="cls-1" cx="63.85" cy="64.12" r=".95"/>
        <circle id="Ellipse_204" class="cls-1" cx="63.85" cy=".95" r=".95"/>
        <circle id="Ellipse_432" class="cls-1" cx="63.85" cy="95.7" r=".95"/>
        <circle id="Ellipse_205" class="cls-1" cx="63.85" cy="32.54" r=".95"/>
        <circle id="Ellipse_565" class="cls-1" cx="331.76" cy="48.33" r=".95"/>
        <circle id="Ellipse_394" class="cls-1" cx="331.76" cy="111.49" r=".95"/>
        <circle id="Ellipse_486" class="cls-1" cx="331.76" cy="79.91" r=".95"/>
        <circle id="Ellipse_206" class="cls-1" cx="331.76" cy="16.74" r=".95"/>
        <circle id="Ellipse_531" class="cls-1" cx="331.76" cy="64.12" r=".95"/>
        <circle id="Ellipse_207" class="cls-1" cx="331.76" cy=".95" r=".95"/>
        <circle id="Ellipse_433" class="cls-1" cx="331.76" cy="95.7" r=".95"/>
        <circle id="Ellipse_186" class="cls-1" cx="331.76" cy="32.54" r=".95"/>
        <circle id="Ellipse_567" class="cls-1" cx="158.32" cy="48.33" r=".95"/>
        <circle id="Ellipse_395" class="cls-1" cx="158.32" cy="111.49" r=".95"/>
        <circle id="Ellipse_487" class="cls-1" cx="158.32" cy="79.91" r=".95"/>
        <circle id="Ellipse_208" class="cls-1" cx="158.32" cy="16.74" r=".95"/>
        <circle id="Ellipse_533" class="cls-1" cx="158.32" cy="64.12" r=".95"/>
        <circle id="Ellipse_209" class="cls-1" cx="158.32" cy=".95" r=".95"/>
        <circle id="Ellipse_434" class="cls-1" cx="158.32" cy="95.7" r=".95"/>
        <circle id="Ellipse_210" class="cls-1" cx="158.32" cy="32.54" r=".95"/>
        <circle id="Ellipse_568" class="cls-1" cx=".95" cy="48.33" r=".95"/>
        <circle id="Ellipse_396" class="cls-1" cx=".95" cy="111.49" r=".95"/>
        <circle id="Ellipse_488" class="cls-1" cx=".95" cy="79.91" r=".95"/>
        <circle id="Ellipse_254" class="cls-1" cx=".95" cy="16.74" r=".95"/>
        <circle id="Ellipse_534" class="cls-1" cx=".95" cy="64.12" r=".95"/>
        <circle id="Ellipse_255" class="cls-1" cx=".95" cy=".95" r=".95"/>
        <circle id="Ellipse_435" class="cls-1" cx=".95" cy="95.7" r=".95"/>
        <circle id="Ellipse_256" class="cls-1" cx=".95" cy="32.54" r=".95"/>
        <circle id="Ellipse_569" class="cls-1" cx="315.97" cy="48.33" r=".95"/>
        <circle id="Ellipse_400" class="cls-1" cx="315.97" cy="111.49" r=".95"/>
        <circle id="Ellipse_489" class="cls-1" cx="315.97" cy="79.91" r=".95"/>
        <circle id="Ellipse_211" class="cls-1" cx="315.97" cy="16.74" r=".95"/>
        <circle id="Ellipse_535" class="cls-1" cx="315.97" cy="64.12" r=".95"/>
        <circle id="Ellipse_212" class="cls-1" cx="315.97" cy=".95" r=".95"/>
        <circle id="Ellipse_436" class="cls-1" cx="315.97" cy="95.7" r=".95"/>
        <circle id="Ellipse_187" class="cls-1" cx="315.97" cy="32.54" r=".95"/>
        <circle id="Ellipse_571" class="cls-1" cx="237.28" cy="48.33" r=".95"/>
        <circle id="Ellipse_401" class="cls-1" cx="237.28" cy="111.49" r=".95"/>
        <circle id="Ellipse_491" class="cls-1" cx="237.28" cy="79.91" r=".95"/>
        <circle id="Ellipse_213" class="cls-1" cx="237.28" cy="16.74" r=".95"/>
        <circle id="Ellipse_537" class="cls-1" cx="237.28" cy="64.12" r=".95"/>
        <circle id="Ellipse_214" class="cls-1" cx="237.28" cy=".95" r=".95"/>
        <circle id="Ellipse_442" class="cls-1" cx="237.28" cy="95.7" r=".95"/>
        <circle id="Ellipse_188" class="cls-1" cx="237.28" cy="32.54" r=".95"/>
        <circle id="Ellipse_572" class="cls-1" cx="79.64" cy="48.33" r=".95"/>
        <circle id="Ellipse_402" class="cls-1" cx="79.64" cy="111.49" r=".95"/>
        <circle id="Ellipse_492" class="cls-1" cx="79.64" cy="79.91" r=".95"/>
        <circle id="Ellipse_215" class="cls-1" cx="79.64" cy="16.74" r=".95"/>
        <circle id="Ellipse_538" class="cls-1" cx="79.64" cy="64.12" r=".95"/>
        <circle id="Ellipse_216" class="cls-1" cx="79.64" cy=".95" r=".95"/>
        <circle id="Ellipse_443" class="cls-1" cx="79.64" cy="95.7" r=".95"/>
        <circle id="Ellipse_217" class="cls-1" cx="79.64" cy="32.54" r=".95"/>
        <circle id="Ellipse_575" class="cls-1" cx="174.12" cy="48.33" r=".95"/>
        <circle id="Ellipse_404" class="cls-1" cx="174.12" cy="111.49" r=".95"/>
        <circle id="Ellipse_495" class="cls-1" cx="174.12" cy="79.91" r=".95"/>
        <circle id="Ellipse_220" class="cls-1" cx="174.12" cy="16.74" r=".95"/>
        <circle id="Ellipse_541" class="cls-1" cx="174.12" cy="64.12" r=".95"/>
        <circle id="Ellipse_221" class="cls-1" cx="174.12" cy=".95" r=".95"/>
        <circle id="Ellipse_445" class="cls-1" cx="174.12" cy="95.7" r=".95"/>
        <circle id="Ellipse_190" class="cls-1" cx="174.12" cy="32.54" r=".95"/>
        <circle id="Ellipse_576" class="cls-1" cx="16.74" cy="48.33" r=".95"/>
        <circle id="Ellipse_405" class="cls-1" cx="16.74" cy="111.49" r=".95"/>
        <circle id="Ellipse_496" class="cls-1" cx="16.74" cy="79.91" r=".95"/>
        <circle id="Ellipse_263" class="cls-1" cx="16.74" cy="16.74" r=".95"/>
        <circle id="Ellipse_542" class="cls-1" cx="16.74" cy="64.12" r=".95"/>
        <circle id="Ellipse_264" class="cls-1" cx="16.74" cy=".95" r=".95"/>
        <circle id="Ellipse_446" class="cls-1" cx="16.74" cy="95.7" r=".95"/>
        <circle id="Ellipse_265" class="cls-1" cx="16.74" cy="32.54" r=".95"/>
        <circle id="Ellipse_578" class="cls-1" cx="253.07" cy="48.33" r=".95"/>
        <circle id="Ellipse_406" class="cls-1" cx="253.07" cy="111.49" r=".95"/>
        <circle id="Ellipse_498" class="cls-1" cx="253.07" cy="79.91" r=".95"/>
        <circle id="Ellipse_222" class="cls-1" cx="253.07" cy="16.74" r=".95"/>
        <circle id="Ellipse_544" class="cls-1" cx="253.07" cy="64.12" r=".95"/>
        <circle id="Ellipse_223" class="cls-1" cx="253.07" cy=".95" r=".95"/>
        <circle id="Ellipse_448" class="cls-1" cx="253.07" cy="95.7" r=".95"/>
        <circle id="Ellipse_191" class="cls-1" cx="253.07" cy="32.54" r=".95"/>
        <circle id="Ellipse_579" class="cls-1" cx="95.43" cy="48.33" r=".95"/>
        <circle id="Ellipse_407" class="cls-1" cx="95.43" cy="111.49" r=".95"/>
        <circle id="Ellipse_499" class="cls-1" cx="95.43" cy="79.91" r=".95"/>
        <circle id="Ellipse_224" class="cls-1" cx="95.43" cy="16.74" r=".95"/>
        <circle id="Ellipse_545" class="cls-1" cx="95.43" cy="64.12" r=".95"/>
        <circle id="Ellipse_225" class="cls-1" cx="95.43" cy=".95" r=".95"/>
        <circle id="Ellipse_449" class="cls-1" cx="95.43" cy="95.7" r=".95"/>
        <circle id="Ellipse_226" class="cls-1" cx="95.43" cy="32.54" r=".95"/>
        <circle id="Ellipse_581" class="cls-1" cx="189.91" cy="48.33" r=".95"/>
        <circle id="Ellipse_408" class="cls-1" cx="189.91" cy="111.49" r=".95"/>
        <circle id="Ellipse_501" class="cls-1" cx="189.91" cy="79.91" r=".95"/>
        <circle id="Ellipse_227" class="cls-1" cx="189.91" cy="16.74" r=".95"/>
        <circle id="Ellipse_547" class="cls-1" cx="189.91" cy="64.12" r=".95"/>
        <circle id="Ellipse_228" class="cls-1" cx="189.91" cy=".95" r=".95"/>
        <circle id="Ellipse_450" class="cls-1" cx="189.91" cy="95.7" r=".95"/>
        <circle id="Ellipse_192" class="cls-1" cx="189.91" cy="32.54" r=".95"/>
        <circle id="Ellipse_582" class="cls-1" cx="32.26" cy="48.33" r=".95"/>
        <circle id="Ellipse_409" class="cls-1" cx="32.26" cy="111.49" r=".95"/>
        <circle id="Ellipse_502" class="cls-1" cx="32.26" cy="79.91" r=".95"/>
        <circle id="Ellipse_229" class="cls-1" cx="32.26" cy="16.74" r=".95"/>
        <circle id="Ellipse_548" class="cls-1" cx="32.26" cy="64.12" r=".95"/>
        <circle id="Ellipse_230" class="cls-1" cx="32.26" cy=".95" r=".95"/>
        <circle id="Ellipse_451" class="cls-1" cx="32.26" cy="95.7" r=".95"/>
        <circle id="Ellipse_231" class="cls-1" cx="32.26" cy="32.54" r=".95"/>
        <circle id="Ellipse_584" class="cls-1" cx="268.87" cy="48.33" r=".95"/>
        <circle id="Ellipse_410" class="cls-1" cx="268.87" cy="111.49" r=".95"/>
        <circle id="Ellipse_504" class="cls-1" cx="268.87" cy="79.91" r=".95"/>
        <circle id="Ellipse_232" class="cls-1" cx="268.87" cy="16.74" r=".95"/>
        <circle id="Ellipse_550" class="cls-1" cx="268.87" cy="64.12" r=".95"/>
        <circle id="Ellipse_233" class="cls-1" cx="268.87" cy=".95" r=".95"/>
        <circle id="Ellipse_453" class="cls-1" cx="268.87" cy="95.7" r=".95"/>
        <circle id="Ellipse_193" class="cls-1" cx="268.87" cy="32.54" r=".95"/>
        <circle id="Ellipse_585" class="cls-1" cx="111.22" cy="48.33" r=".95"/>
        <circle id="Ellipse_411" class="cls-1" cx="111.22" cy="111.49" r=".95"/>
        <circle id="Ellipse_505" class="cls-1" cx="111.22" cy="79.91" r=".95"/>
        <circle id="Ellipse_234" class="cls-1" cx="111.22" cy="16.74" r=".95"/>
        <circle id="Ellipse_551" class="cls-1" cx="111.22" cy="64.12" r=".95"/>
        <circle id="Ellipse_235" class="cls-1" cx="111.22" cy=".95" r=".95"/>
        <circle id="Ellipse_454" class="cls-1" cx="111.22" cy="95.7" r=".95"/>
        <circle id="Ellipse_236" class="cls-1" cx="111.22" cy="32.54" r=".95"/>
        <circle id="Ellipse_587" class="cls-1" cx="205.7" cy="48.33" r=".95"/>
        <circle id="Ellipse_412" class="cls-1" cx="205.7" cy="111.49" r=".95"/>
        <circle id="Ellipse_507" class="cls-1" cx="205.7" cy="79.91" r=".95"/>
        <circle id="Ellipse_237" class="cls-1" cx="205.7" cy="16.74" r=".95"/>
        <circle id="Ellipse_553" class="cls-1" cx="205.7" cy="64.12" r=".95"/>
        <circle id="Ellipse_238" class="cls-1" cx="205.7" cy=".95" r=".95"/>
        <circle id="Ellipse_455" class="cls-1" cx="205.7" cy="95.7" r=".95"/>
        <circle id="Ellipse_194" class="cls-1" cx="205.7" cy="32.54" r=".95"/>
        <circle id="Ellipse_588" class="cls-1" cx="48.06" cy="48.33" r=".95"/>
        <circle id="Ellipse_413" class="cls-1" cx="48.06" cy="111.49" r=".95"/>
        <circle id="Ellipse_508" class="cls-1" cx="48.06" cy="79.91" r=".95"/>
        <circle id="Ellipse_239" class="cls-1" cx="48.06" cy="16.74" r=".95"/>
        <circle id="Ellipse_554" class="cls-1" cx="48.06" cy="64.12" r=".95"/>
        <circle id="Ellipse_240" class="cls-1" cx="48.06" cy=".95" r=".95"/>
        <circle id="Ellipse_456" class="cls-1" cx="48.06" cy="95.7" r=".95"/>
        <circle id="Ellipse_241" class="cls-1" cx="48.06" cy="32.54" r=".95"/>
        <circle id="Ellipse_590" class="cls-1" cx="284.39" cy="48.33" r=".95"/>
        <circle id="Ellipse_414" class="cls-1" cx="284.39" cy="111.49" r=".95"/>
        <circle id="Ellipse_510" class="cls-1" cx="284.39" cy="79.91" r=".95"/>
        <circle id="Ellipse_242" class="cls-1" cx="284.39" cy="16.74" r=".95"/>
        <circle id="Ellipse_556" class="cls-1" cx="284.39" cy="64.12" r=".95"/>
        <circle id="Ellipse_243" class="cls-1" cx="284.39" cy=".95" r=".95"/>
        <circle id="Ellipse_458" class="cls-1" cx="284.39" cy="95.7" r=".95"/>
        <circle id="Ellipse_195" class="cls-1" cx="284.39" cy="32.54" r=".95"/>
        <circle id="Ellipse_591" class="cls-1" cx="127.01" cy="48.33" r=".95"/>
        <circle id="Ellipse_415" class="cls-1" cx="127.01" cy="111.49" r=".95"/>
        <circle id="Ellipse_511" class="cls-1" cx="127.01" cy="79.91" r=".95"/>
        <circle id="Ellipse_244" class="cls-1" cx="127.01" cy="16.74" r=".95"/>
        <circle id="Ellipse_557" class="cls-1" cx="127.01" cy="64.12" r=".95"/>
        <circle id="Ellipse_245" class="cls-1" cx="127.01" cy=".95" r=".95"/>
        <circle id="Ellipse_459" class="cls-1" cx="127.01" cy="95.7" r=".95"/>
        <circle id="Ellipse_246" class="cls-1" cx="127.01" cy="32.54" r=".95"/>
      </g>
      <g>
        <circle id="Ellipse_559-2" data-name="Ellipse_559" class="cls-1" cx="647.05" cy="48.33" r=".95"/>
        <circle id="Ellipse_386-2" data-name="Ellipse_386" class="cls-1" cx="647.05" cy="111.49" r=".95"/>
        <circle id="Ellipse_480-2" data-name="Ellipse_480" class="cls-1" cx="647.05" cy="79.91" r=".95"/>
        <circle id="Ellipse_196-2" data-name="Ellipse_196" class="cls-1" cx="647.05" cy="16.74" r=".95"/>
        <circle id="Ellipse_525-2" data-name="Ellipse_525" class="cls-1" cx="647.05" cy="64.12" r=".95"/>
        <circle id="Ellipse_197-2" data-name="Ellipse_197" class="cls-1" cx="647.05" cy=".95" r=".95"/>
        <circle id="Ellipse_428-2" data-name="Ellipse_428" class="cls-1" cx="647.05" cy="95.7" r=".95"/>
        <circle id="Ellipse_198-2" data-name="Ellipse_198" class="cls-1" cx="647.05" cy="32.54" r=".95"/>
        <circle id="Ellipse_560" class="cls-1" cx="489.4" cy="48.33" r=".95"/>
        <circle id="Ellipse_387" class="cls-1" cx="489.4" cy="111.49" r=".95"/>
        <circle id="Ellipse_481" class="cls-1" cx="489.4" cy="79.91" r=".95"/>
        <circle id="Ellipse_277" class="cls-1" cx="489.4" cy="16.74" r=".95"/>
        <circle id="Ellipse_526" class="cls-1" cx="489.4" cy="64.12" r=".95"/>
        <circle id="Ellipse_278" class="cls-1" cx="489.4" cy=".95" r=".95"/>
        <circle id="Ellipse_429" class="cls-1" cx="489.4" cy="95.7" r=".95"/>
        <circle id="Ellipse_279" class="cls-1" cx="489.4" cy="32.54" r=".95"/>
        <circle id="Ellipse_562" class="cls-1" cx="410.45" cy="48.33" r=".95"/>
        <circle id="Ellipse_460" class="cls-1" cx="410.45" cy="111.49" r=".95"/>
        <circle id="Ellipse_483" class="cls-1" cx="410.45" cy="79.91" r=".95"/>
        <circle id="Ellipse_293" class="cls-1" cx="410.45" cy="16.74" r=".95"/>
        <circle id="Ellipse_528" class="cls-1" cx="410.45" cy="64.12" r=".95"/>
        <circle id="Ellipse_294" class="cls-1" cx="410.45" cy=".95" r=".95"/>
        <circle id="Ellipse_463" class="cls-1" cx="410.45" cy="95.7" r=".95"/>
        <circle id="Ellipse_295" class="cls-1" cx="410.45" cy="32.54" r=".95"/>
        <circle id="Ellipse_564-2" data-name="Ellipse_564" class="cls-1" cx="568.09" cy="48.33" r=".95"/>
        <circle id="Ellipse_393-2" data-name="Ellipse_393" class="cls-1" cx="568.09" cy="111.49" r=".95"/>
        <circle id="Ellipse_485-2" data-name="Ellipse_485" class="cls-1" cx="568.09" cy="79.91" r=".95"/>
        <circle id="Ellipse_203-2" data-name="Ellipse_203" class="cls-1" cx="568.09" cy="16.74" r=".95"/>
        <circle id="Ellipse_530-2" data-name="Ellipse_530" class="cls-1" cx="568.09" cy="64.12" r=".95"/>
        <circle id="Ellipse_204-2" data-name="Ellipse_204" class="cls-1" cx="568.09" cy=".95" r=".95"/>
        <circle id="Ellipse_432-2" data-name="Ellipse_432" class="cls-1" cx="568.09" cy="95.7" r=".95"/>
        <circle id="Ellipse_205-2" data-name="Ellipse_205" class="cls-1" cx="568.09" cy="32.54" r=".95"/>
        <circle id="Ellipse_566" class="cls-1" cx="347.55" cy="48.33" r=".95"/>
        <circle id="Ellipse_512" class="cls-1" cx="347.55" cy="111.49" r=".95"/>
        <circle id="Ellipse_513" class="cls-1" cx="347.55" cy="79.91" r=".95"/>
        <circle id="Ellipse_309" class="cls-1" cx="347.55" cy="16.74" r=".95"/>
        <circle id="Ellipse_532" class="cls-1" cx="347.55" cy="64.12" r=".95"/>
        <circle id="Ellipse_310" class="cls-1" cx="347.55" cy=".95" r=".95"/>
        <circle id="Ellipse_516" class="cls-1" cx="347.55" cy="95.7" r=".95"/>
        <circle id="Ellipse_311" class="cls-1" cx="347.55" cy="32.54" r=".95"/>
        <circle id="Ellipse_567-2" data-name="Ellipse_567" class="cls-1" cx="662.57" cy="48.33" r=".95"/>
        <circle id="Ellipse_395-2" data-name="Ellipse_395" class="cls-1" cx="662.57" cy="111.49" r=".95"/>
        <circle id="Ellipse_487-2" data-name="Ellipse_487" class="cls-1" cx="662.57" cy="79.91" r=".95"/>
        <circle id="Ellipse_208-2" data-name="Ellipse_208" class="cls-1" cx="662.57" cy="16.74" r=".95"/>
        <circle id="Ellipse_533-2" data-name="Ellipse_533" class="cls-1" cx="662.57" cy="64.12" r=".95"/>
        <circle id="Ellipse_209-2" data-name="Ellipse_209" class="cls-1" cx="662.57" cy=".95" r=".95"/>
        <circle id="Ellipse_434-2" data-name="Ellipse_434" class="cls-1" cx="662.57" cy="95.7" r=".95"/>
        <circle id="Ellipse_210-2" data-name="Ellipse_210" class="cls-1" cx="662.57" cy="32.54" r=".95"/>
        <circle id="Ellipse_568-2" data-name="Ellipse_568" class="cls-1" cx="505.2" cy="48.33" r=".95"/>
        <circle id="Ellipse_396-2" data-name="Ellipse_396" class="cls-1" cx="505.2" cy="111.49" r=".95"/>
        <circle id="Ellipse_488-2" data-name="Ellipse_488" class="cls-1" cx="505.2" cy="79.91" r=".95"/>
        <circle id="Ellipse_254-2" data-name="Ellipse_254" class="cls-1" cx="505.2" cy="16.74" r=".95"/>
        <circle id="Ellipse_534-2" data-name="Ellipse_534" class="cls-1" cx="505.2" cy="64.12" r=".95"/>
        <circle id="Ellipse_255-2" data-name="Ellipse_255" class="cls-1" cx="505.2" cy=".95" r=".95"/>
        <circle id="Ellipse_435-2" data-name="Ellipse_435" class="cls-1" cx="505.2" cy="95.7" r=".95"/>
        <circle id="Ellipse_256-2" data-name="Ellipse_256" class="cls-1" cx="505.2" cy="32.54" r=".95"/>
        <circle id="Ellipse_570" class="cls-1" cx="426.24" cy="48.33" r=".95"/>
        <circle id="Ellipse_437" class="cls-1" cx="426.24" cy="111.49" r=".95"/>
        <circle id="Ellipse_490" class="cls-1" cx="426.24" cy="79.91" r=".95"/>
        <circle id="Ellipse_297" class="cls-1" cx="426.24" cy="16.74" r=".95"/>
        <circle id="Ellipse_536" class="cls-1" cx="426.24" cy="64.12" r=".95"/>
        <circle id="Ellipse_298" class="cls-1" cx="426.24" cy=".95" r=".95"/>
        <circle id="Ellipse_440" class="cls-1" cx="426.24" cy="95.7" r=".95"/>
        <circle id="Ellipse_299" class="cls-1" cx="426.24" cy="32.54" r=".95"/>
        <circle id="Ellipse_572-2" data-name="Ellipse_572" class="cls-1" cx="583.88" cy="48.33" r=".95"/>
        <circle id="Ellipse_402-2" data-name="Ellipse_402" class="cls-1" cx="583.88" cy="111.49" r=".95"/>
        <circle id="Ellipse_492-2" data-name="Ellipse_492" class="cls-1" cx="583.88" cy="79.91" r=".95"/>
        <circle id="Ellipse_215-2" data-name="Ellipse_215" class="cls-1" cx="583.88" cy="16.74" r=".95"/>
        <circle id="Ellipse_538-2" data-name="Ellipse_538" class="cls-1" cx="583.88" cy="64.12" r=".95"/>
        <circle id="Ellipse_216-2" data-name="Ellipse_216" class="cls-1" cx="583.88" cy=".95" r=".95"/>
        <circle id="Ellipse_443-2" data-name="Ellipse_443" class="cls-1" cx="583.88" cy="95.7" r=".95"/>
        <circle id="Ellipse_217-2" data-name="Ellipse_217" class="cls-1" cx="583.88" cy="32.54" r=".95"/>
        <circle id="Ellipse_574" class="cls-1" cx="363.34" cy="48.33" r=".95"/>
        <circle id="Ellipse_475" class="cls-1" cx="363.34" cy="111.49" r=".95"/>
        <circle id="Ellipse_494" class="cls-1" cx="363.34" cy="79.91" r=".95"/>
        <circle id="Ellipse_313" class="cls-1" cx="363.34" cy="16.74" r=".95"/>
        <circle id="Ellipse_540" class="cls-1" cx="363.34" cy="64.12" r=".95"/>
        <circle id="Ellipse_314" class="cls-1" cx="363.34" cy=".95" r=".95"/>
        <circle id="Ellipse_478" class="cls-1" cx="363.34" cy="95.7" r=".95"/>
        <circle id="Ellipse_315" class="cls-1" cx="363.34" cy="32.54" r=".95"/>
        <circle id="Ellipse_576-2" data-name="Ellipse_576" class="cls-1" cx="520.99" cy="48.33" r=".95"/>
        <circle id="Ellipse_405-2" data-name="Ellipse_405" class="cls-1" cx="520.99" cy="111.49" r=".95"/>
        <circle id="Ellipse_496-2" data-name="Ellipse_496" class="cls-1" cx="520.99" cy="79.91" r=".95"/>
        <circle id="Ellipse_263-2" data-name="Ellipse_263" class="cls-1" cx="520.99" cy="16.74" r=".95"/>
        <circle id="Ellipse_542-2" data-name="Ellipse_542" class="cls-1" cx="520.99" cy="64.12" r=".95"/>
        <circle id="Ellipse_264-2" data-name="Ellipse_264" class="cls-1" cx="520.99" cy=".95" r=".95"/>
        <circle id="Ellipse_446-2" data-name="Ellipse_446" class="cls-1" cx="520.99" cy="95.7" r=".95"/>
        <circle id="Ellipse_265-2" data-name="Ellipse_265" class="cls-1" cx="520.99" cy="32.54" r=".95"/>
        <circle id="Ellipse_577" class="cls-1" cx="442.03" cy="48.33" r=".95"/>
        <circle id="Ellipse_416" class="cls-1" cx="442.03" cy="111.49" r=".95"/>
        <circle id="Ellipse_497" class="cls-1" cx="442.03" cy="79.91" r=".95"/>
        <circle id="Ellipse_281" class="cls-1" cx="442.03" cy="16.74" r=".95"/>
        <circle id="Ellipse_543" class="cls-1" cx="442.03" cy="64.12" r=".95"/>
        <circle id="Ellipse_282" class="cls-1" cx="442.03" cy=".95" r=".95"/>
        <circle id="Ellipse_447" class="cls-1" cx="442.03" cy="95.7" r=".95"/>
        <circle id="Ellipse_283" class="cls-1" cx="442.03" cy="32.54" r=".95"/>
        <circle id="Ellipse_579-2" data-name="Ellipse_579" class="cls-1" cx="599.67" cy="48.33" r=".95"/>
        <circle id="Ellipse_407-2" data-name="Ellipse_407" class="cls-1" cx="599.67" cy="111.49" r=".95"/>
        <circle id="Ellipse_499-2" data-name="Ellipse_499" class="cls-1" cx="599.67" cy="79.91" r=".95"/>
        <circle id="Ellipse_224-2" data-name="Ellipse_224" class="cls-1" cx="599.67" cy="16.74" r=".95"/>
        <circle id="Ellipse_545-2" data-name="Ellipse_545" class="cls-1" cx="599.67" cy="64.12" r=".95"/>
        <circle id="Ellipse_225-2" data-name="Ellipse_225" class="cls-1" cx="599.67" cy=".95" r=".95"/>
        <circle id="Ellipse_449-2" data-name="Ellipse_449" class="cls-1" cx="599.67" cy="95.7" r=".95"/>
        <circle id="Ellipse_226-2" data-name="Ellipse_226" class="cls-1" cx="599.67" cy="32.54" r=".95"/>
        <circle id="Ellipse_580" class="cls-1" cx="379.14" cy="48.33" r=".95"/>
        <circle id="Ellipse_470" class="cls-1" cx="379.14" cy="111.49" r=".95"/>
        <circle id="Ellipse_500" class="cls-1" cx="379.14" cy="79.91" r=".95"/>
        <circle id="Ellipse_301" class="cls-1" cx="379.14" cy="16.74" r=".95"/>
        <circle id="Ellipse_546" class="cls-1" cx="379.14" cy="64.12" r=".95"/>
        <circle id="Ellipse_302" class="cls-1" cx="379.14" cy=".95" r=".95"/>
        <circle id="Ellipse_473" class="cls-1" cx="379.14" cy="95.7" r=".95"/>
        <circle id="Ellipse_303" class="cls-1" cx="379.14" cy="32.54" r=".95"/>
        <circle id="Ellipse_582-2" data-name="Ellipse_582" class="cls-1" cx="536.51" cy="48.33" r=".95"/>
        <circle id="Ellipse_409-2" data-name="Ellipse_409" class="cls-1" cx="536.51" cy="111.49" r=".95"/>
        <circle id="Ellipse_502-2" data-name="Ellipse_502" class="cls-1" cx="536.51" cy="79.91" r=".95"/>
        <circle id="Ellipse_229-2" data-name="Ellipse_229" class="cls-1" cx="536.51" cy="16.74" r=".95"/>
        <circle id="Ellipse_548-2" data-name="Ellipse_548" class="cls-1" cx="536.51" cy="64.12" r=".95"/>
        <circle id="Ellipse_230-2" data-name="Ellipse_230" class="cls-1" cx="536.51" cy=".95" r=".95"/>
        <circle id="Ellipse_451-2" data-name="Ellipse_451" class="cls-1" cx="536.51" cy="95.7" r=".95"/>
        <circle id="Ellipse_231-2" data-name="Ellipse_231" class="cls-1" cx="536.51" cy="32.54" r=".95"/>
        <circle id="Ellipse_583" class="cls-1" cx="457.82" cy="48.33" r=".95"/>
        <circle id="Ellipse_420" class="cls-1" cx="457.82" cy="111.49" r=".95"/>
        <circle id="Ellipse_503" class="cls-1" cx="457.82" cy="79.91" r=".95"/>
        <circle id="Ellipse_285" class="cls-1" cx="457.82" cy="16.74" r=".95"/>
        <circle id="Ellipse_549" class="cls-1" cx="457.82" cy="64.12" r=".95"/>
        <circle id="Ellipse_286" class="cls-1" cx="457.82" cy=".95" r=".95"/>
        <circle id="Ellipse_452" class="cls-1" cx="457.82" cy="95.7" r=".95"/>
        <circle id="Ellipse_287" class="cls-1" cx="457.82" cy="32.54" r=".95"/>
        <circle id="Ellipse_585-2" data-name="Ellipse_585" class="cls-1" cx="615.47" cy="48.33" r=".95"/>
        <circle id="Ellipse_411-2" data-name="Ellipse_411" class="cls-1" cx="615.47" cy="111.49" r=".95"/>
        <circle id="Ellipse_505-2" data-name="Ellipse_505" class="cls-1" cx="615.47" cy="79.91" r=".95"/>
        <circle id="Ellipse_234-2" data-name="Ellipse_234" class="cls-1" cx="615.47" cy="16.74" r=".95"/>
        <circle id="Ellipse_551-2" data-name="Ellipse_551" class="cls-1" cx="615.47" cy="64.12" r=".95"/>
        <circle id="Ellipse_235-2" data-name="Ellipse_235" class="cls-1" cx="615.47" cy=".95" r=".95"/>
        <circle id="Ellipse_454-2" data-name="Ellipse_454" class="cls-1" cx="615.47" cy="95.7" r=".95"/>
        <circle id="Ellipse_236-2" data-name="Ellipse_236" class="cls-1" cx="615.47" cy="32.54" r=".95"/>
        <circle id="Ellipse_586" class="cls-1" cx="394.93" cy="48.33" r=".95"/>
        <circle id="Ellipse_465" class="cls-1" cx="394.93" cy="111.49" r=".95"/>
        <circle id="Ellipse_506" class="cls-1" cx="394.93" cy="79.91" r=".95"/>
        <circle id="Ellipse_305" class="cls-1" cx="394.93" cy="16.74" r=".95"/>
        <circle id="Ellipse_552" class="cls-1" cx="394.93" cy="64.12" r=".95"/>
        <circle id="Ellipse_306" class="cls-1" cx="394.93" cy=".95" r=".95"/>
        <circle id="Ellipse_468" class="cls-1" cx="394.93" cy="95.7" r=".95"/>
        <circle id="Ellipse_307" class="cls-1" cx="394.93" cy="32.54" r=".95"/>
        <circle id="Ellipse_588-2" data-name="Ellipse_588" class="cls-1" cx="552.3" cy="48.33" r=".95"/>
        <circle id="Ellipse_413-2" data-name="Ellipse_413" class="cls-1" cx="552.3" cy="111.49" r=".95"/>
        <circle id="Ellipse_508-2" data-name="Ellipse_508" class="cls-1" cx="552.3" cy="79.91" r=".95"/>
        <circle id="Ellipse_239-2" data-name="Ellipse_239" class="cls-1" cx="552.3" cy="16.74" r=".95"/>
        <circle id="Ellipse_554-2" data-name="Ellipse_554" class="cls-1" cx="552.3" cy="64.12" r=".95"/>
        <circle id="Ellipse_240-2" data-name="Ellipse_240" class="cls-1" cx="552.3" cy=".95" r=".95"/>
        <circle id="Ellipse_456-2" data-name="Ellipse_456" class="cls-1" cx="552.3" cy="95.7" r=".95"/>
        <circle id="Ellipse_241-2" data-name="Ellipse_241" class="cls-1" cx="552.3" cy="32.54" r=".95"/>
        <circle id="Ellipse_589" class="cls-1" cx="473.61" cy="48.33" r=".95"/>
        <circle id="Ellipse_424" class="cls-1" cx="473.61" cy="111.49" r=".95"/>
        <circle id="Ellipse_509" class="cls-1" cx="473.61" cy="79.91" r=".95"/>
        <circle id="Ellipse_289" class="cls-1" cx="473.61" cy="16.74" r=".95"/>
        <circle id="Ellipse_555" class="cls-1" cx="473.61" cy="64.12" r=".95"/>
        <circle id="Ellipse_290" class="cls-1" cx="473.61" cy=".95" r=".95"/>
        <circle id="Ellipse_457" class="cls-1" cx="473.61" cy="95.7" r=".95"/>
        <circle id="Ellipse_291" class="cls-1" cx="473.61" cy="32.54" r=".95"/>
        <circle id="Ellipse_591-2" data-name="Ellipse_591" class="cls-1" cx="631.26" cy="48.33" r=".95"/>
        <circle id="Ellipse_415-2" data-name="Ellipse_415" class="cls-1" cx="631.26" cy="111.49" r=".95"/>
        <circle id="Ellipse_511-2" data-name="Ellipse_511" class="cls-1" cx="631.26" cy="79.91" r=".95"/>
        <circle id="Ellipse_244-2" data-name="Ellipse_244" class="cls-1" cx="631.26" cy="16.74" r=".95"/>
        <circle id="Ellipse_557-2" data-name="Ellipse_557" class="cls-1" cx="631.26" cy="64.12" r=".95"/>
        <circle id="Ellipse_245-2" data-name="Ellipse_245" class="cls-1" cx="631.26" cy=".95" r=".95"/>
        <circle id="Ellipse_459-2" data-name="Ellipse_459" class="cls-1" cx="631.26" cy="95.7" r=".95"/>
        <circle id="Ellipse_246-2" data-name="Ellipse_246" class="cls-1" cx="631.26" cy="32.54" r=".95"/>
      </g>
    </g>
  </g>
</svg>