<?xml version="1.0" encoding="UTF-8"?>
<svg id="Layer_2" xmlns="http://www.w3.org/2000/svg" viewBox="0 0 15.49 15.49">
  <defs>
    <style>
      .cls-1 {
        fill: #422a1e;
      }

      .cls-2 {
        fill: #fdfdf8;
      }
    </style>
  </defs>
  <g id="Layer_1-2" data-name="Layer_1">
    <g>
      <circle class="cls-1" cx="7.75" cy="7.75" r="7.75"/>
      <path class="cls-2" d="M9.85,3.68h-4.2c-1.08,0-1.96.88-1.96,1.96v4.2c0,1.08.88,1.96,1.96,1.96h4.2c1.08,0,1.96-.88,1.96-1.96v-4.2c0-1.08-.88-1.96-1.96-1.96M11.11,9.71c0,.77-.63,1.4-1.4,1.4h-3.92c-.77,0-1.4-.63-1.4-1.4v-3.92c0-.77.63-1.4,1.4-1.4h3.92c.77,0,1.4.63,1.4,1.4v3.92Z"/>
      <path class="cls-2" d="M7.75,5.65c-1.16,0-2.1.94-2.1,2.1s.94,2.1,2.1,2.1,2.1-.94,2.1-2.1-.94-2.1-2.1-2.1M7.75,9.15c-.77,0-1.4-.63-1.4-1.4s.63-1.4,1.4-1.4,1.4.63,1.4,1.4-.63,1.4-1.4,1.4"/>
      <path class="cls-2" d="M9.99,5.93c-.23,0-.42-.19-.42-.42s.19-.42.42-.42.42.19.42.42-.19.42-.42.42"/>
    </g>
  </g>
</svg>