<?xml version="1.0" encoding="UTF-8"?>
<svg id="Layer_2" xmlns="http://www.w3.org/2000/svg" viewBox="0 0 15.49 15.49">
  <defs>
    <style>
      .cls-1 {
        fill: #422a1f;
      }

      .cls-2 {
        fill: #fdfff8;
      }
    </style>
  </defs>
  <g id="Layer_1-2" data-name="Layer_1">
    <g>
      <circle class="cls-1" cx="7.75" cy="7.75" r="7.75"/>
      <path class="cls-2" d="M6,4.68c0,.55-.45,1-1,1s-1-.45-1-1,.45-1,1-1,1,.45,1,1"/>
      <path class="cls-2" d="M5.76,11.33h-1.51s-.07-.03-.07-.07v-4.84s.03-.07.07-.07h1.51s.07.03.07.07v4.84s-.03.07-.07.07"/>
      <path class="cls-2" d="M11.49,8.17v2.83c0,.18-.15.33-.33.33h-1c-.18,0-.33-.15-.33-.33v-2.33c0-.46-.37-.83-.83-.83s-.83.37-.83.83v2.33c0,.18-.15.33-.33.33h-1c-.18,0-.33-.15-.33-.33v-4.32c0-.18.15-.33.33-.33h1c.18,0,.33.15.33.33v.21c.33-.43.88-.71,1.5-.71.92,0,1.83.67,1.83,2"/>
    </g>
  </g>
</svg>