<?xml version="1.0" encoding="UTF-8"?>
<svg id="Layer_2" xmlns="http://www.w3.org/2000/svg" viewBox="0 0 160.02 44.29">
  <defs>
    <style>
      .cls-1 {
        isolation: isolate;
      }

      .cls-2 {
        fill: #422a1f;
      }
    </style>
  </defs>
  <g id="Layer_1-2" data-name="Layer_1">
    <g id="Layer_3">
      <g>
        <g>
          <g>
            <path class="cls-2" d="M40.43,33.62c-.17-.83-.86-1.22-1.39-.81-.83.64-.98,1.24-2.99,2.17-.99.46-3.97,1.5-7.47-.23-3.5-1.73-5.04-5.54-3.62-9.17,1.19-3.06,3.81-3.86,5.15-4.02,1.34-.16,4.06.08,5.41,2.03,1.52,2.17.5,4.14-.5,4.87-.42.31-1.09.41-1.63.36-.4-.04-.78-.21-1.05-.51-.25-.27-.42-.67-.27-1.17.18-.6.8-.76,1.15-.89.06-.02.12-.04.18-.06.24-.07.47-.16.62-.52.22-.53-.11-1.66-1.74-2.19-1.53-.51-3.92-.17-4.91,2.22-.92,2.25-.25,5.3,3.4,6.9h0c.49.19,1.04.35,1.63.45,5.18.9,9.12-3.76,8.35-8.8-.71-4.6-4.9-7.94-9.91-8.34-5.14-.41-11.85,2.21-13.86,8.86-2.27,7.49,1.96,13.19,6.61,15.29,4.18,1.88,8.61,1.45,11.04.63,1.96-.67,3.17-1.6,3.89-2.26,1.07-.99,2.3-2.97,1.92-4.81h0Z"/>
            <path class="cls-2" d="M42.66,38.17c0-2.25,2.1-4.79,3.99-4.79,2.79,0,2.05,6.1,6.1,6.1,1.8,0,3.04-1.15,3.04-2.94,0-2.2-1.31-2.75-5.5-4.7-4.14-1.95-6.2-4.49-6.2-8.13,0-3.64,3.17-7.09,9.44-7.09,5.69,0,9.68,1.65,9.68,3.54s-1.45,5.04-2.99,5.04c-2.15,0-2.5-4.1-6.15-4.05-.96.01-1.85.49-2,1.5-.14.99.11,2.05,4.5,4.04,4.25,1.93,7,4.07,7,8.39,0,5.19-3.55,9.08-10.74,9.08-5.74,0-10.18-4.09-10.18-5.99h0Z"/>
            <path class="cls-2" d="M66.52,28.74c0-7.24,4.94-12.13,12.48-12.13,6.74,0,10.03,3.09,10.03,7.24,0,4.39-3.84,7.19-12.63,7.19-.6,0-.85.25-.85.65,0,2.15,1.85,3.34,4.59,3.34,3.69,0,5.49-2.05,6.94-2.05.8,0,1.3.45,1.3,1.3,0,2.3-3.29,6.39-10.33,6.39s-11.53-4.54-11.53-11.93h0ZM80.35,25.25c1.28-1.82,1.42-3.74.06-4.35-1.59-.71-4.37.56-5.35,4.33-.35,1.35-.1,1.77.57,1.96,1.8.48,3.73-.53,4.71-1.94h0Z"/>
            <g class="cls-1">
              <g class="cls-1">
                <path class="cls-2" d="M.58,22.69c.02-.14.07-.24.14-.31.08-.07.18-.09.31-.07.13.02.22.07.28.16.06.09.07.2.05.34l-.23,1.67,5.26.71c.16.02.28.07.35.16.07.08.1.2.08.34-.02.15-.08.25-.17.31-.09.06-.22.08-.38.06l-5.26-.71-.23,1.66c-.02.14-.07.25-.14.32s-.18.1-.31.08c-.13-.02-.22-.07-.28-.16-.05-.09-.07-.2-.05-.34l.57-4.19Z"/>
              </g>
            </g>
            <g class="cls-1">
              <g class="cls-1">
                <path class="cls-2" d="M7.55,22.02c-.06.14-.14.22-.24.25-.1.03-.23.02-.38-.05l-5.23-2.22c-.15-.06-.25-.14-.3-.24-.05-.1-.04-.22.01-.35.06-.14.14-.22.24-.25.1-.03.23-.02.38.04l5.23,2.22c.15.06.25.14.3.24.05.1.04.22-.01.35ZM9.23,18.05c-.06.14-.14.22-.24.25-.1.03-.23.02-.38-.05l-5.23-2.22c-.15-.06-.25-.14-.3-.24-.05-.1-.04-.22.01-.35.06-.14.14-.22.24-.25s.23-.02.38.05l5.23,2.22c.15.06.25.14.3.24.05.1.04.22-.01.35ZM4.85,20.86l-.73-.31,1.67-3.94.73.31-1.67,3.94Z"/>
              </g>
            </g>
            <g class="cls-1">
              <g class="cls-1">
                <path class="cls-2" d="M11.83,13.03c.09-.11.18-.18.28-.2.1-.02.2.01.31.09.1.08.16.17.16.28,0,.1-.04.21-.13.32l-2.07,2.63c-.09.12-.19.18-.3.18-.11,0-.23-.04-.35-.14l-4.36-3.43c-.12-.1-.2-.2-.22-.31-.02-.11.01-.22.1-.34l2.07-2.63c.09-.11.18-.18.28-.2.1-.02.2.01.31.09.1.08.16.17.16.28s-.04.21-.13.32l-1.8,2.28,1.58,1.24,1.57-1.99c.09-.11.18-.17.28-.19.1-.02.2,0,.31.09.1.08.16.17.16.28,0,.1-.04.21-.13.32l-1.57,1.99,1.68,1.32,1.8-2.28Z"/>
              </g>
            </g>
            <g class="cls-1">
              <g class="cls-1">
                <path class="cls-2" d="M12.87,8.17c-.34-.55-.55-1.05-.63-1.53-.08-.47-.02-.9.17-1.29.19-.39.52-.73,1-1.02.47-.29.92-.44,1.36-.45.43,0,.85.13,1.23.41.39.28.75.69,1.1,1.24l1.71,2.74c.08.13.12.26.1.36s-.08.2-.21.28c-.13.08-.24.1-.35.07-.1-.03-.2-.12-.28-.25l-.95-1.52-2.76,1.73.95,1.52c.09.14.12.26.1.37-.02.11-.09.2-.21.28-.12.08-.24.1-.34.06-.1-.04-.2-.12-.28-.25l-1.71-2.74ZM13.96,8.28l2.76-1.73-.33-.52c-.26-.41-.52-.73-.78-.95-.26-.22-.54-.34-.83-.35-.29-.01-.6.08-.94.29-.33.21-.55.44-.67.71-.12.27-.14.57-.06.9.08.33.25.71.51,1.13l.33.52Z"/>
              </g>
            </g>
            <g class="cls-1">
              <g class="cls-1">
                <path class="cls-2" d="M20.71,8.07c-.15.04-.26.03-.35-.03-.09-.06-.16-.17-.2-.32l-1.6-5.38c-.09-.31,0-.51.28-.6.27-.08.46.04.55.35l1.6,5.38c.09.31,0,.51-.27.59ZM20.05,5.87l-.23-.76,1.58-.47c.52-.15.88-.38,1.1-.68.22-.3.26-.67.13-1.1-.13-.43-.36-.72-.71-.85-.34-.13-.77-.12-1.29.03l-1.58.47-.23-.76,1.55-.46c.79-.23,1.45-.24,1.99-.03.54.21.92.68,1.13,1.39.21.71.15,1.28-.19,1.73-.34.45-.91.79-1.71,1.03l-1.55.46ZM24.33,7c-.08.02-.15.03-.22.01-.06-.02-.14-.05-.23-.12l-2.36-1.71.73-.49,2.09,1.48c.09.05.15.11.19.15.04.05.07.11.09.17.02.06.02.12,0,.19-.01.07-.05.13-.1.18-.05.06-.12.1-.2.12Z"/>
              </g>
            </g>
            <g class="cls-1">
              <g class="cls-1">
                <path class="cls-2" d="M29.39,0c.14,0,.25.02.33.08.08.06.12.16.13.29,0,.13-.03.23-.1.3-.07.07-.18.11-.32.12l-1.68.08.25,5.31c0,.16-.02.28-.09.37-.07.09-.17.13-.32.14-.15,0-.26-.03-.33-.11-.07-.08-.12-.2-.12-.36l-.25-5.31-1.67.08c-.14,0-.25-.02-.34-.08-.08-.06-.13-.16-.13-.29,0-.13.03-.23.11-.3.08-.07.19-.11.33-.12L29.39,0Z"/>
              </g>
            </g>
            <g class="cls-1">
              <g class="cls-1">
                <path class="cls-2" d="M34.99,7.65c-.6-.18-1.07-.47-1.42-.87-.35-.4-.57-.88-.66-1.43-.08-.55-.03-1.15.16-1.79.19-.64.48-1.17.86-1.59.38-.41.82-.69,1.34-.82.52-.13,1.07-.11,1.67.07.6.18,1.08.47,1.43.87.36.4.58.88.66,1.43.09.56.03,1.15-.16,1.8-.19.64-.48,1.17-.86,1.58-.38.41-.83.69-1.35.82-.52.13-1.08.11-1.68-.07ZM35.22,6.87c.43.13.83.14,1.2.03.37-.11.69-.32.95-.64.27-.32.48-.72.62-1.21.15-.49.2-.95.15-1.36-.05-.41-.19-.77-.44-1.06-.24-.29-.58-.51-1.02-.64-.43-.13-.83-.14-1.19-.03-.36.11-.68.32-.95.64-.27.32-.48.72-.63,1.21-.15.49-.2.94-.15,1.35.05.41.19.77.44,1.06.24.29.58.51,1.01.64Z"/>
              </g>
            </g>
            <g class="cls-1">
              <g class="cls-1">
                <path class="cls-2" d="M44.92,6.09l-2.4-1.5-1.27,2.03,2.16,1.35c.12.08.2.16.23.26.03.1,0,.21-.06.32-.07.11-.15.17-.25.19-.1.01-.21-.02-.33-.09l-2.16-1.35-1.12,1.8c-.09.14-.18.22-.28.26-.1.03-.22.01-.35-.07-.13-.08-.2-.17-.21-.28-.02-.11.02-.23.1-.37l2.97-4.77c.08-.13.18-.22.28-.25s.22-.01.35.07l2.77,1.73c.12.08.2.16.23.26.03.1.01.2-.06.31-.07.11-.16.18-.26.19-.1.02-.21-.01-.33-.09Z"/>
              </g>
            </g>
          </g>
          <path class="cls-2" d="M92.27,34.4c0-4.34.35-19.16.35-22.8,0-4.34-2.3-3.59-2.3-5.39,0-2,3.99-2.99,6.69-2.99,2.94,0,4.29,1.45,4.29,4.74,0,3.29-.45,21.61-.45,23.7,0,4.69,2.79,3.54,2.79,5.49,0,1.95-3.19,3.39-6.09,3.39-3.34,0-5.29-1.8-5.29-6.14h0Z"/>
          <path class="cls-2" d="M106.44,34.33c0-2.1.4-5.29.4-7.84,0-5.44-2.2-4.59-2.2-6.34,0-2.1,3.84-3.19,6.64-3.19,3.19,0,4.34,1.7,4.34,4.99,0,2.45-.5,8.03-.5,10.13,0,4.14,2.74,3.14,2.74,4.99,0,2-3.14,3.39-6.19,3.39-3.29,0-5.24-1.8-5.24-6.14Z"/>
          <path class="cls-2" d="M160.02,33.62c-.03-1.47-.41-2.74-1-3.81h0s-.03-.05-.04-.07c-1.03-1.82-2.7-3.05-4.45-3.72-2.05-.8-4.35-.83-6.5-.09-4.38,1.49-5.89,6.54-3.51,10.2,1.93,2.97,6.31,2.85,7.93.86,1.22-1.49.86-3.79-.19-4.75-1.23-1.12-2.19-.92-2.52-.52-.26.32-.17.58-.12.84.03.33.34.92-.19,1.38s-1.4.34-1.92-.56c-.27-.48-.31-1.04-.2-1.58.2-.97,1.24-2.26,3.43-2,.65.08,1.22.34,1.72.69,1.12.68,2.47,2.17,2.36,4.4-.16,3.22-2.84,4.92-6.36,4.61-3.98-.35-6.09-3.24-6.09-8.58,0-3.59.6-9.28.6-11.18s-1.58-2.95-2.83-2.98c-3.19-.07-3.01,2.13-4,2.13s-2.5-2.2-6.69-2.2c-5.39,0-11.26,3.75-11.49,11.36-.25,8.25,4.85,12.31,10.09,12.4,5.99.1,7.27-3.53,7.94-4.09.76-.65,2.44,7.94,12.48,7.94,6.54,0,11.72-4.04,11.56-10.67h0ZM133.65,28.93c-.95,4.13-2.99,5.07-5.18,4.57-2.07-.47-3.59-2.36-2.79-5.83.73-3.19,2.99-5.13,5.48-4.56,2.43.56,3.12,3.09,2.5,5.83h0Z"/>
        </g>
        <path class="cls-2" d="M111.26,13.63l-2.05,1.14c-1.06.59-2.32-.33-2.09-1.52l.45-2.31-1.72-1.6c-.88-.82-.4-2.31.8-2.45l2.33-.29.99-2.13c.51-1.1,2.07-1.1,2.58,0l.99,2.13,2.33.29c1.2.15,1.68,1.63.8,2.45l-1.72,1.6.45,2.31c.23,1.19-1.03,2.1-2.09,1.52l-2.05-1.14h0Z"/>
      </g>
    </g>
  </g>
</svg>