<?xml version="1.0" encoding="UTF-8"?>
<svg id="Layer_2" xmlns="http://www.w3.org/2000/svg" xmlns:xlink="http://www.w3.org/1999/xlink" viewBox="0 0 239.74 104.1">
  <defs>
    <style>
      .cls-1 {
        fill: none;
      }

      .cls-2 {
        fill: #fcb200;
      }

      .cls-3 {
        clip-path: url(#clippath-1);
      }

      .cls-4 {
        isolation: isolate;
      }

      .cls-5 {
        fill: #343f16;
      }

      .cls-6 {
        fill: #422a1f;
      }

      .cls-7 {
        clip-path: url(#clippath);
      }
    </style>
    <clipPath id="clippath">
      <rect class="cls-1" width="239.74" height="104.1"/>
    </clipPath>
    <clipPath id="clippath-1">
      <rect class="cls-1" width="239.74" height="104.1"/>
    </clipPath>
  </defs>
  <g id="Layer_1-2" data-name="Layer_1">
    <g>
      <g class="cls-7">
        <path class="cls-5" d="M217.86-70.91c.9.02,1.8.04,2.7.06v-1.13c-.98.06-1.95-.09-2.92-.15-.53-.03-.68-.24-.7-.76-.05-2.25-.18-4.5-.2-6.75-.02-2.33-.2-4.65-.28-6.98-.28-.23-.56-.24-.85,0-.06,4.36-.08,8.71,0,13.07,0,.26,0,.53,0,.79.02.4-.19.52-.56.5-.82-.06-1.65-.1-2.47-.15-3.75-.24-7.51-.22-11.27-.2-.92,0-.93-.01-.94-.92-.03-4.13-.02-8.26.21-12.39.01-.25.09-.51-.17-.81-.33.39-.33.83-.39,1.25-.5,3.84-.63,7.71-.71,11.57,0,.3,0,.6-.01.9-.02.48-.35.38-.64.34-1.39.1-2.78.01-4.17-.05-3.49-.16-6.99-.2-10.48-.02-.54.03-.75-.08-.73-.65.06-1.43.08-2.85.12-4.28.08-2.82.16-5.63.23-8.45.02-.81-.04-.84-.76-.47-.19,2.96-.4,5.93-.58,8.89-.09,1.43-.14,2.86-.21,4.28-.02.43-.08.77-.67.81-3.98.27-7.93.86-11.91,1.08-1.62.09-1.38.19-1.37-1.32.01-4.36.04-8.73.05-13.09,0-.3-.04-.6-.06-.9-.28,0-.56,0-.84-.01-.17.54-.19,1.11-.21,1.67-.14,3.79-.31,7.58-.3,11.38,0,.49-.01.98-.03,1.47-.04.97-.04.97-1.04.99-3.68.06-7.36-.15-11.04-.31-1.43-.06-2.85-.09-4.28-.13-.33-.16-.33-.47-.33-.77,0-4.15,0-8.3,0-12.44,0-.11.04-.22.06-.33l.03-.1-.03-.1c-.27-.07-.42.02-.45.3-.02.22-.08.43-.22.61-.45,3.7-.44,7.43-.46,11.15,0,1.65,0,1.64-1.69,1.63-4.06-.04-8.12-.07-12.19-.11-.3,0-.6-.01-.9-.01-.28,0-.4-.15-.4-.42,0-.3,0-.6,0-.9.05-4.51.08-9.02-.25-13.53l-1.04-.02c-.14,2.59.02,5.19-.05,7.78-.05,2.03-.09,4.06-.14,6.09-.02.98-.03.98-1,.96-3.87-.09-7.75-.22-11.62-.16-.56,0-1.13.02-1.69.03-1,.02-1.01.02-.97-.95.12-3.12.11-6.24,0-9.36-.05-1.24-.12-2.48-.18-3.72-.08-.17-.12-.37-.24-.49-.26-.26-.59-.15-.65.2-.04.25,0,.52,0,.78.03,1.19.12,2.37,0,3.56.06,3.05.1,6.09-.1,9.14-.06.91-.09.92-1,.91-3.84-.03-7.68-.06-11.52-.09-.64,0-1.28,0-1.92,0-1.11.01-1-.03-1.04-.95-.12-2.78-.27-5.56-.4-8.34,0-.15-.03-.3-.05-.45h0c-.3-.44-.19-.94-.2-1.42-.02-.7,0-1.4,0-2.3-.5.4-.39.76-.43,1.06-.07.59.11,1.2-.23,1.76-.12,2.78-.06,5.56-.06,8.34,0,.49.02.98.01,1.47,0,.81-.01.83-.78.85-4.85.16-9.7-.02-14.54-.08-.69,0-.68-.38-.69-.87-.1-3.38-.2-6.76-.31-10.14-.04-1.13-.11-2.25-.17-3.38-.28-.23-.56-.24-.85,0-.06,4.33-.08,8.65,0,12.98,0,.3,0,.6,0,.9,0,.34-.17.47-.49.47-.04,0-.08,0-.11,0-4.56-.04-9.09.48-13.63.73-.97.05-.98.04-.99-.95-.04-4.51-.05-9.03.2-13.54.01-.21.07-.45-.18-.7-.34.37-.33.81-.38,1.22-.54,4.26-.67,8.54-.73,12.83,0,.38.21.83-.19,1.15-.38.23-.8.16-1.21.18-4.6.22-9.18-.04-13.75-.44-.82-.07-.86-.08-.84-.84.1-4.51.23-9.03.35-13.54,0-.15.05-.29.08-.44-.64-.3-.75-.29-.81.27-.13,1.19-.23,2.39-.31,3.59-.2,3.3-.38,6.6-.58,9.9-.05.88-.09.87-.92.8-4-.36-8-.73-12.01-1.09-.94-.08-.95-.08-.95-1.08,0-3.76.02-7.51.03-11.27,0-.45-.04-.9-.06-1.35-.28,0-.56,0-.84-.01-.14.47-.19.95-.2,1.44-.13,3.63-.31,7.27-.3,10.91,0,.19-.02.38,0,.56.03.44-.17.62-.6.57-.3-.03-.6-.05-.9-.07-4.23-.24-8.46-.43-12.7-.11-.1.05-.2.12-.3.14-2,.37-2.22.2-2.22-1.8,0-2.97-.01-5.93-.01-8.9,0-.41.05-.82.07-1.23l.03-.1-.03-.1c-.27-.07-.42.02-.45.3-.02.22-.08.43-.22.61-.38,3.17-.44,6.36-.45,9.55,0,.3,0,.6,0,.9-.03.77-.03.78-.84.83-2.32.14-4.65.29-6.97.42-2.21.12-4.42.23-6.64.34-.72.03-.73.02-.73-.72-.01-2.97,0-5.93-.04-8.9-.02-1.54-.14-3.07-.21-4.61-.35,0-.69-.01-1.04-.02-.02,2.71-.02,5.41-.05,8.12-.02,1.8-.07,3.61-.13,5.41-.03.82-.05.83-.8.87-4.59.2-9.18.22-13.76.23-.74,0-.76-.02-.73-.88.12-3.12.11-6.24,0-9.36-.05-1.24-.12-2.48-.18-3.72-.08-.17-.12-.37-.24-.49-.26-.26-.59-.15-.65.2-.04.25,0,.52,0,.78.03,1.19.12,2.37,0,3.56.06,3,.11,6-.09,9-.07.95-.1.96-1.04.96-3.64,0-7.27.41-10.92.17-.97-.06-1.95-.13-2.92-.18-.34-.02-.57-.1-.58-.51-.07-2.51-.37-5.01-.24-7.52,0,0,0,0,0,0h0c-.24-.55-.11-1.15-.24-1.71h0c-.3-.44-.19-.94-.2-1.42-.02-.7,0-1.4,0-2.3-.49.41-.39.76-.43,1.07-.07.59.11,1.2-.23,1.76-.13,3.01-.06,6.01-.05,9.02,0,.23,0,.45,0,.68-.01.87-.01.87-.87.82-3.27-.21-6.54-.06-9.81-.16-1.35-.04-2.71-.1-4.06-.15-.79-.03-.79-.03-.82-.82-.1-3.27-.2-6.54-.31-9.81-.04-1.13-.11-2.25-.17-3.38-.28-.23-.56-.24-.85,0-.06,4.28-.08,8.56-.01,12.84,0,.23,0,.45,0,.68.01.32-.13.49-.46.47-.11,0-.23,0-.34,0-4.29-.1-8.56.2-12.84.41-1.59.08-1.6.07-1.59-1.57,0-2.1-.1-4.2.08-6.3-.08-2.18.02-4.37.03-6.57-.41.29-.4.7-.45,1.09-.51,3.99-.66,8.01-.72,12.03,0,.3-.02.6,0,.9.02.39-.18.53-.53.55-.6.02-1.2.07-1.8.07-3.53-.04-7.07-.1-10.6-.15-.6,0-1.2.06-1.8.03-1.35-.08-1.3.24-1.27-1.28.03-1.8.09-3.61.13-5.41.06-2.18.11-4.36.17-6.54.01-.41.08-.82.12-1.23-.64-.3-.75-.29-.81.27-.13,1.16-.23,2.32-.3,3.48-.2,3.11-.43,6.22-.52,9.34,0,.22-.06.45-.06.67,0,.44-.21.58-.64.55-4.16-.31-8.33-.43-12.51-.47-.73,0-.74-.04-.73-.89,0-3.95.03-7.89.04-11.84,0-.45-.04-.9-.06-1.35-.28,0-.56,0-.84-.01h0c-.17.55-.19,1.11-.21,1.67-.14,3.72-.31,7.44-.3,11.16,0,.11,0,.23,0,.34-.04.87-.04.88-.89.89-1.81.03-3.61.03-5.42.07-2.41.05-4.81.07-7.21.3-.82.38-1.7.18-2.55.22-.41.02-.61-.24-.63-.64,0-.15-.01-.3-.01-.45,0-3.8-.01-7.59-.01-11.39,0-.22.05-.45.08-.67l.03-.1-.03-.1c-.27-.07-.42.02-.45.3-.02.22-.08.43-.22.61-.43,3.63-.43,7.27-.46,10.92-.01,1.7.24,1.43-1.49,1.53-4.21.25-8.42.2-12.63.21-1.14,0-1.08.11-1.06-1.11.05-4.32.07-8.64-.18-12.96-.02-.26-.04-.52-.06-.79-.35,0-.69-.01-1.04-.02-.02,2.7-.02,5.4-.05,8.11-.02,2.03-.1,4.05-.12,6.08,0,.54-.19.71-.72.7-4.62-.06-9.24-.11-13.86-.14-.6,0-.77-.21-.74-.8.16-3.19.14-6.38.02-9.57-.05-1.24-.12-2.47-.18-3.71,0,0,0,0,0,0-.08-.17-.12-.37-.24-.49-.26-.26-.59-.15-.65.2-.04.25,0,.52,0,.78.03,1.19.12,2.37,0,3.56.05,3.08.13,6.15-.12,9.22-.06.76-.09.77-.87.76-4.47-.02-8.93-.04-13.4-.06-.23,0-.45-.01-.68-.01-.32,0-.47-.15-.48-.47-.08-2.51-.37-5.01-.24-7.52,0,0,0,0,0,0h0c-.24-.55-.11-1.15-.24-1.71h0c-.3-.44-.19-.94-.2-1.42-.02-.7,0-1.4,0-2.3-.49.41-.39.76-.43,1.07-.07.59.11,1.2-.23,1.76-.13,3.1-.06,6.2-.05,9.31,0,1.33.16,1.24-1.27,1.25-1.98.02-3.96-.1-5.94.05,0,.38,0,.76,0,1.13,1.91.14,3.82.03,5.74.06.26,0,.53.02.79,0,.51-.04.74.13.76.68.19,4.31.41,8.62.62,12.93.01.29.09.6-.14.92-2.55-.19-5.12-.38-7.69-.57-.04.11-.09.21-.1.32-.03.24-.04.43-.05.59,0,.15.02.28.04.4.1.25.39.29,1.11.34,1.95.14,3.9.24,5.85.36,1.05.07,1.08.07,1.07,1.08-.02,2.37,0,4.74-.13,7.1-.14,2.48-.21,4.95-.25,7.43-.02.91-.03.94-.96.88-1.54-.1-3.07-.24-4.61-.35-.67-.05-1.35-.07-2.02-.1,0,.45-.01.9-.02,1.34,1.97.3,3.96.32,5.94.47.26.02.53.02.79.04.79.06.81.06.81.86,0,1.76-.02,3.53-.02,5.29-.01,3-.02,6-.03,9,0,.98-.02,1.01-.99.95-2.13-.14-4.28-.02-6.4-.33-.11.2-.15.42-.15.65-.01.83,0,.86.87.89,1.95.07,3.9.13,5.85.2.79.03.81.03.82.81.02,4.65.02,9.31-.21,13.96-.04.77-.04.79-.85.79-1.73,0-3.45-.01-5.18-.01-.41,0-.83-.06-1.23.06,0,.38,0,.76,0,1.13,2.06.14,4.13.03,6.19.07,1.04.02,1.04.02.98,1.09-.23,4.05-.39,8.1-.36,12.16,0,.19-.01.38,0,.56.06.52-.2.63-.67.6-1.84-.13-3.67-.23-5.51-.35-.35-.02-.66-.08-.7.44-.06.77.01.97.57,1.06.26.04.53.01.76.17,1.69-.11,3.37.08,5.05.2.36.02.55.15.57.53.02.45.07.9.08,1.35.08,4.25.53,8.46.88,12.69.17,2.07.2,2.07-1.87,1.94-1.98-.13-3.96-.41-5.95-.42,0,.45-.01.9-.02,1.34,2.12.31,4.26.35,6.39.5,1.88.13,1.67-.13,1.71,1.77.1,4.43.1,8.86-.02,13.29,0,.15-.02.3-.01.45.03.49-.21.66-.68.64-1.35-.06-2.7-.08-4.05-.15-1.08-.05-2.18.02-3.25-.21-.11.2-.15.42-.15.65-.01.83,0,.86.88.89,2.07.07,4.14.14,6.21.2.95.03.97.02.96.9-.02,2.63-.02,5.27-.08,7.9-.03,1.13-.16,2.25-.27,3.37-.09.83-.13.86-.97.86-2.07.02-4.14.02-6.21.04-.15,0-.3.04-.45.06.02.29.04.57.05.86,2.4.1,4.8.2,7.3.31-.03.49-.06.92-.09,1.35-.41,4.73-.56,9.46-.51,14.2.01,1.22.3,1.35-1.26,1.22-1.61-.13-3.24-.07-4.84-.28-.27-.03-.65-.15-.68.33-.03.42.3.45.6.5.29.05.61.02.87.2,1.57.13,3.14.27,4.72.39.45.03.63.21.65.69.11,2.55.26,5.1.41,7.65.11,1.87.26,3.75.4,5.62.06.8.06.83-.75.83-2.03,0-4.06-.01-6.09,0-.26,0-.7-.18-.74.24-.04.44.41.33.68.38,1.44.24,2.92.17,4.36.46h0s0,0,0,0c.64,0,1.28.04,1.91,0,.61-.03.74.24.78.8.21,2.55.2,5.1.15,7.66-.05,2.37-.29,4.72-.45,7.08-.04.57-.21.79-.8.76-1.84-.1-3.68-.16-5.52-.23-.37-.01-.75,0-1.13,0h0c0,.35.02.71.03,1.06,2.14.14,4.28.28,6.42.43.77.06.81.09.74.86-.39,4.61-.47,9.24-.42,13.86,0,.8-.02.8-.81.82-1.99.04-3.99-.05-5.98.1.02.29.04.57.05.86,1.99.08,3.98.19,5.97.24.56.02.82.15.79.76-.04.98.02,1.96-.02,2.93-.14,4.1-.3,8.19-.45,12.28-.03.92-.05.96-.96.86-1.42-.15-2.86.04-4.26-.3-.26,0-.52.01-.79.01-.21,0-.36.09-.39.31-.03.25.08.44.34.5.18.04.37.06.56.09,1.52.25,3.05.38,4.59.5.87.06.88.08.86.92-.13,4.43-.28,8.86-.39,13.29-.01.58-.25.68-.75.67-1.54-.03-3.08-.03-4.62-.03-.21,0-.5-.07-.52.25-.02.3.25.33.47.35,1.16.11,2.32.21,3.48.32.37.03.76-.02,1.1.17.53-.11.82-.01.85.65.13,3.23.29,6.46.44,9.69.48-.12.96-.24,1.44-.34-.03-.53-.06-1.05-.1-1.55-.09-2.71-.18-5.11-.25-7.52-.02-.87,0-.88.84-.86,4.59.09,9.17.18,13.76.28.95.02.96.04.98,1.01.08,2.87.14,5.74.19,8.61.49.1.96.22,1.44.34-.05-3.02-.09-6.04-.23-9.05-.04-.85-.01-.86.87-.86,2.41,0,4.82,0,7.22,0v.07c2.37,0,4.74,0,7.11,0,.95,0,.97.02.96.9-.01,2.76.01,5.51.05,8.27.47-.4.94-.79,1.41-1.19-.04-2.26-.07-4.51-.03-6.77,0-.23.01-.45,0-.68-.01-.4.2-.52.56-.51.71.01,1.43,0,2.14.02,2.78.11,5.57.16,8.35.19.91-.53,1.83-1.03,2.76-1.52-4.35-.1-8.69-.21-13.04-.3-.59-.01-.76-.21-.76-.79.03-4.32.05-8.64.04-12.96,0-.59.17-.8.76-.79,1.09.02,2.18-.03,3.27-.04,3.57-.04,7.13-.35,10.69-.58.86-.05.87-.05.87.8,0,2.29,0,4.58,0,6.87h-.16c0,2.29,0,4.58,0,6.87,0,.04,0,.05,0,.08.48-.23.95-.47,1.43-.69,0-2.1,0-4.2,0-6.29.02,0,.05,0,.07,0,.05-2.33.1-4.66.15-6.99.02-.82.02-.85.86-.92,1.39-.12,2.78-.23,4.17-.28,2.97-.1,5.94-.18,8.91-.24.99-.02,1.01.01.92,1.02-.26,2.98-.24,5.95.01,8.91.07-.01.14-.03.22-.04.35-.4.7-.79,1.06-1.18-.18-2.3-.29-4.6-.1-6.91.02-.19,0-.38.02-.56.06-1.24.06-1.23,1.29-1.19,2.22.08,4.43.15,6.65.22,0,.01,0,.02,0,.03.97.03,1.95.06,2.92.08.85-.46,1.71-.89,2.59-1.29-1.79,0-3.58,0-5.37,0,0-.06,0-.11,0-.17-2.37-.07-4.74-.14-7.11-.21-.76-.02-.79-.03-.76-.86.08-2.18.24-4.36.23-6.54-.01-2.18,0-4.36-.01-6.54,0-1.22-.11-1.14,1.18-1.11,3.2.09,6.39.21,9.59.31,1.28.04,2.56.08,3.84.12.94.03.96.03.97.91.02,4.33.04,8.66.04,12.98.46-.17.92-.34,1.38-.49,0-1.99,0-3.98,0-5.97h-.03c0-2.14,0-4.28,0-6.43,0-.94,0-.95.91-.91,2.97.15,5.93.31,8.9.46,1.13.05,2.25.1,3.38.1.55,0,.78.14.83.74.22,2.78.3,5.56.33,8.34.43-.17.86-.34,1.3-.5,0-.83-.02-1.67-.07-2.5-.09-1.73-.18-3.45-.27-5.18-.05-.95-.05-.97.95-1.04,2.21-.17,4.43-.33,6.64-.5,2.4-.18,4.8-.35,7.2-.57.55-.05.79.04.9.64.26,1.56.45,3.13.45,4.71,0,.7-.02,1.39-.03,2.09.52.02,1.03.05,1.54.09.03-2.32,0-4.63-.43-6.93-.13-.69-.08-.72.69-.78,2.29-.17,4.58-.16,6.88-.06,2.25.1,4.51.23,6.76.34.78.04.8.03.82.82.06,2.3-.08,4.59-.19,6.26-.02.72-.04,1.37-.06,2.02.49.12.99.25,1.47.39.02-.85.04-1.77.07-2.79,0-1.31.25-3.64.11-5.97-.03-.55.14-.72.69-.72,4.33,0,8.65,0,12.98,0,.82,0,.85.03.87.91.08,2.67.16,5.35.23,8.02.47-.12.94-.23,1.42-.32-.04-2.26-.1-4.53-.19-6.79-.01-.34-.03-.68-.02-1.01,0-.72.01-.74.77-.73,1.5.03,3.01.09,4.51.12,2.93.06,5.86-.04,8.79-.16.38-.02.75-.03,1.13-.04,1-.01,1-.01.96.95-.04,1.16-.08,2.33-.1,3.49-.02,1.2,0,2.4,0,3.61.02,0,.05,0,.07,0,0,.23.01.46.02.69.24.05.47.13.71.19.28-.01.56-.02.83-.03-.09-2.72-.14-5.45,0-8.18.04-.86.05-.88.9-.92,4.62-.27,9.24-.5,13.87-.48,1.13,0,1-.04,1.03,1.07.08,2.51.13,5.01.2,7.52.44-.21.88-.4,1.32-.6,0-2.39,0-4.78,0-7.18,0-.8.01-.82.8-.82,4.47,0,8.94-.04,13.41.17.94.04.98-.1,1.02.99.03.62.03,1.24.04,1.86.32-.06.65-.11.97-.16.08-.07.16-.14.24-.21,0-.5,0-1,0-1.5,0-.91,0-.93.93-.9.7.03,1.41.05,2.11.07.53-.37,1.07-.73,1.62-1.08-1.34-.05-2.65-.09-3.96-.12-.62-.01-.75-.26-.75-.81.03-2.22.05-4.43.04-6.65-.01-2.18-.07-4.36-.11-6.54-.02-.83-.03-.85.73-.89,4.17-.23,8.33-.45,12.5-.67.84-.04.87-.01.87.74,0,3.17.57,6.28,1.01,9.4.04.26.06.51.09.77.45-.13.89-.27,1.34-.38-.23-1.87-.51-3.73-.75-5.6-.18-1.38-.21-2.77-.28-4.16-.04-.79,0-.8.77-.85,2.18-.12,4.36-.15,6.54-.18,2.11,0,4.21,0,6.32,0,.87,0,.89-.05.88.82-.02,2.71.08,5.42.23,8.13.43-.1.86-.19,1.3-.27-.11-2.57-.16-5.14-.11-7.72.02-1.05-.04-.98.98-1.01,3.04-.1,6.09-.32,9.14-.14,1.46.09,2.93.15,4.39.23.77.04.77.04.8.86.06,1.85.12,3.7.18,5.55.49-.21.99-.41,1.49-.6-.05-1.58-.1-3.15-.12-4.73-.02-.94,0-.94.92-.94,2.59,0,5.19,0,7.09,0,.35.03.67.04,1.01.06.69-.44,1.4-.86,2.11-1.26h-2.43c-2.59-.37-5.19-.27-7.78-.37-.93-.04-.92-.03-.89-.97.14-4.43.24-8.87.53-13.3.06-.95.05-.98.93-.94,5.19.22,10.38.33,15.57.33.84,0,.86.02.89.9.16,3.81.08,7.61-.25,11.41.44-.15.89-.3,1.33-.44.28-3.69.43-7.38.28-11.08-.03-.78,0-.8.8-.81,3.95-.06,7.89-.31,11.83-.58.08,0,.15,0,.23,0,.88-.01.96-.24.98.97.03,1.54.09,3.08.12,4.62.01.68,0,1.35,0,2.03h.03c0,1.09,0,2.18,0,3.27.46.03.93.05,1.38.1-.01-3.37-.06-6.75-.17-10.12-.03-.91,0-.92.88-.97,1.07-.06,2.14-.13,3.21-.19.17-.44.36-.87.58-1.28-1.02.05-2.04.09-3.06.14-.23.01-.45.01-.68.01-.97,0-.99,0-.97-.98.04-2.22.1-4.44.15-6.9.08-2.09.17-4.42.24-6.75.01-.47.15-.66.66-.62,4.62.32,9.25.12,13.88.12,1.27,0,1.26-.21,1.21,1.29-.07,2.08-.12,4.16-.18,6.24.48-.06.97-.08,1.47-.08.03-.78.05-1.56.08-2.34.05-1.43.07-2.86.11-4.28.02-.82.03-.84.79-.85,4.55-.08,9.1-.16,13.64-.24.88-.01.89,0,.93.82.08,1.95.19,3.9.28,5.85.43-.45.87-.89,1.33-1.32-.05-1.35-.09-2.7-.14-4.05-.01-.3-.02-.6-.04-.9-.01-.28.15-.41.41-.43.26-.02.53-.02.79-.02,2.07,0,4.14,0,6.21,0,.24-.14.48-.25.72-.38.3-.34.59-.68.9-1-2.77-.06-5.55-.1-8.32-.09-.77,0-.77-.02-.8-.83-.14-4.4-.29-8.8-.25-13.2.01-1.03,0-1.04,1.04-1.1,4.66-.29,9.31-.57,13.97-.85.15,0,.3-.01.45-.01.74,0,.77,0,.73.77-.13,2.44-.03,4.89-.06,7.33.05.76.04,1.51.04,2.26.41-.27.83-.54,1.25-.79,0-2.89.02-5.77.03-8.66,0-.95.03-.95,1.01-1.01,4.35-.26,8.71-.47,13.08-.41.98.01.99.01.99.98,0,1.34,0,2.68,0,4.03.44-.04.89-.08,1.33-.11,0-1.33,0-2.66,0-3.99,0-.89.02-.91.83-.91,1.13,0,2.25.01,3.38.02.1-.44.2-.89.32-1.33-1.22-.01-2.44-.04-3.66-.02-.85.01-.86-.01-.86-.87,0-3.68,0-7.36,0-11.05,0-.73.02-.76.75-.72,2.14.12,4.28.25,6.31.23,1.29.07,2.54.1,3.78.11.42-.53.86-1.04,1.31-1.55-3.71,0-7.41-.13-11.12-.27-1.07-.04-1.08-.08-1.08-1.17-.01-4.81.1-9.62.21-14.42.02-.91.04-.93.95-.95,4.02-.11,8.04-.21,12.06-.32.19,0,.38.01.56,0,.45-.04.58.19.58.6-.02,1.01-.02,2.03-.02,3.04,0,1.65,0,3.31,0,4.96h.02c0,2.1,0,4.21,0,6.31.42-.4.85-.78,1.29-1.16,0-1.71,0-3.43,0-5.14h.01c0-2.59,0-5.19,0-7.78,0-.79.02-.82.81-.8,4.55.09,9.09.19,13.64.3.86.02.87.05.88.9.01,1.5.02,3,.03,4.5.38-.09.75-.19,1.13-.27,0-1.21,0-2.42,0-3.64,0-.26.02-.53,0-.79-.03-.44.16-.61.59-.58,1.23.09,2.47.17,3.7.25v-.9c-1.32,0-2.6-.3-3.9-.42-.28-.02-.39-.17-.39-.44,0-.19,0-.38,0-.56,0-4.32-.04-8.63.18-12.94.05-1.03.04-1.03,1.07-1.03,1.01,0,2.03.02,3.04.04v-.68c-1.21.13-2.38-.24-3.58-.24-.4,0-.49-.26-.47-.6.04-.98.06-1.95.1-2.93.12-3.72.25-7.43.37-11.15.06-1.62.06-1.61,1.67-1.58.64.01,1.28.02,1.92.02v-1.13c-.94.06-1.88-.08-2.81-.14-.49-.03-.62-.25-.59-.72.11-2.33.14-4.66.29-6.99.15-2.4.25-4.81.34-7.21q.03-.87.87-.9c.64-.02,1.28-.05,1.91-.07v-.9c-.71-.02-1.43-.05-2.14-.04-.49,0-.64-.21-.67-.68-.08-1.39-.18-2.77-.31-4.16-.34-3.63-.7-7.25-1.05-10.88-.01-.15-.03-.3-.04-.45-.04-.74-.04-.77.71-.74,1.16.05,2.32.15,3.49.23v-.9c-1.32,0-2.6-.3-3.91-.42-.29-.02-.38-.18-.38-.44,0-.49-.02-.98-.02-1.47-.06-4.06.04-8.12.38-12.18.08-.92.02-.9,1-.89.98,0,1.96.02,2.93.04v-.68c-1.13.14-2.23-.22-3.35-.23-.51,0-.48-.37-.44-.72.17-1.72.13-3.45.23-5.17.18-3.04.11-6.08.01-9.12,0-.15-.01-.3-.01-.45,0-.87,0-.87.86-.84ZM-17.02-69.77c.04-.88.03-.89.97-.9,2.26,0,4.51,0,6.77,0,2.33-.18,4.66-.13,6.99-.35.49-.05.68.11.66.62-.04.94-.02,1.88-.05,2.82-.13,3.49-.17,6.99-.19,10.49,0,.95-.01.98-.88.97-4.44-.05-8.87.04-13.31.17-1.02.03-1,.1-1-.95-.03-4.29-.14-8.57.04-12.86ZM-17.16-46.7s.08,0,.13,0c0-2.29,0-4.58,0-6.87,0-1,0-1.01.96-1.01,4.21,0,8.42.02,12.63.03.26,0,.53,0,.79.03.77.05.79.05.81.85.08,3.45.15,6.91.21,10.36.02,1.13,0,2.25-.01,3.38-.01.91-.03.93-.96.89-3.87-.2-7.74-.14-11.61.05-.86.04-1.73.08-2.59.18-.56.06-.73-.12-.69-.67.13-2.4.23-4.8.35-7.2ZM-17.59-36.5c0-.91.02-.93.9-.99,4.73-.36,9.47-.35,14.21-.13.77.04.8.05.77.87-.09,2.82-.22,5.64-.31,8.46-.07,1.99-.1,3.99-.15,5.98-.02,1.06-.02,1.08-1.03,1.1-3.57.04-7.14.21-10.71.4-.83.04-1.66.02-2.48,0-.97-.02-.99-.02-.99-1.01-.01-2.44,0-4.89,0-7.33-.07,0-.13,0-.2,0,0-2.44,0-4.89,0-7.33ZM-2.8,97.16c.85.02.87.03.86.89-.02,4.55.06,9.1.44,13.63.07.82.04.85-.87.77-3.07-.27-6.14-.57-9.22-.67-1.69-.05-3.38-.14-5.07-.08-.8.03-.81.01-.82-.78-.04-3.61-.08-7.22-.13-10.82,0-.75-.06-1.5-.07-2.25-.01-.94,0-.95.89-.95,2.33,0,4.66,0,6.99,0,0,.03,0,.06,0,.09,2.33.06,4.66.11,6.99.17ZM-17.21,78.15c.29-4.47.11-8.95.32-13.41.01-.23.04-.45.02-.68-.05-.62.26-.75.82-.72,4.47.23,8.95.09,13.42-.09.98-.04.98-.02.98.95,0,2.41,0,4.81,0,7.22h.11c0,2.29,0,4.59,0,6.88,0,1.01.02,1.04-.94,1-4.66-.19-9.32-.24-13.98-.3-.78-.01-.81-.03-.76-.86ZM-17.39-18.93c.01-.53.09-.84.74-.82,4.44.1,8.87-.39,13.31-.33.19,0,.38,0,.56,0,.42-.03.62.15.61.59,0,.71.01,1.43.03,2.14.04,1.73.09,3.46.14,5.19,0,0,.02,0,.03,0,.08,2.33.16,4.66.23,6.99.03.87,0,.88-.85.92-4.59.21-9.18.2-13.77.22-.81,0-.84-.02-.86-.8-.1-4.7-.28-9.4-.17-14.1ZM-16.81,49.94c0-.26.02-.53,0-.79-.06-.55.18-.71.71-.71,1.5,0,3-.06,4.51-.08.75-.01,1.5,0,2.25,0,0-.08,0-.16,0-.25,2.25,0,4.51.02,6.76-.01.58,0,.77.16.8.75.21,4.17.13,8.34.16,12.5,0,.5-.2.66-.66.67-.71.02-1.43.07-2.14.09-3.87.08-7.74.08-11.61-.02-.57-.01-.81-.17-.75-.78.33-3.79.12-7.58-.02-11.37ZM-1.7,37.31c-.22,2.89-.21,5.78-.18,8.68.01.94,0,.96-.89.97-3.72.05-7.44.21-11.16.41-.64.04-1.28.02-1.92,0-.97-.01-.98-.02-.98-1,0-2.44,0-4.89,0-7.33-.01-2.45.13-4.89.19-7.33.03-1.04.03-1.08,1.04-1.11,2.56-.08,5.11-.17,7.67-.19,1.84-.01,3.68.09,5.53.15,1.02.04,1.04.05,1,1.11-.08,1.88-.15,3.76-.29,5.63ZM-16.87,3.07c-.04-1.58-.12-3.15-.18-4.73-.03-.79-.01-.81.77-.82,2.29-.01,4.58,0,6.88,0,2.33-.18,4.66-.12,6.98-.34.58-.05.72.19.7.71-.09,2.03-.12,4.06-.25,6.08-.16,2.44-.29,4.87-.24,7.32.02.75,0,.78-.72.78-4.32-.04-8.64.04-12.96.17-.79.02-.8,0-.82-.81-.06-2.78-.1-5.56-.16-8.34ZM-17.29,81.06c.02-.75.05-.76.89-.75,3.38.04,6.77.09,10.15.15,1.31.02,2.63.1,3.94.17.79.04.81.05.78.85-.09,2.85-.2,5.71-.29,8.56-.05,1.5-.06,3.01-.09,4.51-.02,1.06-.02,1.06-1.04,1.04-2.29-.06-4.58-.12-6.88-.18,0-.02,0-.05,0-.07-2.33,0-4.66,0-6.99,0-.87,0-.9-.02-.87-.85.12-4.47.26-8.94.4-13.41ZM-32.89-70.61c.41.02.83,0,1.24.04,2.74.28,5.48.19,8.23.06,1.46-.07,2.93-.1,4.4-.12.83-.01.88,0,.84.77-.26,4.4-.11,8.8-.1,13.19,0,.6-.22.76-.79.77-2.14.04-4.29.12-7.04.21-1.49,0-3.6,0-5.7,0-.51,0-.81-.04-.83-.7-.09-4.36-.43-8.71-.67-13.06-.01-.23-.02-.45-.03-.68-.02-.33.1-.5.45-.48ZM-18.85-39.51c0,.6-.19.86-.83.91-3.3.23-6.59.57-9.89.73-.9.04-1.8.12-2.7.14-.8.02-.83,0-.82-.78.01-2.14-.03-4.28.17-6.42.04-.41.06-.82.08-1.24.19-2.51.25-5.03.25-7.55,0-.81.02-.83.8-.83,4.25-.02,8.49-.02,12.74-.05.61,0,.76.22.76.79-.01,3.68-.15,7.36-.41,11.03-.08,1.09-.14,2.17-.15,3.26ZM-18.81-29.05c0,2.44,0,4.88,0,7.33,0,.78-.02.81-.82.79-4.24-.1-8.49-.22-12.73-.31-.59-.01-.77-.21-.77-.8.03-4.55.03-9.09.05-13.64,0-.75.02-.77.84-.8,4.17-.15,8.32-.5,12.48-.8.74-.05.77-.05.76.68-.03,2.52.06,5.03.19,7.55ZM-33.58-4.88c.08-2.4.17-4.81.26-7.21.04,0,.09,0,.13,0,0-2.29,0-4.59,0-6.88,0-1.07.02-1.08,1.04-1.06,4.14.08,8.27.17,12.41.26.91.02.93.03.92.94-.02,3.8.14,7.59.24,11.39.02.9.07,1.8.15,2.7.04.5-.06.75-.65.76-4.58.07-9.17.45-13.75-.02-.76-.08-.78-.06-.75-.89ZM-50.52-56.8c.14-3.95.34-7.89.17-11.85-.03-.6-.01-1.21-.07-1.8-.05-.58.21-.71.73-.69,1.32.05,2.64.03,3.95.11,2.89.18,5.79.1,8.69.21.71.03,1.58-.16,2.07.27.47.41.21,1.28.25,1.95.21,4.02.39,8.04.56,12.06.04.87,0,.87-.84.89-2.48.06-4.97-.04-7.45-.28-2.41,0-4.82,0-7.22,0-.86,0-.87-.02-.84-.87ZM-50.72-53.73c.05-.62.29-.74.83-.75,1.47,0,2.93-.07,4.39-.07,3.46,0,6.91,0,10.37.01,1.01,0,1.03.01,1.03.96,0,2.71-.06,5.41-.21,8.11-.12,2.25-.13,4.51-.18,6.76-.03,1.17-.05,1.05-1.06,1.05-2.4,0-4.81,0-7.21,0v-.14c-2.48,0-4.96,0-7.44,0-.88,0-.9-.02-.92-.85-.11-5.04-.02-10.07.4-15.09ZM-50.16,30.4c-.95,0-.96-.01-.97-1-.02-4.92-.05-9.85.21-14.77.05-.85.04-.86.86-.91,1.92-.12,3.83-.09,5.75-.08,2.74,0,5.49,0,8.23.01.85,0,.9.02.91.76.08,5,.72,9.97.99,14.96,0,.11.01.23.01.34.01.8.01.83-.77.82-2.26,0-4.51-.03-6.77-.05-.34,0-.68,0-1.01,0v-.07c-2.48,0-4.96,0-7.44,0ZM-35.32-36.4c.58,0,.78.17.78.76-.04,4.55-.06,9.09-.06,13.64,0,.56-.2.69-.72.69-4.51-.04-9.02-.07-13.53-.08-.56,0-.79-.15-.82-.74-.18-3.56-.65-7.1-1-10.65-.09-.97-.19-1.94-.25-2.92-.05-.73-.02-.76.72-.77,2.48-.01,4.96,0,7.44,0v.09c2.48,0,4.96.02,7.44-.01ZM-35.28,11.24c0,.26,0,.53.01.79.02.39-.17.53-.54.53-.94,0-1.88,0-2.82,0-1.5,0-3.01,0-4.51,0,0-.1,0-.19,0-.29-2.33,0-4.66,0-6.99,0-.74,0-.76-.03-.74-.76.16-4.47.32-8.94.5-13.41.04-1.06-.04-1.05,1.09-1.02,4.32.11,8.64.19,12.96.36,1.48.06,1.41-.22,1.33,1.53-.19,4.09-.38,8.19-.3,12.28ZM-35.7-4.12c-3.34-.22-6.69-.07-10.04-.17-1.28-.04-2.56-.13-3.83-.13-.58,0-.68-.25-.66-.75.1-2.14.14-4.28.27-6.42.16-2.59.29-5.18.35-7.77.02-.79.03-.81.83-.81,4.48.03,8.95.09,13.43.11.62,0,.75.24.74.8-.02,2.41,0,4.81,0,7.22,0,2.37-.12,4.74-.21,7.1-.03.88-.04.89-.87.84ZM-51.23-9.88c-.09,1.54-.21,3.08-.26,4.62-.02.6-.19.85-.84.83-4.29-.13-8.58.16-12.86.38-.19,0-.38,0-.56.03-.53.07-.74-.12-.69-.69.22-2.51.18-5.04.2-7.56,0-2.45,0-4.89,0-7.34,0-.88,0-.89.84-.88,4.59.09,9.18.18,13.77.28.78.02.8.03.81.86.04,3.16-.21,6.31-.4,9.47ZM-50.91-22.45c0,.11,0,.23.02.34.1.56-.17.71-.7.7-1.96-.06-3.91-.09-5.87-.13-.38,0-.75-.03-1.13-.05,0,0,0,.01,0,.02-2.26-.06-4.51-.11-6.77-.18-1-.03-.93.02-.98-.92-.25-4.24-.47-8.49-.59-12.74,0-.3.02-.6-.02-.9-.07-.57.19-.7.72-.66,1.58.12,3.15.2,4.73.3,2.74.18,5.49.2,8.24.19.51,0,.83.06.89.7.38,4.46,1.11,8.88,1.46,13.34ZM-52.52-38.67c.03.87.02.9-.84.89-4.29-.04-8.57-.16-12.85-.51-.59-.05-.75-.24-.75-.81.02-2.41.01-4.81.01-7.22.08,0,.15,0,.23,0,0-2.29,0-4.59,0-6.88,0-.86.02-.87.86-.9,4.28-.15,8.57-.31,12.86-.31.98,0,1.02.01.93.98-.29,3.11-.42,6.22-.52,9.34-.06,1.81,0,3.61.06,5.41ZM-66.26-70.82c4.44-.1,8.87-.47,13.31-.38.11,0,.23,0,.34,0q.81.03.84.8c.19,4.51.1,9.03-.08,13.54-.03.91-.05.92-.98.91-4.22-.04-8.43.09-12.63.39-.23.02-.45,0-.68.04-.46.06-.58-.17-.57-.59.02-1.39.02-2.78.02-4.18,0-.98,0-1.96,0-2.93h-.03c-.08-2.26-.15-4.51-.25-6.77-.02-.53.04-.83.7-.84ZM-67.37,15.07c.02-.91.03-.93.96-.96,4.4-.15,8.8-.33,13.2-.33.94,0,.95,0,.95,1.01,0,2.44,0,4.89,0,7.33,0,0-.01,0-.02,0,0,2.44,0,4.89,0,7.33,0,.93,0,.95-.92.95-4.59-.02-9.17-.21-13.75-.54-.61-.04-.64-.35-.64-.81.05-2.67.08-5.34.12-8.01.03-1.99.06-3.99.11-5.98ZM-68.9,38.67c0,2.25,0,4.51,0,6.76,0,.9-.02.92-.94.91-4.21-.06-8.41-.13-12.62-.21-.78-.01-.81-.03-.8-.83.03-3.49.08-6.99.13-10.48.01-1.09.07-2.18.06-3.27,0-.59.21-.78.79-.79,3.57-.04,7.14-.15,10.7.11.64.05,1.28.11,1.91.1.59,0,.77.25.76.82-.02,2.29,0,4.58,0,6.87h.02ZM-83.25,71.16c0-2.11,0-4.21,0-6.32,0-1.09.01-1.09,1.14-1.03,3.19.17,6.39.34,9.58.5.83.04,1.66.04,2.48.07.81.03.82.03.83.8,0,1.17,0,2.33,0,3.5,0,2.97.03,5.95.04,8.92,0,.78,0,.78-.79.84-4.17.32-8.35.18-12.53.27-.6.01-.77-.21-.76-.78.02-2.26.01-4.52.01-6.77h0ZM-70,63.03c-2.59-.09-5.19-.21-7.78-.32-1.54-.06-3.08-.13-4.62-.2-.8-.04-.82-.04-.83-.83,0-4.48,0-8.96,0-13.43,0-.77.02-.78.85-.76,4.18.06,8.35.12,12.53.18.94.01.94.02.94,1.03,0,2.22,0,4.44,0,5.65-.23,3.3-.23,5.6-.26,7.89-.01.79-.03.83-.83.8ZM-68.12,3.39c-.14,2.78-.28,5.55-.41,8.33-.05,1.11-.03,1.12-1.09,1.17-3.45.17-6.91.33-10.36.5-.86.04-1.73.09-2.58.2-.62.08-.79-.19-.81-.74-.05-1.28-.16-2.55-.22-3.83-.15-3.64-.28-7.28-.41-10.93-.03-1-.01-1.02.97-.98,2.4.1,4.81,0,6.21.14,3.44.22,5.88.38,8.33.25.6-.03.68.22.65.72-.11,1.72-.19,3.45-.27,5.18ZM-67.64,55.23c0-2.18,0-4.36,0-6.54,0-1,.02-1.02.97-1.01,4.48.09,8.95.18,13.43.29.73.02.77.04.71.79-.3,4.13-.47,8.26-.42,12.4,0,.71-.02.7-.88.77-4.43.32-8.85.65-13.28.97-.74.05-.76.06-.76-.67,0-2.33,0-4.66,0-7,.08,0,.16,0,.23,0ZM-68.01,103.74c.12-1.84.26-3.67.38-5.51.06-.83.05-.84.91-.85,2.78-.03,5.56-.05,8.34-.08,1.58-.02,3.15-.21,4.73-.14.91.04.92.03.88.96-.1,2.21-.21,4.43-.32,6.64-.05,0-.11,0-.16,0,0,2.29.01,4.58,0,6.88,0,.96-.04.97-1.02.99-4.51.1-9.02-.13-13.53-.09-.64,0-.75-.26-.72-.8.18-2.66.33-5.32.51-7.99ZM-67.81,77.61c-.04-4.18-.05-8.35-.1-12.53,0-.6.23-.79.77-.82,1.91-.13,3.83-.28,5.74-.43,2.48-.19,4.95-.4,7.43-.57,1.11-.08,1.05-.18,1.1.95.17,3.72.36,7.44.54,11.16.03.64.05,1.28.05,1.92,0,.99,0,.97-.98.97-2.26,0-4.52,0-6.77,0-2.33-.12-4.67-.14-7,.05-.74.06-.79.04-.79-.69ZM-52.42,46.02c-.03.61-.25.74-.81.73-2.25-.03-4.51-.01-6.76-.01,0-.05,0-.1,0-.14-2.29-.07-4.58-.17-6.88-.21-.59-.01-.76-.21-.76-.79.02-4.55.01-9.1.02-13.64,0-.78.03-.81.84-.75,3.3.21,6.6.45,9.91.48,1.24.01,2.48.02,3.72.03.83.01.85.02.86.78.05,4.51.09,9.02-.14,13.53ZM-67.67-5c-.03,1.02-.06,1.03-1.11,1.09-2.18.12-4.36.08-6.54.02-2.4-.07-4.81-.18-7.22-.05-.26.01-.53-.05-.79-.04-.55.04-.72-.21-.7-.74.05-1.39.07-2.78.09-4.17.01-1.17,0-2.33,0-3.5.02,0,.04,0,.06,0,.06-2.48.13-4.96.2-7.44.02-.88.03-.89.86-.88,4.78.06,9.55.13,14.33.19.86.01.87.02.9.86.19,4.89.07,9.77-.08,14.66ZM-68.46-21.84c-2.41,0-4.81,0-7.22,0v-.23c-2.41,0-4.81-.01-7.22.01-.59,0-.76-.19-.77-.77-.04-4.44-.19-8.87-.11-13.31,0-.19.02-.38,0-.56-.03-.54.23-.7.75-.7,3.69-.06,7.37-.16,11.05.06.94.05,1.88.11,2.81.18.77.06.79.07.81.88.06,2.25.09,4.51.25,6.76.16,2.29.26,4.58.4,6.87.05.8.06.82-.76.82ZM-83.77-52.45c-.02-.94-.02-.96.9-1,4.24-.23,8.48-.48,12.73-.48.63,0,1.44-.29,1.85.11.47.45.16,1.28.13,1.94-.16,4.02-.14,8.04-.2,12.06,0,.26-.02.53,0,.79.03.47-.21.57-.63.54-1.2-.09-2.4-.17-3.6-.21-1.16-.03-2.33,0-3.49,0,0-.04,0-.07,0-.11-2.18,0-4.36,0-6.54,0-1.06,0-1.05.01-1.05-1.01,0-3.5,0-6.99-.01-10.49,0-.71-.06-1.43-.08-2.14ZM-84.09-70.29c0-.79.02-.81.81-.8,3.23.06,6.47.11,9.69.33,1.58.11,3.16.13,4.74.07.6-.02.77.18.77.76,0,4.55.15,9.1,0,13.65-.03.89-.03.89-.96.94-3.64.18-7.29.34-10.93.52-.98.05-1.95.15-2.92.21-.91.05-.93.03-.94-.92-.01-2.48,0-4.96,0-7.44-.09,0-.17,0-.26,0,0-2.44,0-4.89,0-7.33ZM-84.56,18.45c.03,3.35.06,6.69.07,10.04,0,.88-.02.89-.85.91-4.44.07-8.87.15-13.31.21-.91.01-.92,0-.94-.81-.1-4.55-.22-9.09-.52-13.63,0-.15.02-.29.05-.55,1.13,0,2.25-.02,3.37,0,3.76.07,7.51.45,11.27.21.57-.04.74.18.75.69.02.98.09,1.95.1,2.93ZM-99.93,87.53c.07-2.33.14-4.66.22-6.99.03-.89.04-.9.86-.88,4.47.14,8.94.29,13.41.44.84.03.85.04.86.78.05,4.55-.15,9.09-.5,13.63-.01.15-.04.3-.06.45-.12.85-.12.87-.92.86-1.73-.02-3.46-.04-5.19-.11-2.67-.1-5.33-.24-8-.36-.9-.04-.92-.04-.9-.95.06-2.29.15-4.58.22-6.87,0,0,0,0-.01,0ZM-85.46,78.7c-4.51-.11-9.02-.25-13.53-.35-.56-.01-.69-.23-.69-.74.02-4.47.01-8.95.03-13.42,0-.91.03-.93.96-.9,2.22.06,4.43.13,6.65.2,0,0,0,.02,0,.02,2.22.07,4.43.13,6.65.21.79.03.81.04.81.83,0,4.44.01,8.87,0,13.31,0,.84-.02.87-.89.85ZM-99.52,48.1c0-.86.01-.86.86-.89,3.53-.12,7.07,0,10.6.13.64.02,1.28.07,1.92.09,1.69.06,1.52-.27,1.54,1.61.03,4.13.03,8.27.04,12.4,0,.96-.01.96-1,.95-2.18-.03-4.36-.05-6.44-.23-2.27-.08-4.45-.16-6.63-.24-.89-.03-.92-.03-.9-.85.11-4.32.05-8.64.02-12.97ZM-84.71,45.17c0,.9-.01.91-.95.88-2.74-.09-5.49-.18-8.23-.28-1.58-.06-3.16-.03-4.74.03-.91.03-.91.01-.94-.92-.15-4.32-.05-8.65,0-12.98,0-.81.03-.84.93-.85,2.63-.05,5.27-.08,7.9-.12,1.81-.03,3.61-.07,5.42-.1.79-.01.81,0,.81.8,0,2.26,0,4.51,0,6.77-.17,2.26-.2,4.51-.19,6.77ZM-99.29-70.59c.02-.86.04-.86.89-.87,4.03-.05,8.05.13,12.07.24.91.02.91.04.92.97.02,3.72.02,7.45.04,11.17,0,1.17.05,2.33.07,3.5.02,1.14.02,1.13-1.17,1.16-3.12.1-6.24-.12-9.36-.29-.9-.05-1.8-.11-2.7-.1-.6.01-.77-.22-.77-.79.02-2.52,0-5.04,0-7.56-.06,0-.12,0-.18,0,.06-2.48.11-4.96.18-7.44ZM-99.68-39.38c.14-3.12.37-6.23.4-9.35.01-1.35,0-2.71.02-4.06,0-.78.02-.81.83-.8,1.62.02,3.23.07,4.85.13,2.52.09,5.04.29,7.56.14.58-.04.79.15.79.75,0,4.36,0,8.73.03,13.09,0,.55-.19.71-.72.7-2.22-.02-4.44,0-6.66,0,0,.07,0,.14,0,.21-2.11,0-4.21,0-6.32,0-.79,0-.82,0-.79-.8ZM-99.97-33.05c.04-1.05.05-2.11.1-3.16.04-.86.06-.89.91-.91,2.82-.06,5.64-.09,8.47-.13,1.51-.02,3.01-.06,4.52-.07.72,0,.74,0,.74.75.04,4.48.07,8.96.09,13.43,0,1.01,0,1.03-1.08.99-2.22-.07-4.44-.17-6.66-.25-2.18-.1-4.37-.03-6.55.05-.93.03-.96.02-.92-.88.12-3.27.26-6.54.38-9.81ZM-100.45-20.26c-.02-.55.25-.7.76-.7,1.47,0,2.93-.09,4.4-.07,3.12.06,6.23.17,9.35.27.77.02.77.04.76.86-.04,2.48-.09,4.96-.14,7.44-.05,0-.1,0-.15,0,0,2.48,0,4.96,0,7.44,0,.94-.01.93-.93.87-4.28-.27-8.56-.41-12.84-.42-.26,0-.53-.02-.79,0-.51.04-.67-.22-.61-.68,0-.07,0-.15,0-.23.1-4.62-.06-9.24.16-13.86.01-.3.04-.6.03-.9ZM-117.17-70.23c-.06-.58.17-.79.77-.81,1.95-.06,3.91-.19,5.86-.25,2.86-.08,5.71-.13,8.57-.18,1.47-.03,1.24,0,1.23,1.29,0,2.37,0,4.74,0,7.1-.09,2.37.03,4.73.12,7.1.04,1.08.02,1.08-.99,1.09-4.89.03-9.78.05-14.66.08-.98,0-.98,0-.97-.88.03-4.7.05-9.4.08-14.1,0-.15.02-.3,0-.45ZM-117.3-52.56c0-.6.22-.77.79-.77,2.56.02,5.11,0,7.67,0v-.22c2.44,0,4.89,0,7.33,0,.94,0,.95-.02.96.88.06,4.47.06,8.94-.19,13.41-.04.63-.29.73-.82.73-3.19,0-6.39.03-9.58.03-1.8,0-3.61-.02-5.41-.05-.8-.01-.8-.03-.83-.82-.14-4.4.05-8.79.09-13.19ZM-117.78-22.11c.09-2.7.18-5.41.32-8.11.1-1.95.1-3.91.1-5.86,0-1.07,0-1.05,1.02-1.05,2.41.01,4.81,0,7.22,0v.09c2.48,0,4.96,0,7.44,0,.85,0,.87,0,.85.87-.13,4.39-.28,8.79-.39,13.18-.02.62-.29.75-.81.79-2.17.15-4.34.35-6.52.49-2.77.18-5.55.34-8.33.49-.91.05-.93.03-.9-.9ZM-116.7,29.63c-.86,0-.88-.03-.87-.87.07-4.37-.06-8.73-.3-13.09-.04-.76-.03-.78.8-.8,1.69-.04,3.39-.08,5.08-.1,3.27-.04,6.55-.07,9.82-.1.86,0,.88,0,.92.84.21,4.36.3,8.72.38,13.08.02,1.04,0,1.06-1.04,1.06-2.45,0-4.89,0-7.34,0v-.02c-2.48,0-4.97,0-7.45,0ZM-117.82-19.32c-.01-.38.17-.52.55-.53.6-.01,1.2-.07,1.8-.1,4.42-.28,8.85-.56,13.27-.83.92-.06.95-.04.88.89-.17,2.4-.16,4.8-.26,7.21-.05,2.4-.09,4.81-.15,7.21-.02.86-.04.87-.87.88-4.73.04-9.47.16-14.19.47-.54.03-.73-.1-.73-.66-.02-4.66-.33-9.31-.3-13.97,0-.19.01-.38,0-.56ZM-117.68.49c.05-.83.09-1.65.14-2.48.05-.79.05-.8.83-.84,2.03-.1,4.05-.21,6.08-.27,2.67-.08,5.34-.13,8.01-.17.87-.01.91.01.85.88-.26,3.5-.03,6.99.11,10.48.05,1.43.16,2.85.23,4.28.04.93.03.94-.88.95-2.48,0-4.96,0-7.44,0v.09c-2.44,0-4.89,0-7.33,0-.85,0-.86,0-.89-.85-.15-4.02.07-8.04.3-12.06ZM-118.36,75.64c.02.79.08,1.58.1,2.36.03.9.02.91-.91.99-1.09.09-2.17.16-3.26.22-3.38.2-6.76.38-10.14.34-.95-.01-.96-.01-.96-1.01,0-2.37,0-4.74,0-7.1,0,0,0,0,0,0,0-2.41,0-4.81,0-7.22,0-.85.02-.85.89-.84,2.74.03,5.49.1,8.23.09,1.65,0,3.3-.12,4.96-.17.85-.03.86-.02.88.84.07,3.83.14,7.66.22,11.5ZM-118.86,46.02c.02,1.09.13,1.05-1.01,1.11-4.32.2-8.64.38-12.96.55-.96.04-.96,0-1.01-.97-.14-2.56-.14-5.11-.03-7.67.11-2.59.22-5.18.33-7.77.04-.93.04-.95.94-.91,3.34.16,6.68.34,10.03.51.98.05,1.95.09,2.93.11.44,0,.6.19.59.61-.02.68-.01,1.35-.02,2.03-.07,4.14.15,8.27.21,12.4ZM-118.88-4.97c0,.93-.02.91-.92.97-4.32.27-8.65.21-12.98.22-1,0-.99,0-1.02-.94-.14-4.4-.31-8.8-.44-13.19-.04-1.43-.18-1.22,1.24-1.27,4.32-.17,8.65-.35,12.97-.53.92-.04.93-.05.93.88,0,2.29,0,4.59,0,6.88.07,0,.15,0,.22,0,0,2.33,0,4.66,0,6.99ZM-132.96,49c2.25-.09,4.51-.17,6.76-.25,0,0,0,0,0-.01,2.14-.1,4.28-.2,6.42-.3,1.01-.05,1.03-.05,1.07,1.05.12,3.87.18,7.74.14,11.61,0,.89-.02.89-.96.95-3.46.2-6.91.14-10.37.05-.94-.02-1.88-.07-2.81-.13-.78-.05-.79-.07-.79-.86-.02-2.44-.02-4.88-.06-7.33-.02-1.31-.11-2.63-.15-3.94-.03-.8-.02-.81.77-.84ZM-133.99-55.71c.08-4.02.17-8.04.26-12.06.02-.79.06-1.58.07-2.37,0-.38.18-.55.55-.52.11,0,.23,0,.34,0,4.47.03,8.94-.02,13.41-.22.91-.04.92-.01.93.9,0,2.37,0,4.73,0,7.1-.02,0-.04,0-.06,0,0,2.33,0,4.66,0,6.99,0,1.11-.02,1.11-1.1,1.15-4.47.17-8.94.14-13.41.11-1,0-1.02-.02-1-1.1ZM-132.74-53.39c2.14,0,4.29,0,6.43,0,0,.03,0,.07,0,.11,2.22,0,4.44,0,6.66,0,1.06,0,1.06,0,1.05,1.02-.02.94-.02,1.88-.07,2.82-.15,3.27-.1,6.54-.01,9.81.03,1.03,0,1.06-1.05,1.01-3.46-.16-6.91-.34-10.37-.5-.98-.05-1.95-.12-2.93-.11-.6,0-.76-.22-.76-.79.01-2.14,0-4.29-.04-6.43-.03-1.88-.12-3.76-.15-5.64-.02-1.4-.16-1.29,1.24-1.29ZM-134.02-29.2c.16-2.59.2-5.19.23-7.78.01-.9.03-.91.96-.87,3.42.17,6.84.35,10.26.52,1.05.05,2.11.11,3.16.11.59,0,.76.22.77.79.04,2.78.03,5.57-.08,8.35-.08,1.99-.22,3.98-.32,5.97-.05,1-.03,1.01-1.09,1.06-2.52.12-5.04.23-7.55.33-1.88.08-3.76.15-5.64.2-.93.02-.94,0-.94-.91.01-2.6.05-5.19.25-7.78ZM-150.49-69.9c.02-.89.03-.91.98-.89,2.15.03,4.29.1,6.43.12,2.37.02,4.74.01,7.11.02.84,0,.86.02.84.88-.1,4.78-.26,9.55-.2,14.33,0,.58-.16.79-.77.78-4.52-.09-9.03-.15-13.55-.23-.85-.02-.87-.04-.88-.9-.01-2.37,0-4.74,0-7.11-.13-2.33-.02-4.66.04-7ZM-150.95-39.95c.09-2.03.16-4.06.29-6.08.14-2.18.13-4.36.16-6.54.01-.92.01-.93.92-.93,4.44.02,8.88.05,13.31.08.92,0,.93.02.96.81.18,4.1.22,8.19.18,12.29,0,1-.02,1.01-.97,1.01-2.33,0-4.66,0-6.99,0,0,.01,0,.03,0,.04-2.29.08-4.58.17-6.88.25-1.08.04-1.03.05-.98-.94ZM-149.88-37.73c4.66-.24,9.32-.24,13.99-.2.61,0,.76.23.74.8-.1,2.67-.17,5.34-.24,7.74-.25,2.78-.21,5.3-.25,7.82-.02,1.06-.01,1.07-1.02,1.07-4.32,0-8.65,0-12.97-.01-.19,0-.38-.02-.56,0-.49.03-.66-.22-.66-.68,0-.86-.03-1.73-.04-2.59-.05-4.21-.11-8.42-.15-12.63-.01-1.21,0-1.23,1.18-1.29ZM-135.62,12.7c.04.8,0,.82-.79.81-4.29-.06-8.57-.13-12.86-.21-.87-.02-.89-.03-.89-.88-.01-2.41,0-4.81,0-7.22-.03,0-.06,0-.09,0-.09-2.29-.17-4.58-.26-6.88-.03-.92-.02-.95.9-.93,4.55.08,9.1.17,13.65.14.76,0,.79.03.77.85-.05,1.73-.09,3.46-.21,5.18-.21,3.04-.37,6.08-.21,9.12ZM-151.14,97.88c-.02-.8,0-.82.8-.82,4.7.02,9.4.04,14.09.07.83,0,.83.03.84.91.01,1.43.03,2.86.02,4.28-.03,3.05.2,6.08.4,9.12.01.19.03.37.03.56q.03.84-.85.92c-4.8.41-9.61.42-14.42.25-.75-.03-.75-.04-.75-.86,0-2.4,0-4.81,0-7.34-.06-2.27-.13-4.68-.18-7.08ZM-150.69,78.45c.09-2.33.21-4.66.18-7.93.04-1.63.1-4.18.18-6.74.03-.93.04-.96.93-.94,3.08.08,6.17.18,9.25.28,1.2.04,2.41.1,3.61.14,1.65.06,1.4-.12,1.41,1.5.03,4.03.05,8.05.08,12.08,0,.6.04,1.2.05,1.8.01.88,0,.89-.84.91-2.97.07-5.94.14-8.92.22-1.5.04-3.01.13-4.51.17-1.72.04-1.49.22-1.43-1.49ZM-150.85-18.48c.02-.8.03-.84.83-.81,4.51.15,9.02.11,13.53.11.84,0,.86.02.87.89.04,2.29.08,4.58.17,6.03.1,3.09.19,5.34.25,7.6.02.86,0,.89-.85.88-4.58-.04-9.17-.09-13.75-.15-.84-.01-.87-.04-.88-.92-.09-4.54-.29-9.09-.16-13.63ZM-150.27,50.4c-.01-.26.02-.53-.01-.79-.05-.53.14-.75.7-.72,1.2.06,2.4.1,3.61.1,3.23.01,6.46,0,9.7.01,1.02,0,1.04,0,1.08,1.06.13,3.68.1,7.36.09,11.05,0,.76-.03.78-.85.75-2.21-.1-4.43-.23-7.07-.37-1.83-.05-4.08-.11-6.34-.18-.86-.03-.89-.03-.83-.88.23-3.34.07-6.68-.08-10.02ZM-135.37,44.09c.02.87.03,1.73.03,2.6,0,.99,0,1-.95,1-3.31,0-6.62,0-9.93,0-1.09,0-2.18,0-3.27-.03-.78-.02-.8-.03-.8-.84-.01-2.6,0-5.19,0-7.79-.02-2.56.15-5.11.2-7.67.02-.9.02-.93.94-.96,3.99-.16,7.97-.18,11.96-.17.53,0,1.05.05,1.58.02.56-.03.84.14.78.75-.06.6-.03,1.2-.06,1.8-.2,3.75-.53,7.5-.46,11.27ZM-150.82,82.27c.03-.87.06-.89.88-.9,4.63-.11,9.25-.33,13.88-.32.11,0,.23,0,.34,0,.52-.05.73.12.71.69-.09,2.07-.1,4.14-.2,6.21-.1,2.07-.16,4.14-.18,6.21-.01,1.52.12,1.34-1.31,1.33-2.22-.01-4.44,0-6.66,0v-.1c-2.33,0-4.67,0-7,0-.8,0-.83-.02-.81-.81.1-4.1.22-8.2.35-12.3ZM-151.43,21.97h0c0,2.1,0,4.21,0,6.31,0,.95-.01.97-.88,1.02-4.2.24-8.4.55-12.62.49-.11,0-.23,0-.34,0-.79-.02-.8-.02-.87-.79-.11-1.2-.19-2.4-.3-3.59-.33-3.67-.68-7.33-.8-11.02-.04-1.21-.11-1.14,1.06-1.03,3.33.32,6.65.68,9.98,1,1.23.12,2.48.14,3.71.21,1.2.07,1.04.06,1.05,1.08,0,2.1,0,4.21,0,6.31ZM-165.83-70.94c4.17.04,8.35.07,12.53.1.15,0,.3,0,.45,0,1.4.03,1.24,0,1.2,1.24-.08,2.22-.21,4.43-.1,7.48,0,1.51,0,3.84,0,6.17,0,.93-.02.95-.92.92-3.12-.1-6.22-.44-9.33-.8-1.08-.12-2.16-.28-3.25-.36-.59-.04-.83-.21-.86-.86-.2-4.28-.45-8.56-.68-12.84-.06-1.07-.05-1.06.97-1.05ZM-152.32-39.62c0,.49-.13.75-.69.78-4.28.26-8.57.5-12.86.46-.69,0-.7-.35-.7-.85,0-2.48.08-4.97.28-7.44.21-2.44.23-4.89.23-7.33,0-.82.02-.83.82-.74,4.19.47,8.37,1,12.59,1.13.86.03.87.06.87.92,0,3.43-.16,6.84-.43,10.26-.07.94-.1,1.88-.11,2.82ZM-152.29-29.1c0,2.56,0,5.11,0,7.67,0,.85-.02.87-.89.85-1.65-.04-3.31-.1-4.96-.16-2.52-.09-5.04-.18-7.56-.27-.89-.03-.9-.04-.9-.86,0-4.78.02-9.55.03-14.33,0-.81.02-.82.79-.83,4.14-.04,8.27-.23,12.4-.55.9-.07.92-.06.91.91-.03,2.52.05,5.04.18,7.56ZM-167.05-4.9c.07-2.33.17-4.65.25-6.98.05,0,.09,0,.14,0,0-2.29,0-4.58,0-6.87,0-.85.03-.88.89-.86,4.21.08,8.41.18,12.62.29.85.02.87.04.87.89-.02,3.68.15,7.36.24,11.04.02.9.07,1.8.15,2.7.04.51-.06.75-.65.75-4.58-.04-9.17-.04-13.75-.07-.76,0-.78-.03-.75-.87ZM-167.38,3.99c.03-1.99.12-3.98.19-5.97.03-.79.04-.79.84-.79,2.25,0,4.51,0,6.76,0v.12c2.29,0,4.58,0,6.88,0,.86,0,.87.03.92.87.28,4.69.4,9.38.37,14.08,0,.88-.02.89-.97.87-3.23-.08-6.44-.44-9.65-.81-1.45-.17-2.91-.37-4.36-.5-.78-.07-.96.05-.97-1.11-.02-2.25-.03-4.51,0-6.76ZM-153.4,163.57c-2.33.01-4.67,0-7,0,0,.06,0,.12,0,.18-2.3,0-4.59,0-6.89,0-.81,0-.84-.01-.82-.79.12-4.36.25-8.72.39-13.09.02-.78.05-.8.86-.75,4.47.29,8.95.36,13.43.44.77.01.78.03.76.85-.1,4.14-.16,8.28,0,12.42.03.71.02.73-.73.74ZM-152.55,147.33c-.02.83-.03.85-.91.84-3.65-.05-7.3-.11-10.95-.17-.83-.01-1.66-.04-2.48-.07-.78-.03-.8-.04-.79-.85.05-2.41.12-4.81.18-7.22,0-.15,0-.3,0-.45.01-2.56.3-5.11.11-7.67-.04-.57.21-.71.72-.69,4.33.17,8.66-.07,12.98-.02.77,0,.81.02.83.84.15,5.15.41,10.3.3,15.46ZM-152.9,128.82c0,.57-.24.69-.74.7-1.65.02-3.31.07-4.96.1-2.67.05-5.34.1-8,.16-.51.01-.83-.06-.84-.72-.02-4.58-.1-9.17.35-13.74.11-1.13.04-1.03,1.14-.97,2.1.12,4.21.15,5.35.14,3.03,0,5.1,0,7.16,0,.94,0,.95.02.93.91-.12,4.47-.41,8.93-.39,13.41ZM-152.36,112.02c0,.11-.02.23-.01.34.03.58-.24.77-.81.76-1.5-.03-3.01-.01-4.51-.01-.64,0-1.28,0-1.92,0v-.02c-2.03,0-4.06.02-6.09,0-1.34-.02-1.2-.05-1.1-1.18.35-4.04.62-8.09.49-12.15-.03-.79-.04-1.58-.1-2.36-.04-.51.17-.64.66-.63,4.17.1,8.34.18,12.51.26.5,0,.73.14.74.7.09,4.77.26,9.54.14,14.31ZM-152.53,94.67c-.01.65-.29.72-.82.73-3.42.02-6.84.06-10.26.1-.75,0-1.5.02-2.25.06-.47.03-.66-.12-.69-.62-.11-2.03-.28-4.05-.4-6.08-.14-2.33-.25-4.65-.37-6.98-.05-.95-.02-.95.9-.91,2.22.11,4.43.21,6.65.31,0,.03,0,.07,0,.1,2.22,0,4.44,0,6.65,0,.87,0,.88.02.86.88-.09,4.13-.21,8.27-.27,12.4ZM-151.71,63.85c-.07,2.48-.12,4.96-.17,7.1.07,2.95-.19,5.54-.22,8.14,0,.9-.03.92-.97.91-4.52-.07-9.03-.15-13.55-.24-.78-.01-.8-.04-.81-.84,0-2.3-.04-4.59.03-6.89.09-2.71.23-5.41.51-8.11.11-1.05.13-1.05,1.12-1.02,3.99.11,7.98-.09,11.97-.05.38,0,.75,0,1.13,0,1,.01.98.01.96,1ZM-151.63,60.43c-.02.85-.03.87-.87.88-2.22.01-4.43,0-6.65,0,0,.1,0,.19,0,.29-2.22,0-4.43,0-6.65,0-.78,0-.84-.03-.75-.72.46-3.78.29-7.58.4-11.37.03-.93.03-.95.92-.93,4.24.09,8.49.19,12.73.3.77.02.78.04.8.86.1,3.57.16,7.13.06,10.7ZM-151.65,39.07s-.03,0-.05,0c0,2.56,0,5.11,0,7.67,0,.87-.02.9-.88.88-2.59-.07-5.19-.17-7.78-.26-1.43-.05-2.86-.09-4.28-.15-1.74-.07-1.47.13-1.44-1.44.05-2.74.21-5.48.19-8.23-.01-1.84-.02-3.68-.12-5.52-.04-.82-.02-.84.75-.85,4.29-.06,8.57-.3,12.84-.6.97-.07.99-.05.97.95-.06,2.52-.13,5.03-.2,7.55ZM-150.24,131.03c4.22.03,8.43.22,12.64.4.49.02.98.02,1.47.04.93.04.93.04.9.96-.12,2.71-.13,5.42-.03,8.12.08,2.14.1,4.29.18,6.43.02.59-.16.76-.75.78-4.7.11-9.4.26-14.11.39-.15,0-.3,0-.45,0-.74-.02-.77-.02-.75-.75.05-2.07.05-4.14,0-6.21-.01-.53,0-1.05,0-1.43-.09-2.63-.18-5.11-.25-7.59-.04-1.28-.05-1.14,1.16-1.14ZM-135.83,163.69c-2.44,0-4.88,0-7.33,0v-.12c-2.41,0-4.81,0-7.22,0-.79,0-.79-.02-.84-.8-.25-4.17-.1-8.34.02-12.51.02-.54.19-.71.73-.71,4.85-.07,9.69-.33,14.54-.31.87,0,.9.01.9.85.03,4.25.05,8.49.07,12.74,0,.87-.02.87-.87.87ZM-135.11,129.22c-.06.84-.06.87-.91.83-4.92-.28-9.84-.51-14.76-.55-.61,0-.66-.3-.65-.77.05-2.44.08-4.89.14-7.33.05-1.99.12-3.98.21-5.97.04-.85.06-.88.92-.85,2.44.11,4.88.18,7.47.15,2.23.03,4.6-.14,6.96-.3.82-.05.85-.1.86.81,0,.86.05,1.73.03,2.59-.08,3.8,0,7.59-.26,11.39ZM-134.77,28.07c-.04.79-.04.81-.85.81-2.29,0-4.59,0-6.25,0-2.88.11-5.14.2-7.39.27-.81.03-.82.01-.83-.77-.02-4.28-.04-8.57-.05-12.85,0-.82,0-.84.79-.83,4.36.02,8.72.04,13.08.08.8,0,.79.03.88.81.45,3.85.62,7.71.63,11.58,0,.3,0,.6-.02.9ZM-134.25,12.71c-.13-2.29-.07-4.59.06-6.87.14-2.48.31-4.95.38-7.43.03-.85.04-.87.88-.86,4.36.01,8.72,0,13.08-.21.96-.05.96-.02.9,1.01-.14,2.36-.27,4.73-.34,5.96-.12,3.54-.09,5.94-.06,8.35.01.78,0,.81-.79.84-4.43.16-8.87.13-13.3.09-.75,0-.76-.04-.81-.86ZM-134.03,15.54c-.02-.72-.02-.74.75-.74,2.22,0,4.44,0,6.65,0,0,.04,0,.07,0,.11,2.18,0,4.36.02,6.54-.01.63-.01.84.2.87.81.21,3.98.38,7.96.24,11.94,0,.11-.02.22-.02.34-.08,1.64-.07,1.62-1.66,1.54-3.94-.2-7.88-.39-11.83-.58-.95-.05-.96-.04-.96-.92-.02-3.95-.09-7.89-.54-11.82-.03-.22-.03-.45-.04-.68ZM-117.79,145.95c-.02,1.28,0,1.11-1.1,1.19-4.58.33-9.16.66-13.76.59-.83-.01-.84-.02-.86-.9-.08-2.41-.15-4.81-.22-7.22-.11-2.41-.07-4.82,0-7.22.03-.85.04-.86.92-.83,4.63.14,9.26.18,13.88-.1.99-.06.99-.03,1.02.95.17,4.51.17,9.03.11,13.54ZM-117.98,121.71c0,2.41,0,4.81,0,7.22,0,1.3.29,1.2-1.28,1.3-3.57.23-7.14.16-10.71.06-.94-.03-1.88-.07-2.82-.13-.79-.05-.8-.07-.79-.83.03-1.92.05-3.84.12-5.75.1-2.82.11-5.64.1-8.46,0-.88,0-.91.81-.99,4.38-.45,8.75-.92,13.16-.92.19,0,.38,0,.56,0q.79.03.79.83c0,2.56,0,5.11,0,7.67h.05ZM-117.71,98.46c-.02,3.5-.06,7-.21,10.49-.03.75-.05,1.5-.04,2.26,0,.43-.16.6-.6.59-.71-.03-1.43-.02-2.14-.02-3.96,0-7.89.39-11.82.82-.89.1-.9.11-.95-.74-.26-4.54-.51-9.09-.49-13.65,0-1.06,0-1.06,1.03-1.06,2.41,0,4.82,0,7.22,0,0,.08,0,.16,0,.24,2.3,0,4.59,0,6.89,0,1.13,0,1.13-.16,1.12,1.07ZM-118.48,95.87c-2.48-.02-4.96,0-7.44,0,0-.07,0-.14,0-.21-2.37-.04-4.73-.08-7.1-.12-.94-.02-.96-.02-.93-.92.13-4.28.27-8.56.41-12.84.02-.72.04-.74.9-.75,3.5-.03,6.99-.15,10.48-.39,1.12-.08,2.25-.15,3.37-.24.43-.03.6.1.61.55.18,4.73.49,9.45.49,14.19,0,.62-.24.75-.79.75ZM-117.61,31.78c0-.59.2-.78.79-.75,2.51.14,5.03.14,7.55.12,2.44,0,4.88,0,7.33,0,1.06,0,1.07,0,1.06,1.02-.03,2.7-.08,5.41-.08,8.11,0,1.61.04,3.23.1,4.84.02.57-.15.79-.74.82-2.62.17-5.24.41-7.87.59-2.36.16-4.72.29-7.09.42-.81.04-.84.02-.86-.75-.16-4.81-.25-9.61-.18-14.42ZM-116.42,129.3c.01-2.56,0-5.11,0-7.67,0,0,0,0,0,0,0-2.52,0-5.04,0-7.56,0-.84.02-.85.9-.81,4.4.18,8.79.43,13.19.45.98,0,.99.03,1.04,1.01.24,4.85.09,9.7.09,14.55,0,.78-.02.79-.83.79-4.55-.01-9.1-.19-13.65.03-.66.03-.74-.25-.74-.79ZM-116.26,98.08c-.05-.59.19-.75.77-.79,2.93-.17,5.86-.37,8.79-.43,1.28-.03,2.56-.05,3.84-.05,1.58,0,1.34-.09,1.35,1.43,0,2.18,0,4.36,0,6.54-.2,2.18-.05,4.36,0,6.54.03,1.06.22,1.08-1.09,1.06-4.33-.05-8.65-.28-12.97-.53-.95-.06-.84-.13-.83-.92.05-3.88.1-7.75.14-11.63,0-.41.04-.83,0-1.24ZM-101.15,139.97c-.09,1.91-.07,3.83-.24,5.75-.06.65-.31.79-.9.79-4.48-.01-8.95.1-13.42.43-.64.05-.65-.28-.65-.74.01-2.37,0-4.74,0-7.11-.01,0-.02,0-.04,0,0-2.29,0-4.59,0-6.88,0-.79,0-.81.79-.84,1.13-.04,2.26-.08,3.38-.07,3.42.04,6.85.11,10.27.13.58,0,.78.17.8.76.1,2.59.13,5.19,0,7.78ZM-101.45,94.59c-.02.64-.3.73-.83.72-3.2-.06-6.39.1-9.58.28-1.2.07-2.4.16-3.6.21-.78.03-.79.01-.81-.8-.06-2.37-.11-4.74-.17-7.1h-.02c-.09-2.18-.18-4.36-.28-6.54-.05-1.11-.05-1.12,1.11-1.22,4.58-.38,9.16-.51,13.75-.52.86,0,.88.02.85.89-.14,4.7-.3,9.39-.42,14.09ZM-100.98,77.48c-.02.8-.03.82-.82.83-1.65.02-3.31,0-4.96.04-3.08.07-6.16.18-9.24.41-.81.06-.82.05-.85-.75-.15-4.58-.29-9.17-.25-13.75.01-1.21.01-.99,1.05-1.06,2.4-.15,4.81-.08,7.22.06,2.37,0,4.74,0,7.1,0,.81,0,.81.02.79.81-.07,2.71-.04,5.41.01,8.12.03,1.77-.03,3.53-.07,5.3ZM-100.84,61.07c-.03.81-.04.81-.83.81-2.45,0-4.89,0-7.34,0,0,0,0,.01,0,.02-2.37,0-4.74,0-7.11,0-.95,0-.98.01-.96-.87.05-3.91-.11-7.82-.22-11.73-.03-.96-.09-.93.86-.99,4.96-.31,9.91-.64,14.86-.96.71-.05.74-.04.74.75.01,3.72.01,7.45.02,11.17,0,.6,0,1.2-.02,1.81ZM-100.68-2.49c.04-.77.04-.78.87-.79,3.98-.05,7.97.06,11.95.2.78.03,1.78-.3,2.27.26.43.49.11,1.44.14,2.19.15,4.24.32,8.48.62,12.72.13,1.9.25,1.62-1.53,1.66-2.07.05-4.13.08-6.5-.15-1.95-.08-4.2-.16-6.45-.25-.83-.03-.86-.03-.92-.87-.35-4.98-.68-9.97-.45-14.97ZM-100.25,111.43c-.19-2.33-.07-4.66.02-6.98,0-2.18,0-4.36,0-6.53,0-1.11-.04-1.07,1.05-1.03,3.26.14,6.53.3,9.79.44.94.04,1.88.05,2.82.06,1.25.01,1.21-.02,1.13,1.16-.24,3.45-.45,6.9-.51,10.35-.01.9-.02,1.8-.03,2.7-.01.9-.02.9-.96.9-1.5,0-3.01-.02-4.51-.03-2.59-.01-5.19-.02-7.78-.04-.94,0-.95-.02-1.03-.99ZM-85.08,130.59c-1.8-.07-3.61-.08-5.41-.14-2.82-.1-5.63-.24-8.45-.34-1.04-.04-1.01.09-1.01-1.09,0-2.37,0-4.74,0-7.1.03-2.33.03-4.66-.15-6.99-.02-.22,0-.45-.02-.68-.02-.32.11-.49.45-.49.15,0,.3,0,.45,0,3.98.03,7.97.05,11.95.08.23,0,.45.02.68.01.48-.02.66.2.67.68,0,1.16.05,2.33.14,3.49.16,2.03.53,4.02.82,6.02.28,1.94.38,3.89.54,5.83.04.56-.09.73-.65.71ZM-69.9,131.21c-.98,0-1.96-.02-2.93-.07-3.12-.14-6.23-.29-9.35-.44-.78-.04-.8-.04-.84-.83-.16-3.46-.69-6.88-1.17-10.3-.23-1.6-.29-3.22-.33-4.83-.02-.83,0-.82.89-.82,2.14,0,4.29,0,6.43,0,0,.01,0,.02,0,.03,2.11,0,4.21,0,6.32,0,.88,0,.88,0,.88.83,0,5.11.21,10.22.77,15.3.01.11.02.22.02.34.04.76.04.78-.68.78ZM-69.09,98.16c-.21,4.54-.72,9.07-.8,13.62-.01.62-.27.75-.82.75-2.18-.02-4.36,0-6.54,0v.03c-2.14,0-4.29.01-6.43,0-.86,0-.86-.04-.87-.88-.03-3.31.19-6.62.36-9.92.06-1.2.18-2.4.24-3.6.03-.53.23-.7.76-.7,4.48,0,8.95-.05,13.43-.07.73,0,.72.03.68.78ZM-68.92,94.94c-.05.8-.06.81-.83.82-4.36.03-8.72.05-13.08.08-1.01,0-.92-.07-.85-.95.35-4.58.47-9.16.45-13.75,0-1.03-.05-.98.98-.98,3.01,0,6.02.01,9.02-.01,1.31-.01,2.62-.12,4.04-.19.05.38.1.64.11.9.16,4.69.47,9.39.17,14.09ZM-68.68,15.19c-.07,4.51-.14,9.03-.21,13.54-.01.93-.02.97-.91.91-4.17-.28-8.34-.35-12.52-.26-.58.01-.7-.2-.7-.72.02-2.22,0-4.44,0-7.06-.06-1.74-.13-3.89-.19-6.03-.02-.81,0-.81.77-.86,4.13-.24,8.26-.45,12.4-.47.26,0,.53.01.79,0,.47-.04.59.21.56.61,0,.11,0,.23,0,.34ZM-56.42,130.31c-3.53.25-7.05.48-10.58.78-.84.07-.87-.02-.95-.79-.55-5.21-.74-10.42-.65-15.66.01-.67.35-.7.85-.7,3.08.04,6.17.07,9.25.09,1.43.01,2.86-.01,4.29,0,.89,0,.89.01.92.83.1,3.16.14,6.32.32,9.47.1,1.73.32,3.44.56,5.15.02.14.02.29.04.52-1.38.1-2.72.21-4.06.3ZM-52.29,85.24c-.11,3.19-.27,6.39-.39,9.58-.02.54-.11.79-.74.8-4.29.02-8.57.21-12.86.15-.23,0-.45-.01-.68,0-.4.01-.52-.19-.5-.56.03-.49.05-.98.05-1.47,0-1.96,0-3.91,0-6.26-.08-1.98-.18-4.34-.27-6.71-.03-.92-.02-.92.91-.99,4.62-.34,9.25-.1,13.87-.04.6,0,.68.28.67.76-.03,1.58-.01,3.16-.07,4.74ZM-52.21,11.19c-.04,1.1.09,1.07-1.03,1.06-4.18-.03-8.35.12-12.51.41-.26.02-.53,0-.79.04-.54.08-.74-.13-.71-.68.08-1.35.1-2.71.16-4.06.04-.94.11-1.88.17-2.81-.01,0-.02,0-.03,0,.14-2.33.29-4.65.39-6.98.03-.56.18-.78.78-.8,4.4-.13,8.79-.46,13.19-.36,1.01.02,1.01.03.94,1.01-.31,4.39-.43,8.79-.58,13.18ZM-34.87,114.95c-.08,1.46-.16,2.93-.27,4.39-.24,3.27-.16,6.53-.17,9.8,0,1.01.08,1-.97,1-2.26-.01-4.51-.05-5.83-.18-3.18-.17-5.44-.12-7.69-.07-.98.02-.97,0-1.13-.93-.44-2.56-.55-5.15-.64-7.74-.07-2.07-.13-4.13-.17-6.2-.02-1.02,0-1.05,1.07-1.04,5.04.05,10.07.11,15.11.17.71,0,.72.03.68.8ZM-34.61,112.09c-.05.57-.31.66-.79.66-2.59-.01-5.19,0-7.78,0,0-.05,0-.11,0-.16-2.56,0-5.11,0-7.67,0-.88,0-.88-.02-.85-.88.13-4.54.27-9.09.54-13.62.05-.78.04-.79.83-.78,4.89.05,9.77.02,14.65-.13.26,0,.53.01.79,0,.38-.02.54.17.56.53.02.3.07.6.09.9.21,4.51.02,9.01-.38,13.51ZM-34.84,64.18c-.19,2.81-.44,5.62-.47,8.44-.02,1.69-.02,3.38-.03,5.07,0,.96-.01.97-1.01.95-4.59-.09-9.17-.19-13.76-.3-.77-.02-.78-.03-.8-.85-.06-4.51-.36-9.01-.57-13.52-.04-.91-.04-.9.88-.97,2.51-.19,5.03-.21,7.55-.08,2.44.11,4.88.21,7.32.31.93.04.94.03.88.93ZM-34.48,94.72c.06.85.07.87-.81.87-2.48.01-4.96,0-7.44,0,0,.04,0,.08,0,.12-2.48,0-4.96.01-7.44,0-.92,0-.93-.04-.92-.96.08-4.73.16-9.47.24-14.2.01-.74.02-.77.87-.75,3.61.08,7.21.17,10.82.26,1.01.03,2.03.09,3.04.09.54,0,.8.12.81.74.05,2.78.22,5.56.42,8.33.14,1.84.26,3.67.4,5.51ZM-34.19,57.33c-.03,1.24-.18,2.47-.32,3.7-.1.91-.14.92-1.01.91-1.84-.02-3.69,0-5.52-.13-3.23-.22-6.46-.18-9.69-.09-.82.02-.83.02-.84-.74-.09-4.1,0-8.19.21-12.28.03-.64.3-.72.83-.72,2.63.02,5.26,0,7.89,0,0,.05,0,.09,0,.14,2.56,0,5.11,0,7.67,0,.87,0,.88.02.88.85-.02,2.78-.02,5.56-.08,8.34ZM-34.01,46.09c-.02.78-.04.78-.86.78h-7.79v-.1c-2.56,0-5.12,0-7.68,0-.94,0-.94-.02-.91-.91.15-4.21.13-8.42.12-12.64,0-.3.01-.6,0-.9-.02-.41.11-.65.57-.62.26.02.53,0,.79,0,4.36.03,8.73.07,13.09.1.6,0,1.2-.02,1.81-.02.84,0,.86,0,.88.88.08,4.48.1,8.95-.02,13.43ZM-19.28,121.81c-.03,2.32-.21,4.88-.16,7.44.02.86-.01.88-.86.85-4.21-.15-8.42.02-12.63.03-.99,0-1,0-1.01-.96-.05-4.7-.13-9.4.36-14.08.1-.94.1-.94,1.06-1,4.2-.27,8.4-.55,12.6-.82.94-.06.96-.06.93.88-.08,2.48-.18,4.96-.28,7.67ZM-19.62,111.84c-4.17.26-8.33.56-12.5.84-1.45.1-1.28.07-1.17-1.13.41-4.54.62-9.08.39-13.64-.03-.59.15-.78.74-.79,4.1-.05,8.2-.15,12.3-.21.78-.01.81.01.82.81.02,2.22,0,4.44,0,6.66.06,0,.12,0,.18,0,0,2.22-.01,4.44,0,6.66,0,.57-.2.77-.78.8ZM-18.74,81.34c-.13,4.32-.23,8.65-.33,12.97-.02,1-.02,1-.96,1.02-4.03.07-8.05.15-12.08.22-.96.02-.91.03-.98-.89-.3-4.5-.61-9.01-.8-13.52q-.04-.97.96-.97c2.22,0,4.44,0,6.66,0v.08c2.18,0,4.37,0,6.55,0,1.21,0,1.01.17.98,1.08ZM-18.25,71.02c-.07,2.37-.29,4.73-.35,7.1-.02.83-.04.85-.8.83-4.55-.07-9.09-.15-13.64-.24-.9-.02-.9-.04-.92-.94-.08-4.44.14-8.86.48-13.28.02-.26.07-.52.1-.78.03-.32.2-.46.52-.44.11,0,.23,0,.34,0,4.4,0,8.79-.12,13.19,0,.11,0,.23,0,.34,0,.76.04.75.04.75.77,0,2.33,0,4.66,0,6.98ZM-18.16,60.89c-.03,1.06-.02,1.08-1.02,1.04-4.24-.15-8.49-.04-12.73,0-.4,0-.82.11-1.25-.13.12-1.74.38-3.48.39-5.25,0-2.44.07-4.88.1-7.32.02-1.07-.09-1.08,1.14-1.05,4.09.1,8.19.17,12.28.25q1,.02,1.03.98c.09,3.83.16,7.66.06,11.49ZM-17.98,31.71c-.2,4.92-.16,9.84-.25,14.76-.01.8-.03.82-.82.8-4.28-.1-8.56-.23-12.84-.31-.62-.01-.76-.24-.74-.8.09-2.29.15-4.58.21-6.39-.02-2.69.04-4.91-.09-7.12-.05-.89-.03-.92.81-.95,4.28-.17,8.55-.51,12.81-.87.91-.08.94-.06.91.89ZM-18.87,29.5c-3.55.31-7.11.64-10.67.82-.83.04-1.65.09-2.47.15-.43.03-.59-.14-.61-.57-.28-4.95-.92-9.87-1.11-14.83-.01-.26,0-.53-.02-.79-.06-.51.2-.65.66-.63.49.02.98,0,1.47,0,1.95,0,3.91,0,5.86,0v-.04c2.33,0,4.66,0,6.99,0,.8,0,.82.02.82.8,0,4.73.01,9.47,0,14.2,0,.77-.02.81-.91.88ZM-18.85,12.27c-2.4.08-4.81.15-8.01.24-1.49,0-3.79,0-6.08,0-.86,0-.88,0-.92-.84-.14-2.67-.1-5.34-.04-8,.04-1.8.13-3.61.17-5.41,0-.53.16-.75.71-.7.97.08,1.95.11,2.93.18,3.27.23,6.54-.15,9.81-.16.63,0,1.44-.3,1.83.15.32.37.22,1.14.24,1.74.11,3.98.32,7.96.27,11.95-.01.82-.02.83-.89.86ZM-1.63,129.17c-.05.99-.06,1.01-.98,1.05-4.85.2-9.69.17-14.54,0-.77-.03-.79-.06-.79-.86-.02-2.55,0-5.11.13-8.06.07-2.08.15-4.56.26-7.04.05-1.13-.15-1.11,1.1-1.13,4.03-.06,8.03.23,12.04.6.79.07,1.57.14,2.36.2.45.03.68.21.65.7-.03.37.02.75.02,1.13,0,4.47,0,8.94-.24,13.41ZM-2.33,29.15c-4.51-.23-9.03-.16-13.53.14-.73.05-.75.04-.75-.73-.01-2.37,0-4.74,0-7.11h-.06c0-2.29,0-4.59,0-6.88,0-.96,0-.97.89-.97,4.18,0,8.35.02,12.53.04,1.11,0,1.13.03,1.26,1.16.51,4.45.78,8.91.69,13.39-.02.98-.04,1-1.03.95ZM101.53-70.79c4.47.03,8.95.08,13.42.13.79,0,.81.02.79.83-.06,2.22-.24,4.43-.11,7.22,0,1.68,0,3.94,0,6.19,0,.88-.02.9-.86.9-4.28,0-8.57-.04-12.85.13-.54.02-.62-.2-.62-.65-.08-4.58-.46-9.16-.69-13.73-.05-1-.04-1.02.93-1.01ZM100.81-28.95h.03c0-2.1,0-4.21,0-6.31,0-1.21-.06-1.07,1.11-1.05,2.86.04,5.71.1,8.57-.03,1.24-.06,2.48-.12,3.71-.22.56-.04.7.17.71.7.04,4.21.11,8.42.17,12.63,0,.4,0,.71-.56.73-4.17.15-8.32.59-12.48.87-1.45.1-1.25.15-1.25-1.21,0-2.03,0-4.06,0-6.09ZM115.04-38.83c-.01.52-.21.7-.74.74-4.21.27-8.41.49-12.62.27-.95-.05-.85-.13-.85-.91.01-2.37,0-4.74.18-6.38.2-3.08.34-5.44.33-7.82,0-.81.02-.83.88-.88.79-.05,1.58-.08,2.37-.08,3.38-.01,6.77-.02,10.15-.01.86,0,.88.02.88.87,0,3.5-.16,6.99-.42,10.48-.09,1.24-.13,2.48-.16,3.72ZM100.45-8.37c.22-3.56.22-7.13.29-10.7,0-.15.02-.3,0-.45-.04-.51.16-.76.71-.76.6,0,1.2-.06,1.8-.11,3.48-.26,6.97-.56,10.45-.77,1.65-.1,1.4-.14,1.41,1.32.02,2.44,0,4.88,0,6.48.27,3.39.13,5.95.36,8.5.08.92.05.95-.88.95-3.53-.02-7.06-.06-10.6-.09-1.01,0-2.03-.02-3.04,0-.5.01-.65-.19-.63-.67.06-1.24.04-2.48.12-3.72ZM82.92-56.23c.2-4.58.39-9.16.16-13.75-.04-.88-.01-.89.84-.89,4.81.04,9.62.21,14.44.1.61-.01.76.22.78.78.19,4.51.41,9.01.62,13.51,0,.19,0,.38.02.56.04.42-.12.63-.57.61-.45-.02-.9,0-1.35-.02-2.18-.15-4.36-.12-6.54-.06-2.52,0-5.04,0-7.56,0-.87,0-.87.01-.83-.85ZM82.7-52.81c.09-1.03,0-.92,1.06-.96,5.08-.19,10.16-.13,15.23.04.82.03.84.03.83.91-.03,2.03-.01,4.07-.14,6.09-.17,2.59-.21,5.19-.25,7.78-.02,1.25-.07,1.07-1.14,1.07-2.41,0-4.81,0-7.22,0,0-.04,0-.09,0-.13-2.63-.07-5.27-.14-7.9-.22-.8-.03-.82-.05-.83-.81-.09-4.59-.04-9.18.36-13.76ZM82.53,15.34c.05-.89.04-.89.96-.92,4.78-.16,9.55-.19,14.33.01.94.04.96.04.98.93.09,4.18.55,8.33.87,12.49.05.6.02,1.21.09,1.8.07.59-.2.68-.71.67-2.11-.06-4.21-.08-6.32-.12-.53,0-1.05,0-1.58,0v-.04c-2.63-.07-5.27-.14-7.9-.22-.99-.03-.91-.03-.91-.96-.01-4.55-.05-9.1.19-13.65ZM98.66,11.93c0,.96,0,.98-.91.92-2.37-.16-4.74-.11-7.11-.04-2.33,0-4.66,0-6.99,0-1.06,0-1.08.03-1.04-1.01.12-3.61.26-7.21.39-10.82.04-.98.09-1.95.1-2.93,0-.58.23-.77.82-.75,1.99.06,3.99.08,5.98.09,2.71.02,5.42.02,8.12.03,1.03,0,1.02,0,.97.97-.24,4.36-.41,8.71-.34,13.08,0,.15,0,.3,0,.45ZM98.2-3.98c-4.74.15-9.48-.02-14.22-.08-.61,0-.77-.21-.74-.79.11-2.29.15-4.59.29-6.88.16-2.48.27-4.96.34-7.44.02-.9.03-.92.97-.86,3.19.21,6.39.32,9.59.18,1.35-.06,2.7-.16,4.06-.22.81-.03.83-.02.83.77,0,2.41,0,4.82,0,7.22,0,2.41-.13,4.81-.22,7.22-.03.83-.04.84-.89.87ZM98.53-21.38c-4.61.48-9.23.5-13.85.15-.49-.04-.84-.05-.87-.71-.23-4.54-.9-9.05-1.26-13.58,0-.11-.02-.22-.02-.34-.04-.89-.04-.9.79-.89.9,0,1.8.03,2.71.06,1.62.05,3.23.12,4.85.17,0-.02,0-.03,0-.05,2.52.06,5.04.11,7.55.18.92.03.94.05.94.94-.01,4.4-.03,8.8-.06,13.19,0,.8-.02.79-.78.87ZM82.5-13.81c-.11,2.29-.27,4.58-.41,6.86-.05.75-.13,1.5-.14,2.25-.01.51-.26.62-.71.61-4.41-.06-8.78.42-13.17.69-.11,0-.23.01-.34.01-.72.01-.76,0-.71-.75.17-2.51.21-5.03.22-7.55,0-2.48,0-4.96,0-7.44,0-.86,0-.86.87-.87,4.36-.03,8.72-.07,13.09-.1.23,0,.45.02.68,0,.56-.05.82.14.79.75-.07,1.84-.07,3.68-.16,5.52ZM82.56-22.49c.1,1.29.02,1.1-1.03,1.1-4.25.01-8.5.03-12.75.04-.3,0-.6-.03-.9,0-.55.04-.69-.22-.71-.73-.11-2.4-.25-4.81-.39-7.38-.07-2.08-.16-4.34-.22-6.59-.03-.95,0-.97.87-.96,4.29.07,8.58.14,12.87.21.38,0,.73-.04.78.53.39,4.61,1.14,9.17,1.5,13.78ZM66.74-52.75c0-.58.18-.77.76-.78,4.33-.06,8.65-.15,12.98-.22.97-.02.97,0,.89.91-.39,4.5-.63,9-.44,13.52,0,.15,0,.3.02.45.04.37-.1.58-.5.56-.15,0-.3,0-.45,0-4.18-.03-8.35-.05-12.53-.09-.92,0-.93-.02-.94-.93,0-2.22,0-4.44,0-6.66.07,0,.15,0,.22,0,0-2.26.02-4.51-.01-6.77ZM67.27-70.15c4.4-.19,8.77-.76,13.18-.73,1.42,0,1.2-.14,1.27,1.28.19,4.21.05,8.43-.09,12.64-.05,1.66-.05,1.64-1.66,1.67-3.95.07-7.9.15-11.85.23-.26,0-.53-.01-.79,0-.46.04-.57-.2-.57-.61.02-1.47.02-2.94.03-4.4,0-.83,0-1.66,0-2.36-.09-2.38-.16-4.64-.27-6.89-.03-.57.15-.79.75-.82ZM66.78,14.67c4.55-.06,9.09-.15,13.64-.22.77-.01.78.02.78.84,0,2.29,0,4.58,0,6.87,0,0-.01,0-.02,0,0,2.29,0,4.58,0,6.87,0,.84-.01.86-.88.86-4.51-.02-9.02-.06-13.53-.09-.88,0-.9-.02-.89-.86.06-4.51.15-9.01.21-13.52,0-.51.13-.74.69-.74ZM66.78,62.81c2.86.07,5.71.17,8.56.26,1.5.04,3.01.08,4.51.1.5,0,.73.12.75.69.18,4.39.39,8.78.59,13.17,0,.11,0,.23,0,.34-.01.84-.01.86-.87.88-4.59.11-9.16.37-13.73.76-.9.08-.93.06-.93-.9-.02-2.4,0-4.81,0-7.21-.03,0-.06,0-.08,0,0-2.29,0-4.58,0-6.88,0-1.37-.11-1.24,1.2-1.21ZM65.62,60.85c.06-3.98.14-7.97.19-11.95,0-.59.2-.75.79-.74,2.26.04,4.51.01,6.77.01v-.07c2.26,0,4.51,0,6.77,0,.83,0,.85.02.8.81-.31,4.09-.48,8.18-.4,12.28.01.64-.26.74-.8.73-2.63-.05-5.26-.08-7.9-.12-1.8-.03-3.61-.08-5.41-.12-.8-.02-.82-.03-.81-.82ZM81.04,45.88c-.05.89-.04.9-.84.91-4.44.01-8.88.03-13.32.03-1.02,0-1.03-.02-1.03-1.06,0-2.29,0-4.59,0-6.88h0c0-2.26,0-4.51,0-6.77,0-.95.01-.96,1-.94,4.48.07,8.95.15,13.43.22.89.02.9.03.91.96.04,4.51.1,9.03-.15,13.54ZM65.86-6.99c-.03,1.05-.04,2.1-.14,3.15-.04.44-.23.59-.62.6-.75.03-1.5.08-2.25.11-4.18.14-8.35-.12-12.51-.47-.85-.07-.87-.08-.87-.94,0-2.48,0-4.96,0-7.44.04,0,.09,0,.13,0,.06-2.44.13-4.89.2-7.33.03-.96.03-.96,1.02-.98,4.74-.06,9.48-.01,14.21.22.84.04.84.04.88.89.16,4.06.09,8.12-.03,12.18ZM64.87-21.4c-2.37-.05-4.74-.12-7.46-.2-2.01-.02-4.38,0-6.75.09-.83.04-.85.01-.85-.75-.05-4.62-.21-9.24-.13-13.87,0-.15,0-.3,0-.45.05-.79.05-.82.87-.78,2.93.15,5.86.1,8.8.17,1.54.03,3.08.04,4.62.07,1.12.02,1.12.03,1.15,1.1.05,2.14.09,4.28.24,6.42.17,2.4.28,4.8.42,7.2.06,1,.07,1.01-.92.99ZM49.69-52.8c-.04-.85,0-.88.87-.86,2.33.05,4.66.2,6.99.19,2.33,0,4.66,0,6.99,0,.8,0,.83.02.8.82-.19,4.47-.17,8.94-.23,13.41-.01.82-.03.84-.81.83-4.55-.06-9.09-.13-13.64-.21-.86-.01-.87-.04-.87-.89.01-4.43.1-8.86-.1-13.3ZM50.39-70.35c4.65.44,9.31.63,13.98.39.99-.05.99-.03,1,.95.05,4.33.14,8.65.02,12.98-.03.97-.02.98-1,.98-2.3,0-4.59,0-6.89,0-2.33-.07-4.67-.12-7-.2-.85-.03-.87-.04-.88-.9-.09-4.44-.17-8.88-.24-13.32-.02-.97,0-.98,1.01-.89ZM48.8,15.22c.15,1.91.13,3.83.16,5.74.04,2.55.03,5.11.02,7.66,0,.88-.02.89-.86.85-4.43-.19-8.86-.39-13.28-.58-.92-.04-.93-.04-.96-.93-.13-3.64-.25-7.28-.39-10.92-.03-.75-.08-1.5-.14-2.25-.04-.51.08-.75.68-.69,2.32.21,4.65.16,7.88.22,1.43.04,3.76.11,6.09.14.56,0,.76.18.81.76ZM48.9,71.32h0c0,2.44,0,4.89,0,7.33,0,.87-.02.9-.87.85-4.5-.25-9.01-.49-13.52-.43-.51,0-.74-.12-.73-.69.03-4.89.02-9.77.04-14.66,0-.92.03-.94.96-.9,4.02.17,8.04.29,12.06.27.63,0,1.43-.29,1.86.09.49.44.18,1.27.18,1.93.03,2.07,0,4.13,0,6.2ZM33.95,49.33c0-.62.24-.75.8-.75,4.36-.03,8.71-.34,13.06-.58,1.03-.06,1.05-.04,1.05.92.02,4.06.03,8.12.04,12.17,0,.83-.02.84-.89.85-2.22,0-4.43,0-6.54,0-2.33-.09-4.55-.18-6.76-.24-.56-.01-.81-.16-.79-.77.12-3.87.07-7.74.03-11.61ZM48.83,40.12c-.02,1.96-.05,3.91-.05,5.87,0,.56-.15.78-.76.81-4.36.19-8.71.54-13.08.61-1,.02-1.02.02-1.02-.94-.01-2.6,0-5.19,0-7.79h-.03c0-2.56,0-5.12,0-7.68,0-.86.02-.89.89-.85,3.68.16,7.37.33,11.05.49.79.04,1.58.1,2.37.09.61-.01.76.25.75.81-.06,2.86-.09,5.72-.13,8.58ZM34.19-70.97c.02-.79.04-.81.85-.74,4.08.36,8.15.73,12.23,1.09.76.07.78.08.78.89.02,3.49.03,6.99.04,10.48,0,.94.03,1.88.06,2.82.03,1.13.03,1.14-1.07,1.11-1.43-.04-2.85-.09-4.28-.14-2.59-.09-5.18-.03-7.77-.2-.9-.06-.87-.04-.87-.89,0-2.4,0-4.81,0-7.21-.05,0-.11,0-.16,0,.06-2.4.11-4.81.18-7.21ZM34.04-44.69c.18-2.78.16-5.56.17-8.34,0-.99,0-.99,1.05-.97,3.87.08,7.74.16,11.61.25.08,0,.15,0,.23,0,1.11.02,1.13.02,1.13,1.1.01,2.18,0,4.36,0,6.54h.04c0,2.14,0,4.28,0,6.42,0,1.18-.12.96-1.01.92-4.24-.18-8.48-.37-12.72-.52-.59-.02-.79-.21-.75-.79.11-1.54.15-3.08.25-4.61ZM33.1-21.91c.07-2.44.16-4.89.25-7.68.09-2.28.19-4.91.32-7.54.04-.92.08-.94.98-.91,3.72.16,7.44.33,11.16.5.56.03,1.13.1,1.69.07.61-.03.75.24.75.8-.01,3.16,0,6.32.02,9.48,0,1.66.05,3.31.06,4.97,0,.79-.02.78-.82.83-4.39.27-8.79.54-13.19.64-1.44.03-1.25.09-1.21-1.15ZM34.08-19.59c4.44-.03,8.87-.33,13.3-.58.91-.05.92-.05.9.9-.04,2.41-.09,4.81-.13,7.22-.05,0-.09,0-.14,0,0,2.44,0,4.89,0,7.33,0,.92-.02.92-.84.84-4.49-.41-8.98-.82-13.48-1.23-.82-.07-.85-.08-.83-.81.08-4.21-.07-8.42.12-12.63.05-1.01.06-1.03,1.1-1.04ZM16.31-71c0-1.16.05-.99.96-1.06,2.48-.19,4.96-.16,7.44-.16,2.41-.03,4.81.17,7.22.28.86.04.86.07.84.93-.11,4.66-.19,9.32.08,13.98,0,.08,0,.15,0,.23q.03,1.09-1.01,1.03c-1.43-.07-2.86-.12-4.28-.23-3.38-.25-6.77-.21-10.15-.19-1.07,0-1.14.2-1.14-1.06.02-4.59.03-9.18.05-13.76ZM16.2-46.71c0-2.29,0-4.59,0-6.88,0-.96.02-.96.9-.99,5.05-.14,10.08.14,15.12.43.55.03.7.23.7.74.03,4.44.11,8.88-.17,13.31-.03.55-.15.8-.77.79-4.41-.07-8.79.44-13.19.53-.6.01-1.2.03-1.81.02-.87,0-.89-.01-.89-.85-.01-2.37-.13-4.74.12-7.11ZM31.07-19.54c1.01,0,1.02,0,1,.94-.1,4.13-.19,8.27-.29,12.4-.02.93-.03.93-.93.88-4.55-.25-9.09-.3-13.64-.03-.19.01-.38,0-.56.03-.58.11-.69-.18-.7-.69-.03-1.8-.12-3.61-.16-5.41-.06-2.44-.09-4.89-.12-7.33,0-.86.02-.86.87-.86,2.44,0,4.89,0,7.33,0,0,.02,0,.05,0,.07,2.41,0,4.81,0,7.22,0ZM15.9,21.94c-.14-2.77-.27-5.1-.38-7.43-.04-.86-.02-.87.83-.89,5.04-.14,10.08.06,15.11.38.62.04.72.32.73.84.07,2.63.18,5.26.26,7.89.06,1.8.08,3.61.14,5.41.02.53-.15.74-.7.74-4.86-.05-9.69.55-14.54.56-1.68,0-1.45.23-1.45-1.4,0-2.18,0-4.36,0-6.1ZM15.78.57c.06-1.2.14-2.4.15-3.6,0-.54.12-.78.74-.82,4.77-.3,9.54-.22,14.31.04.59.03.79.24.75.81-.07,1.09-.12,2.18-.13,3.26-.06,3.65.21,7.28.39,10.92.02.37.12.74-.1,1.22-5.25-.34-10.47-.53-15.69-.37-.63.02-.74-.23-.75-.77-.07-3.57.15-7.14.34-10.7ZM15.23,78.41c.06,1.7.2,1.48-1.49,1.5-4.29.05-8.57-.23-12.85-.43-.93-.04-.95-.06-.95-1.07,0-2.41,0-4.81,0-7.22h0c0-2.41,0-4.81,0-7.22,0-.88.02-.89.86-.94,4.32-.25,8.64-.47,12.96-.47,1.16,0,1.13-.13,1.13,1.07,0,4.93.14,9.85.33,14.77ZM.75,48.1c3.58-.03,7.14.21,10.72.29.83.02,1.65.08,2.48.08.58,0,.8.24.8.8.02,1.81.09,3.61.12,5.41.03,1.96.03,3.91.02,5.87,0,.81-.03.83-.82.83-3.61.03-7.22.13-10.83.31-.86.04-1.73.08-2.59.16-.56.06-.72-.15-.71-.69.02-2.07,0-4.14,0-6.21,0-1.96-.17-3.91-.25-5.86-.04-1.06-.11-.99,1.04-1ZM-.38,45.97c-.2-3.46-.01-6.91.14-10.36.06-1.35.12-2.7.18-4.05.04-.82.04-.85.81-.81,4.28.26,8.56.22,12.84.23.82,0,.82.02.82.91,0,2.4,0,4.81,0,7.21.01,0,.02,0,.03,0,.06,2.44.12,4.88.17,7.32.02.92,0,.91-.91.88-4.36-.12-8.71-.24-13.07-.36-.96-.03-.97-.02-1.02-.98ZM14.79-40c0,.26,0,.53,0,.79.01.34-.17.47-.48.46-.11,0-.23,0-.34,0-4.21,0-8.42.04-12.63-.11-1.65-.06-1.66-.08-1.65-1.75.04-4.17-.14-8.34-.21-12.51,0-.26,0-.53,0-.79-.02-.37.14-.56.52-.55.26,0,.53,0,.79,0,4.44.01,8.87.11,13.31-.07.8-.03.8-.02.8.77,0,2.37,0,4.73,0,7.1-.36,2.22-.09,4.43-.11,6.65ZM-.18-70.32c.01-.54.12-.78.75-.81,4.51-.24,9.01-.52,13.51-.79.96-.06.97-.05.97.96,0,2.33,0,4.66,0,6.99h-.04c0,2.33,0,4.66,0,6.99,0,.81-.03.82-.8.85-4.66.16-9.33.05-13.99.02-.61,0-.76-.23-.74-.8.13-4.47.24-8.94.34-13.42ZM-.79-22.6c0-2.26.11-4.51.25-6.76.15-2.4.19-4.81.22-7.22.01-.88.03-.91.85-.87,4.47.27,8.95.23,13.42.24.83,0,.84.02.86.89.1,4.29-.05,8.57-.33,12.85-.04.64-.09,1.28-.07,1.92.02.55-.19.7-.73.68-2.03-.09-4.06-.09-6.09-.19-2.37-.12-4.74-.13-7.11-.17-1.4-.03-1.29.18-1.28-1.37ZM14.58-6.17c0,.99,0,.99-.95,1.04-4.35.24-8.71.49-13.06.73-.87.05-.87.04-.9-.79-.08-2.37-.16-4.73-.27-8.02-.07-1.37-.2-3.66-.2-5.96,0-.91,0-.91.92-.92,4.48-.04,8.94.26,13.42.36.81.02.84.05.83.82-.06,4.25.22,8.49.21,12.74ZM-.82,11.26c.01-1.84,0-3.69.11-5.53C-.56,3.14-.4.56-.33-2.04c.02-.84.03-.84.87-.89,4.39-.26,8.78-.52,13.18-.78.85-.05.88-.05.84.86-.06,1.62-.12,3.23-.24,4.84-.24,3.04-.25,6.09-.22,9.13,0,.92,0,.95-.9.95-2.22.01-4.44,0-6.66,0h0c-2.18,0-4.36,0-6.55-.01-.79,0-.83-.02-.82-.81ZM.26,13.72c2.14,0,4.29,0,6.43,0,0,0,0-.02,0-.03,2.22,0,4.44,0,6.66,0,.79,0,.79-.01.84.78.26,4.65.5,9.31.28,13.97-.05.98-.04.99-.99.99-4.02,0-8.05.05-12.07-.11-1.64-.07-1.38.01-1.38-1.45.01-4.4-.19-8.79-.67-13.17-.11-1.03-.03-.98.91-.98ZM14.7,129.57c-1.09.03-2.18.04-3.27.05-3.5.03-6.99.19-10.48.4-1.06.07-1.07.05-1.05-.95.09-4.77.28-9.54.21-14.31,0-.18-.02-.38.16-.58,2.31.2,4.66.41,7.01.61,2.43.2,4.87.4,7.3.59.79.06.81.06.8.84-.06,4.06-.01,8.12.11,12.17,0,.11,0,.23,0,.34-.02.81-.02.82-.8.84ZM15.76,98.78c0,2.33,0,4.66,0,7-.04,0-.09,0-.13,0-.05,2.33-.09,4.66-.14,6.99-.02,1.13-.03,1.16-1.12,1.08-2.48-.17-4.95-.35-7.43-.55-2.02-.17-4.04-.38-6.06-.57-.83-.08-.84-.08-.89-.93-.26-4.47-.5-8.94-.49-13.41,0-.19,0-.38,0-.56-.02-.37.14-.57.53-.55.19,0,.38,0,.56.01,4.74.07,9.48.15,14.21.46,1.04.07.96.04.96,1.04ZM15.77,95.67c.01.38-.14.53-.54.5-1.35-.09-2.7-.14-4.06-.22-1.13-.06-2.25-.12-3.38-.18,0-.04,0-.08,0-.12-2.41,0-4.81.01-7.22,0-1.07,0-1.08-.04-1.05-1.04.13-4.36.27-8.72.41-13.08.03-.81.04-.83.84-.78,4.58.26,9.16.49,13.76.42.58,0,.78.17.8.76.2,4.43.46,8.86.44,13.3,0,.15,0,.3,0,.45ZM15.87,31.99c.02-1,.02-1,.96-1.03,4.02-.15,8.03-.48,12.05-.73.9-.06,1.8-.09,2.71-.09,1-.01,1.02,0,1.01.97-.01,1.54-.05,3.08-.07,4.62-.01,1.05,0,2.11,0,3.16.03,0,.06,0,.09,0,0,2.56,0,5.11,0,7.67,0,.88,0,.9-.84.9-4.85,0-9.71-.02-14.56-.05-1.03,0-1.13.2-1.17-1.1-.15-4.77-.25-9.55-.18-14.33ZM32.26,128.91c0,.9-.02.9-.97.86-2.22-.08-4.43-.15-6.83-.23-2.07,0-4.33,0-6.59,0-.79,0-.8-.01-.82-.81-.06-4.14-.14-8.27-.02-12.41.02-.84.03-.87.79-.83,4.33.24,8.64-.06,12.96-.29,1.63-.09,1.38-.21,1.45,1.3.19,4.13.03,8.27.04,12.4ZM17.22,98.59c0-.46.04-.77.67-.72,4.13.3,8.26.2,12.39.12.19,0,.38,0,.56,0,1.1,0,1.11,0,1.1,1.08-.03,1.88-.07,3.76-.11,5.63-.06,2.71.1,5.41.19,8.11.03.87.02.9-.82.95-4.47.27-8.93.42-13.41.29-.62-.02-.75-.25-.75-.8.02-2.44,0-4.88,0-7.33.05,0,.11,0,.16,0,0-2.44,0-4.88,0-7.33ZM32.22,88.4s0,0,0,0c-.08,2.33-.15,4.65-.23,6.98-.03.92-.03.96-.93.98-3.94.11-7.89.19-11.83-.04-.66-.04-1.56.26-1.92-.27-.32-.47-.12-1.31-.14-1.98-.13-3.94-.26-7.88-.39-11.82,0-.23-.02-.45-.03-.68-.02-.33.14-.48.46-.49.64-.03,1.27-.09,1.91-.13,4.13-.23,8.25-.43,12.39-.36.9.01.92.02.9.93-.06,2.29-.13,4.58-.2,6.87ZM32.56,63.79c-.12,2.63-.04,5.26-.03,7.9,0,2.22-.05,4.44-.04,6.65,0,.64-.29.73-.83.72-2.71-.06-5.42.07-8.12.25-1.99.13-3.98.28-5.96.41-.91.06-.91.04-.94-.89-.08-2.59-.15-5.19-.26-8.94,0-1.4,0-3.96,0-6.51,0-.79.02-.81.81-.81,4.81,0,9.63-.06,14.44.19.98.05.98.06.93,1.04ZM32.63,60.63c0,.99-.02,1.01-1,.97-4.77-.23-9.54-.25-14.31-.24-.93,0-.95,0-.94-.91.04-3.61-.11-7.21-.21-10.82-.03-1.05-.01-1.04,1.01-1.04,2.4,0,4.81,0,7.21,0v.06c2.44,0,4.88,0,7.33,0,.91,0,.92.01.92.94,0,3.68,0,7.36,0,11.04ZM32.42-29.39h.01c-.08,2.63-.17,5.26-.23,7.89-.01.56-.15.79-.76.79-5-.01-10,.05-15-.08-.77-.02-.8-.04-.77-.87.09-2.86.19-5.71.33-8.56.1-1.99.1-3.98.1-5.98,0-1,0-1,.95-1.04,4.02-.16,8.03-.48,12.04-.74.94-.06,1.88-.03,2.82-.09.62-.04.76.22.74.79-.1,2.63-.16,5.26-.23,7.89ZM32.79-2.51c0-.19.02-.38.01-.56-.03-.46.2-.58.62-.54,1.5.12,3,.21,4.5.34,3.03.27,6.06.56,9.1.83.97.09.97.08,1,1.03.1,4.47.3,8.94.63,13.41.06.87.06.9-.81.88-2.29-.05-4.59-.13-6.88-.21-2.26.04-4.51-.07-6.77-.17-.97-.04-1-.05-1.05-1.03-.24-4.66-.59-9.31-.35-13.97ZM48.01,98.81c-.08,1.58-.15,3.16-.27,4.73-.21,2.74-.23,5.49-.25,8.23,0,1.07,0,1.06-1.01,1.12-4.06.22-8.11.45-12.17.68-1.05.06-.95.03-1.03-.94-.19-2.33-.17-4.66-.06-6.99,0-2.26-.01-4.51,0-6.77,0-.92.03-.95.94-.95,2.75,0,5.49.02,8.24.04,1.62,0,3.24.01,4.85.03.78,0,.79.02.75.83ZM48.6,91.75c-.08,1.31-.23,2.62-.32,3.93-.03.51-.18.73-.74.71-4.51-.14-9.02-.12-13.53-.11-.72,0-.74-.02-.72-.77.06-2.33.14-4.66.21-6.98.07-2.37.14-4.73.22-7.1.03-.81.04-.82.8-.83,4.55-.06,9.09.12,13.64.31.51.02.73.15.73.71.01,3.38-.1,6.76-.31,10.14ZM64,104.41c-.17,2.4-.39,4.79-.43,7.2-.02.86-.03.88-.88.89-4.32.08-8.65.16-12.97.23-.79.01-.79,0-.81-.8-.05-3.27.18-6.54.33-9.8.05-1.16.16-2.32.22-3.49.02-.45.19-.67.68-.66,4.66.11,9.32-.22,13.98-.19.03,0,.07.02.26.08-.13,2.19-.24,4.36-.39,6.53ZM64.53,95.58c-.06.83-.05.85-.92.85-3.76,0-7.53,0-11.29,0-.68,0-1.36-.03-2.03,0-.51.02-.63-.19-.59-.68.19-2.29.38-4.57.53-6.87,0-2.33,0-4.66,0-7,0-.87.02-.88.86-.87,4.14.07,8.27-.16,12.4-.44.87-.06.91-.07.93.79.13,4.74.44,9.47.1,14.21ZM64.57,45.71c0,1.08-.01,1.09-1.01,1.06-4.17-.12-8.35-.29-12.53-.09-.79.04-.82,0-.82-.8-.01-2.37,0-4.74,0-7.11.07,0,.13,0,.2,0,0-2.37-.01-4.74,0-7.11,0-.81.04-.82.83-.8,4.03.07,8.05.14,12.08.21.19,0,.38.02.56.01.56-.04.71.25.68.76-.03.56-.01,1.13-.01,1.69,0,4.06.02,8.13.02,12.19ZM50.23,71.17c0-2.45,0-4.89,0-7.34,0-.42-.06-.82.59-.82,3.5-.03,6.99-.41,10.49-.35.75.01,1.5.09,2.26.07.62-.01.73.26.72.82-.04,2.18-.03,4.36-.03,6.55,0,2.71.03,5.42.04,8.13,0,.95,0,.97-.87,1.02-3.94.26-7.89.45-11.84.36-.23,0-.45-.04-.68-.02-.55.04-.7-.23-.69-.74.02-2.56,0-5.12,0-7.67h0ZM63.52,61.63c-4.06-.14-8.12.13-12.18.28-.19,0-.38,0-.56,0-.37.03-.57-.12-.55-.51.01-.19,0-.38,0-.56,0-3.99,0-7.97,0-11.96,0-.97,0-.98.98-.98,2.07,0,4.14,0,7.11,0,1.24,0,3.38.09,5.52.19.53.03.72.17.71.72-.07,2.74-.11,5.49-.16,8.23-.02,1.28-.09,2.56-.08,3.83,0,.6-.23.77-.8.75ZM64.6,27.69c0,.19-.01.38-.02.56-.04,1.72.22,1.52-1.61,1.5-3.61-.04-7.22-.09-10.83-.14-.3,0-.6,0-.9-.03-.77-.05-.78-.05-.79-.87,0-2.26,0-4.51,0-7.13-.06-1.82-.13-4-.19-6.18-.02-.88,0-.92.83-.88,4.32.19,8.65.2,12.97.17.65,0,.73.28.72.81-.07,4.06-.13,8.12-.19,12.18ZM64.14,13.14c-4.44.03-8.87-.03-13.3-.17-.59-.02-.76-.25-.78-.81-.1-2.29-.23-4.58-.39-7.61-.05-1.47-.12-3.69-.18-5.91-.02-.87,0-.89.88-.8,2.62.25,5.25.39,7.88.47,2.11.07,4.21-.03,6.31-.09,1.09-.03,1.09-.03,1.03,1-.29,4.35-.53,8.7-.65,13.06-.02.84-.03.86-.79.86ZM80.69,98.35c-.25,4.39-.38,8.79-.46,13.19-.02,1.01-.04,1.02-1.11.98-2.18-.1-4.36-.21-6.47-.31-2.28.09-4.5.18-6.72.25-.98.03-1.01,0-.96-.98.15-2.67.34-5.33.51-7.99.11-1.65.23-3.3.35-4.95.06-.84.06-.86.91-.87,2.86-.04,5.72-.07,8.58-.1,1.5-.02,3.01-.05,4.51-.06.89,0,.91.01.86.85ZM81.07,87.48c-.11,3.03-.2,5.55-.3,8.06-.03.84-.03.85-.9.85-4.36.01-8.72.02-13.08.01-.81,0-.85-.03-.81-.69.25-4.77.04-9.54-.15-14.31,0-.15,0-.3-.02-.45-.07-.46.18-.6.57-.63.94-.08,1.87-.18,2.81-.24,3.67-.26,7.34-.56,11.03-.57,1.01,0,1.02,0,1.02,1.05,0,2.48-.03,4.96-.17,6.92ZM81.78-1.31c-.17,2.59-.25,5.18-.35,7.77-.07,1.88-.12,3.76-.19,5.64-.03.76-.04.77-.86.78-2.22,0-4.44,0-6.66,0,0,.08,0,.16,0,.24-2.22,0-4.44,0-6.65,0-.84,0-.87-.01-.84-.77.14-4.51.41-9.01.65-13.52.03-.55.19-.79.78-.82,4.28-.19,8.54-.74,12.84-.71,1.44.01,1.39-.24,1.28,1.39ZM82.03,64.38c0-.19,0-.38-.03-.56-.06-.44.14-.61.57-.6.71.02,1.43.01,2.14.01,1.96,0,3.91,0,5.87,0v.07c2.56,0,5.12,0,7.68,0,.86,0,.89.04.82.9-.36,4.43-.56,8.86-.5,13.3.01.79-.02.82-.81.82-4.78.02-9.56.06-14.34-.08-.83-.02-.85-.04-.86-.9-.06-4.33-.35-8.64-.54-12.96ZM98.8,96.27c-1.92.02-3.84.08-5.75.12-.71.01-1.43,0-2.14,0h0c-2.56,0-5.12,0-7.68,0-.85,0-.87-.02-.86-.88.08-4.48.17-8.95.25-13.43.01-.64.02-1.28,0-1.92-.02-.48.13-.69.64-.67.6.03,1.2.01,1.81.02,4.1.04,8.2.07,12.3.11.11,0,.23,0,.34,0,.88.02.87.02.91.96.05,1.28.12,2.55.17,3.83.14,3.57.42,7.13.7,10.69.01.15,0,.3.02.45.1.57-.18.69-.7.7ZM99.76,56.6c0,1.58-.23,3.14-.38,4.71-.06.65-.34.79-.93.77-3.19-.07-6.39-.1-9.59-.14-2.07-.02-4.14-.04-6.2-.02-.57,0-.78-.16-.79-.76-.06-4.14,0-8.27.22-12.4.03-.58.27-.68.76-.66,2.37.1,4.73.19,7.1.28.38.01.75,0,1.13,0,2.63.04,5.26-.13,7.89-.28.78-.05.87-.15.86.82-.04,2.56-.05,5.11-.07,7.67ZM99.07,46.78c-3.45.28-6.9.54-10.36.39-1.91-.08-3.83-.22-5.74-.31-.52-.02-.8-.11-.77-.77.21-4.54.15-9.09.15-13.64,0-.15.01-.3,0-.45-.04-.44.17-.59.6-.57,1.01.04,2.03.04,3.04.07,1.69.05,3.38.12,5.07.18,0-.02,0-.04,0-.06,2.63.07,5.26.13,7.89.2.95.03.97.04.99.92.08,4.36.1,8.72-.02,13.08-.02.89-.04.9-.85.96ZM114.85,94.89c-.02.89-.02.89-.83.92-3.91.14-7.81.27-11.72.41-.15,0-.3,0-.45,0q-.94,0-.99-.89c-.04-.68-.07-1.35-.12-2.03-.12-1.8-.24-3.6-.38-5.64-.11-2.16-.24-4.56-.36-6.96-.05-1.03-.04-1.03.92-1.02,4.51.06,9.01.35,13.51.71.76.06.76.07.74.86-.11,4.55-.22,9.09-.33,13.64ZM115.63,71.33c-.04,2.26-.26,4.51-.31,6.76-.02.87.22,1.03-1.11.94-2.7-.19-5.4-.37-8.1-.52-1.73-.09-3.46-.12-5.18-.17-.94-.03-.95-.03-.96-.9-.08-4.36.16-8.71.49-13.06.08-1.04.1-1.04,1.15-1.01,4.4.11,8.79.23,13.19.34.86.02.84.02.84.86,0,2.25,0,4.51,0,6.76ZM115.76,61.66c-.02.64-.29.74-.83.73-2.86-.06-5.72-.09-8.58-.14-1.54-.03-3.08-.07-4.63-.12-.33,0-.68.08-1.04-.18.66-4.34.42-8.74.56-13.14.03-.88.03-.87.96-.94,3.45-.26,6.9-.54,10.35-.8.82-.06,1.65-.04,2.48-.08.49-.02.65.19.65.67.03,4.66.18,9.33.07,13.99ZM115.93,32.39c-.2,4.17-.14,8.34-.22,12.51,0,.46-.04.77-.65.78-4.17.06-8.32.56-12.48.83-1.45.09-1.3.19-1.27-1.17.05-2.07.14-4.13.19-5.56-.03-2.74.04-4.84-.09-6.94-.06-.95-.04-.96.98-.95,2.71.03,5.41.08,8.12-.04,1.54-.07,3.08-.17,4.61-.24.8-.03.84-.01.8.79ZM115.22,30.04c-4.21.22-8.41.58-12.63.34-.15,0-.3,0-.45-.01-.79-.04-.79-.05-.85-.81-.12-1.57-.26-3.15-.38-4.72-.23-2.85-.45-5.7-.67-8.55-.03-.34-.04-.68-.04-1.01,0-.8,0-.81.77-.84,1.5-.06,3.01-.11,4.51-.14.87-.02,1.73,0,2.6,0h0c2.33,0,4.67-.01,7,0,.87,0,.89.02.89.85,0,4.66,0,9.33,0,13.99,0,.85-.02.87-.75.91ZM115.02,12.66c-2.33,0-4.66,0-7.16,0-2.16.06-4.49,0-6.82.19-.92.07-.93.05-.98-.88-.2-4.1-.06-8.19.09-12.28.02-.56.05-1.13.04-1.69,0-.43.18-.62.61-.6.22,0,.45,0,.68,0,4.44.04,8.87.08,13.31.13.76,0,.77.02.82.82.27,4.46.39,8.93.37,13.4,0,.9-.02.91-.95.92ZM133.76-70.2c0-.11.05-.22.09-.35.89-.14,1.79-.05,2.69-.05,3.72.01,7.44.04,11.16.07.26,0,.53.01.79.01.31,0,.5.12.49.47,0,.19,0,.38,0,.56-.02,4.43-.03,8.86-.05,13.3,0,.23-.01.45-.01.68,0,.37-.16.56-.53.56-.23,0-.45,0-.68,0-4.51-.04-9.01-.34-13.51-.52-.54-.02-.81-.14-.79-.76.14-4.66.24-9.31.36-13.97ZM148.72-39.29c0,.23,0,.45,0,.68-.02.84-.02.86-.9.86-3.16.02-6.32-.14-9.48-.24-1.2-.04-2.41-.09-3.61-.13-1.32-.05-1.12-.05-1.12-1.23,0-2.26,0-4.51,0-6.77-.07,0-.14,0-.2,0,0-2.29,0-4.59,0-6.88,0-.91.01-.94.93-.9,4.06.14,8.12.3,12.18.45.53.02,1.06.04,1.58,0,.57-.04.71.21.7.73-.06,1.96-.04,3.91-.15,5.87-.14,2.52.1,5.04.07,7.56ZM133.44-30.75c.07-1.69.12-3.38.14-5.08.01-.96.02-.98,1.02-.95,2.71.08,5.41.18,8.12.25,1.73.04,3.46.04,5.19.07.81.01.83.02.84.81.07,4.03-.08,8.05-.33,12.06-.03.49-.1.98-.07,1.46.04.62-.25.74-.8.73-2.26-.02-4.51,0-6.77,0,0-.04,0-.07,0-.11-2.18-.08-4.36-.15-6.54-.24-1.17-.05-1.09.08-1.1-1.12-.02-2.64.2-5.26.31-7.89ZM134.11-20.45c4.47.19,8.94.44,13.41.43.56,0,.8.13.79.75-.09,4.77.24,9.54.2,14.32-.01,1.32.24,1.3-1.26,1.28-2.18-.03-4.36-.07-6.54-.09-2.07-.02-4.14,0-6.2-.02-.88,0-.88-.02-.91-.84-.08-2.52-.15-5.03-.24-8-.11-1.99-.23-4.43-.23-6.87,0-.97,0-.99.98-.95ZM116.9-69.84c.03-.82.03-.83.9-.87,3.64-.14,7.29-.09,10.93.01.83.02,1.65.03,2.48.04,1.14.01,1.07-.07,1.05,1.13-.06,2.85-.13,5.71-.18,8.56-.03,1.54-.02,3.08-.03,4.62,0,.79-.02.82-.82.8-2.29-.06-4.58-.08-6.87.02-2.18,0-4.36,0-6.54,0-.92,0-.94,0-.95-.91-.04-4.47-.15-8.94.04-13.41ZM116.71-45.69c.16-2.44.16-4.88.18-7.33,0-.87.02-.88.86-.89,4.48-.03,8.95-.05,13.43-.06.86,0,.87.02.9.73.16,4.66.27,9.32.18,13.98,0,.15-.02.3,0,.45.03.44-.17.61-.6.59-.75-.04-1.5-.06-2.26-.06-1.73,0-3.46,0-5.19,0v.02c-2.37,0-4.74-.02-7.11.02-.55,0-.73-.13-.7-.68.12-2.25.18-4.51.32-6.76ZM116.48-29.68h-.15c0-2.07,0-4.13,0-6.2,0-.8.03-.83.81-.84,4.74-.12,9.47-.15,14.21-.11.85,0,.88.03.85.89-.09,2.55-.21,5.11-.3,7.66-.06,1.88-.09,3.76-.15,5.63-.02.79-.03.82-.83.8-2.85-.1-5.71-.23-8.56-.35-1.31-.06-2.63-.13-3.94-.2-1.92-.11-1.92-.11-1.93-1.98,0-1.77,0-3.53,0-5.3ZM131.74,11.79c.04.86.02.89-.85.85-4.21-.15-8.42.07-12.63.02-1.01-.01-1.02,0-1.04-.95-.09-4.43-.11-8.87-.33-13.29-.05-.9-.02-.93.89-.94,2.25-.02,4.51,0,6.76,0,0,.02,0,.04,0,.06,2.25,0,4.51,0,6.76,0,.89,0,.92.02.89.85-.07,2.03-.18,4.05-.28,6.08-.13,2.44-.29,4.87-.18,7.32ZM116.61-9.3c-.01-1.13,0-2.26,0-3.38-.02,0-.04,0-.07,0,0-2.52,0-5.04,0-7.56,0-.88.02-.9.88-.87,1.65.06,3.31.16,4.96.23,2.78.12,5.56.24,8.34.35,1,.04,1,.03,1.03.97.14,4.77.29,9.55.43,14.32,0,.19.01.38.01.56,0,.85,0,.86-.88.84-3.87-.09-7.75-.22-11.62-.16-.64,0-1.28.03-1.92.04-1.03.02-1.04.01-1.07-1.06-.04-1.43-.07-2.86-.09-4.29ZM131.65,79.17c-2.37.03-4.73.11-7.1.17-2.33.01-4.66.03-6.99-.1-.87-.05-.91-.06-.86-.89.29-4.5.12-9.02.32-13.52,0-.11.02-.23.01-.34-.05-.58.19-.77.79-.76,2.29.07,4.58.08,6.88.13,2.25.04,4.51.09,6.76.15.79.02.81.04.81.84,0,4.51-.04,9.02.13,13.52.02.59-.15.79-.75.8ZM117.31,54.41c-.19-1.93-.21-4.18-.21-6.44,0-.92.01-.93.94-.88,4.43.25,8.85.47,13.29.56.58.01.76.2.79.77.22,4.51.14,9.01.17,13.52,0,.54-.15.7-.71.69-4.51-.09-9.02-.15-13.53-.23-.95-.02-.97-.04-.92-1.04.13-2.21.2-4.43.17-6.97ZM132.5,32.5c-.12,3.04-.44,6.07-.46,9.11,0,1.31,0,2.63,0,3.94,0,.78,0,.8-.81.79-2.97-.04-5.93-.19-8.9-.36-1.5-.09-3-.18-4.5-.23-.59-.02-.75-.24-.74-.81.07-4.21-.02-8.41.19-12.62.04-.86.04-.89.88-.89,2.25-.02,4.51,0,6.76,0v-.08c2.18,0,4.36,0,6.54,0,1.08,0,1.09.02,1.04,1.14ZM132.6,28.93c0,.11-.03.23-.02.34.07.64-.27.73-.82.71-4.54-.14-9.09-.14-13.64-.09-.79,0-.8,0-.81-.8,0-2.33,0-4.66,0-6.99h-.05c0-2.33,0-4.66,0-6.99,0-.81.02-.83.8-.83,4.32-.03,8.64-.04,12.96-.08.59,0,.88.16.94.78.48,4.64.78,9.28.63,13.94ZM133.2,5.95c.15-2.52.31-5.03.39-7.55.03-.82.04-.82.92-.83,2.18,0,4.37,0,6.55,0,0,.03,0,.06,0,.08,2.18,0,4.37-.01,6.55,0,.87,0,.87.03.82.91-.28,4.47-.51,8.94-.38,13.42,0,.19-.02.38,0,.56.07.58-.23.71-.73.68-.83-.04-1.66-.02-2.48-.06-3.65-.15-7.29-.33-10.94-.47-.57-.02-.78-.2-.79-.78-.04-2-.02-3.99.1-5.98ZM133.28,14.37c.47-.18.85-.1,1.22-.09,4.28.12,8.56.44,12.85.45.58,0,.77.18.8.77.23,4.05.39,8.11.26,12.17-.02.53-.04,1.05-.05,1.58-.02,1.18-.02,1.2-1.15,1.18-2.03-.03-4.06-.08-6.09-.14-2.1-.06-4.21-.15-6.31-.23-.86-.03-.87-.04-.88-.9-.03-1.99-.06-3.98-.07-5.98,0-2.67-.32-5.33-.53-7.99-.02-.26-.03-.52-.05-.83ZM133.69,35.51c.04-.9.11-1.8.14-2.7.06-1.6-.17-1.42,1.5-1.37,3.54.09,7.07.2,10.61.3.56.02,1.13.03,1.69,0,.55-.03.71.2.71.73-.02,2.3,0,4.59,0,6.89.01,0,.03,0,.04,0,.05,2.18.11,4.36.16,6.54.02.91,0,.91-.92.92-4.4.02-8.8-.18-13.2-.34-.84-.03-.85-.05-.89-.9-.16-3.35,0-6.7.17-10.04ZM133.62,48.85c-.04-1.12-.03-1.14,1.06-1.1,3.08.12,6.16.26,9.25.37,1.32.05,2.63.06,3.95.05.52,0,.76.17.77.7.02,1.09.08,2.18.09,3.27.04,3.2.06,6.39.08,9.59,0,.8-.02.8-.8.86-4.36.37-8.72.32-13.08.17-1.05-.04-1.05-.05-1.05-1.06,0-2.22,0-4.44,0-6.66,0-2.07-.18-4.13-.25-6.2ZM148.37,78.87c-2.29.01-4.58,0-6.87,0,0,.08,0,.15,0,.23-2.25,0-4.51,0-6.76,0-.85,0-.87-.02-.87-.88-.01-4.4-.01-8.79-.01-13.19,0-.9.02-.92.95-.89,3.61.11,7.21.23,10.82,0,.79-.05,1.57-.12,2.36-.16.8-.04.81-.03.83.76.05,2.33.08,4.66.14,6.99.05,2.1.13,4.2.19,6.31.02.81,0,.83-.77.84ZM168.05-69.21c.02-.46.05-.76.65-.79,3.87-.17,7.71-.67,11.56-1.02,2.06-.19,1.68-.36,1.7,1.5.02,2.1,0,4.21,0,6.32.04,0,.07,0,.11,0,0,2.33,0,4.66,0,6.99,0,.93.01.96-.91.94-4.1-.07-8.19-.16-12.29-.22-.55,0-.79-.14-.81-.75-.12-4.32-.18-8.64-.03-12.97ZM167.74-40.56c.31-4.09.42-8.18.39-12.28,0-.19,0-.38,0-.56-.02-.39.17-.53.55-.51.45.02.9,0,1.35.02,3.53.22,7.06.19,10.6.23.19,0,.38,0,.56.01.93.04.95.04.96.94.01,2.1,0,4.21,0,6.31h.04c0,2.14,0,4.28,0,6.43,0,.73-.03.74-.87.75-3.46.07-6.92.13-10.37.21-.9.02-1.8.1-2.7.17-.38.03-.56-.09-.54-.5.03-.41,0-.83.04-1.24ZM167.42-33.07c.04-1.16.09-2.33.1-3.49,0-.6.25-.83.87-.87,4.36-.31,8.72-.24,13.08-.29.56,0,.69.21.69.73-.02,2.48,0,4.96,0,7.44h.09c0,2.41,0,4.81,0,7.22,0,.92-.02.94-.94.91-4.51-.14-9.02-.27-13.53-.18-.6.01-.78-.18-.76-.76.15-3.57.28-7.14.41-10.7ZM167.95-20.32c2.97-.05,5.94.03,8.91.14,1.46.05,2.93.11,4.39.18.94.04.95.05.94.95,0,4.62-.32,9.24-.26,13.86,0,.51-.12.72-.68.76-4.53.33-9.04,1.02-13.58,1.17-.93.03-.94.04-.94-.87,0-2.56,0-5.11,0-7.67.07-2.48.05-4.96.17-7.44.06-1.2.06-1.06,1.05-1.08ZM150.16-55.96c.03-4.33.05-8.65.07-12.98,0-.3.02-.6,0-.9-.03-.49.17-.66.66-.63,1.43.07,2.86.1,4.29.16,1.09.05,2.18.13,3.27.2,2.44.18,4.89.18,7.33.19.86,0,.88,0,.86.86-.08,3.31-.07,6.62.01,9.93.02.98.08,1.95.14,2.93.03.47-.12.69-.62.68-5.01-.14-9.99.48-15,.52-1.02,0-1.01,0-1-.96ZM150.11-45.71c0-2.33,0-4.66,0-6.99,0-.47.07-.77.66-.77,4.96-.06,9.91-.7,14.88-.5.15,0,.3.02.45,0,.62-.08.74.25.74.79.04,4.59.07,9.17-.19,13.76-.04.66-.36.73-.84.76-2.06.16-4.12.36-6.19.47-2.89.16-5.79.26-8.68.38-.92.04-.94.02-.94-.91-.01-2.33,0-4.66,0-6.99.04,0,.07,0,.11,0ZM149.39,12.45c-.05-2.33-.01-4.66.04-6.84.14-2.48.27-4.8.4-7.13.05-.78.06-.8.86-.77,2.89.12,5.78.22,8.67.4,1.8.11,3.61.12,5.41.14.54,0,.8.09.78.74-.16,4.14.15,8.26.37,12.39.08,1.47.09,1.28-1.23,1.27-3.99-.03-7.96.4-11.94.5-.86.02-1.73,0-2.59.07-.6.04-.75-.2-.77-.77ZM149.57-18.97c0-1.02.02-1.04,1.08-1.02,4.78.12,9.55.04,14.32-.23.15,0,.3,0,.45-.02.47-.07.69.08.65.61-.21,2.62-.14,5.26-.41,7.89,0,2.48,0,4.96,0,7.44,0,1.14-.01,1.14-1.19,1.14-4.63.02-9.24-.36-13.86-.45-.51,0-.74-.13-.74-.7,0-4.89-.34-9.77-.3-14.65ZM150.1,14.73c4.93-.01,9.84-.67,14.77-.53,1.46.04,1.21-.03,1.26,1.21.14,4.1.26,8.2.38,12.29.01.34-.03.68.01,1.01.07.61-.24.79-.78.82-1.01.06-2.03.16-3.04.24-4.01.32-8.03.53-12.06.62-.83.02-.84,0-.84-.88,0-2.33,0-4.67,0-7.43-.09-1.89-.18-4.23-.31-6.55-.03-.48-.02-.79.6-.79ZM149.79,32.57c.01-.83.03-.85.8-.86,4.89-.07,9.78-.35,14.65-.73,1.45-.11,1.29-.11,1.27,1.22-.08,4.44-.16,8.88.01,13.32,0,.11,0,.23,0,.34-.02.78-.02.8-.83.83-2.48.1-4.96.17-7.21.25-2.68,0-5.13.03-7.57-.09-.9-.04-.93-.05-.95-.97-.14-4.44-.24-8.88-.17-13.32ZM165.75,61.52c-2.18.13-4.35.23-6.53.35-2.7.16-5.4.34-8.1.49-.79.05-.82.02-.81-.78.06-4.14-.11-8.27-.22-12.4-.03-.98,0-.98.97-.98,2.44,0,4.89,0,8.48,0,1.29-.06,3.73-.17,6.18-.27.82-.03.84-.02.84.77,0,3.98,0,7.97,0,11.95,0,.79-.02.81-.8.86ZM166.55-36.06c-.13,4.58-.28,9.17-.43,13.75-.03.78-.04.8-.84.83-2.52.09-5.04.17-6.89.23-3.11,0-5.56.02-8-.11-.79-.04-.81-.05-.79-.84.1-2.74.22-5.48.31-8.23.06-1.73.07-3.46.1-5.19.02-.83.02-.86.78-.87,4.82-.08,9.62-.34,14.42-.74.04,0,.08,0,.11,0,1.4-.06,1.25-.1,1.21,1.16ZM167.09,11.79c-.21-4.21-.59-8.41-.42-12.63.04-.9.05-.91.97-.93,4.07-.11,8.1-.62,12.14-1.02.67-.07,1.48-.38,1.97-.02.47.35.16,1.2.18,1.82.13,4.29.31,8.57.62,12.85.01.15.01.3.03.45.06.43-.11.61-.56.6-.98-.03-1.96-.02-2.94-.03-1.43,0-2.86,0-4.29,0,0-.08,0-.15,0-.23-2.26,0-4.51,0-6.77,0-.85,0-.9-.02-.94-.87ZM181.99,61.03c-2.25,0-4.51-.02-6.76.1-2.14.09-4.28.19-6.42.28-.95.04-.97.03-.95-.86.09-3.91.04-7.81.02-11.72,0-.96,0-.98,1-.99,4.32,0,8.64.19,12.95.38.93.04.95.08.96.97.02,3.68.03,7.36.03,11.04,0,.78-.02.79-.83.8ZM182.88,38.58c-.2,2.41-.2,4.81-.18,7.22,0,.99,0,1-.97.98-3.76-.09-7.52-.25-11.28-.21-.56,0-1.13,0-1.69,0-.88,0-.89,0-.91-.83-.07-3.2-.14-6.39-.08-9.59.03-1.5.03-3.01.06-4.51.01-.81.03-.81.81-.87,4.54-.35,9.1-.22,13.65-.31.66-.01.61.37.6.79,0,2.44,0,4.89,0,7.33ZM182.91,28.11c0,.85-.02.86-.87.88-3.61.07-7.21.12-10.82.2-.9.02-1.8.08-2.7.17-.56.06-.73-.15-.72-.69.01-.83-.05-1.65-.06-2.48-.04-3.61-.23-7.21-.44-10.81-.01-.19,0-.38-.03-.56-.05-.46.19-.58.6-.56.9.03,1.8.03,2.7.06,1.43.05,2.85.12,4.28.18,0,.02,0,.04,0,.06,2.29,0,4.58,0,6.88,0,.91,0,.93.03.99.92.19,2.78.16,5.56.19,8.34.02,1.43,0,2.86,0,4.28ZM201.38-71.25c4.44-.09,8.88-.04,13.31.18.92.04.91.05.95.96.19,4.47.1,8.95-.09,13.42-.08,1.93-.09,1.94-1.97,1.87-3.95-.15-7.9-.24-11.85-.26-.15,0-.3-.01-.45,0-.43.03-.61-.16-.59-.59.03-.79.02-1.58.02-2.37,0-1.73,0-3.46,0-4.33-.11-3.19-.2-5.52-.27-7.85-.03-1.01-.02-1,.94-1.02ZM214.85-39.62c.02.53-.1.72-.68.68-4.28-.31-8.56-.47-12.85-.54-.83-.01-.87-.03-.86-.78.06-4.21.15-8.42.21-12.63,0-.62.33-.64.78-.64,2.22,0,4.44,0,6.66,0,0-.07,0-.14,0-.2,2.14,0,4.29,0,6.43,0,.83,0,.84.02.77.81-.39,4.42-.62,8.85-.46,13.29ZM199.75-21.47c.02.34-.17.47-.48.47-.11,0-.23,0-.34,0-4.63.06-9.25-.1-13.88-.28-.19,0-.38-.05-.56-.04-.56.03-.78-.17-.77-.78.03-2.44.01-4.89.01-7.33h-.11c0-2.45-.01-4.89,0-7.34,0-.98.04-1,1-1.03,4.4-.12,8.8-.23,13.2-.34.23,0,.45,0,.68,0,.39-.01.54.19.52.55,0,.11,0,.23,0,.34.04,5.04.36,10.07.69,15.1.02.23.01.45.02.68ZM198.41-53.53c.86,0,.89.02.85.89-.18,4.1-.16,8.2-.23,12.29-.01.8-.03.82-.83.82-4.48-.03-8.95.24-13.42.29-1.07.01-1.06.15-1.06-.99,0-4.14.09-8.27-.1-12.41-.04-.93-.02-.94.91-.94,2.29,0,4.59,0,6.88,0v.04c2.33,0,4.66,0,7,0ZM184.43-71.3c4.18-.22,8.35-.06,12.53.02.53.01,1.05.05,1.58.02.58-.03.79.18.78.78-.02,1.62,0,3.23.04,4.85.05,3.2.05,6.39-.03,9.59-.02.88-.02.89-.85.88-4.59-.03-9.18-.06-13.77-.09-.15,0-.3-.02-.45,0-.56.06-.7-.22-.7-.74.02-2.44,0-4.89,0-7.33-.08,0-.17,0-.25,0,0-2.26,0-4.51,0-6.77,0-1.25-.13-1.15,1.13-1.22ZM198.53,27.7c-.01.86.03.97-.93.96-3.91-.03-7.81.19-11.72.27-.26,0-.53-.02-.79.02-.54.06-.73-.14-.71-.69.04-1.05.02-2.1.02-3.16,0-1.09,0-2.18,0-3.03-.07-2.38-.15-4.52-.21-6.66-.02-.78,0-.79.81-.79,4.28,0,8.57.02,12.85.04.85,0,.87.02.86.76-.05,4.09-.12,8.19-.18,12.28ZM199.56-2.18c-.19,3.56-.39,7.13-.58,10.69-.06,1.2-.08,2.4-.12,3.61-.03.89-.03.9-.86.89-4.32-.02-8.65-.04-12.97-.07-.99,0-.99-.02-1.05-.97-.27-4.5-.46-9.01-.58-13.52,0-.23-.02-.45-.01-.68.01-.84.01-.86.9-.88,2.44-.08,4.88-.2,7.33.04,2.37,0,4.74,0,7.1,0,.86,0,.88.02.84.89ZM199.74-5.25c-.02.78-.05.81-.86.8-2.48-.05-4.96-.13-8.43-.22-1.42-.01-3.82-.04-6.23.08-.83.04-.85.03-.84-.87.05-2.97.12-5.94.19-8.91.04-1.58.11-3.16.12-4.73,0-.61.22-.75.79-.72,2.67.13,5.33.22,8,.33,2.14.09,4.28.07,6.43.02.88-.02.89-.01.92.82.18,4.47.03,8.94-.1,13.41ZM214.99,23.4c0,1.65.07,3.3.1,4.96.02.95,0,.93-.9.88-2.21-.14-4.42-.26-6.25-.36-2.68-.06-4.97-.11-7.26-.18-.85-.02-.88-.04-.86-.9.06-4.13.15-8.26.19-12.39,0-.62.25-.74.8-.75,4.47-.05,8.94-.13,13.41-.19.9-.01.91,0,.9.94-.04,2.67-.11,5.33-.13,8ZM215.76-1.92c-.32,4.72-.47,9.45-.59,14.19,0,.19-.02.38,0,.56.03.45-.18.58-.6.57-1.43-.06-2.85-.1-4.28-.12-3.01-.06-6.01-.11-9.02-.17-1.13-.02-1.14-.02-1.09-1.11.09-2.33.19-4.65.29-6.98.14-2.44.29-4.88.41-7.31.03-.57.21-.77.8-.78,4.44-.09,8.87,0,13.3.2.85.04.85.07.79.95ZM216.05-7.86c-.05,1.01-.15,2.02-.17,3.04,0,.59-.22.78-.8.74-1.39-.1-2.78-.14-4.16-.23-3-.2-6.01-.12-9.02-.13-.92,0-.91-.01-.88-.92.07-2.18.12-4.36.19-6.54-.01,0-.03,0-.04,0,0-2.25,0-4.51,0-6.76,0-.87,0-.89.85-.9,4.51-.05,9.02-.26,13.53-.18,1.03.02,1.03.01,1.03,1.07,0,3.61-.35,7.2-.52,10.8ZM216.53-21.6c.05.51-.08.74-.67.71-4.62-.22-9.24-.22-13.87-.13-.83.02-.85,0-.89-.76-.15-2.63-.28-5.25-.4-7.39-.1-3.01-.28-5.53-.25-8.05,0-.91.01-.93.93-.91,4.21.09,8.42.18,12.63.29.86.02.86.04.92.88.28,3.71.81,7.39,1.23,11.08.16,1.42.24,2.84.37,4.26Z"/>
      </g>
      <g class="cls-3">
        <path class="cls-2" d="M194.26,149.48l5.64-34.83c5.22-24.65,3.57-50.27-4.76-74.05h0c-9.43-26.94-10.26-56.15-2.38-83.59l1.5-5.2H-5.23v199.13l199.49-1.46Z"/>
      </g>
      <g id="Layer_3">
        <g>
          <g>
            <g>
              <path class="cls-6" d="M60.27,63.52c-.17-.83-.86-1.22-1.39-.81-.83.64-.98,1.24-2.99,2.17-.99.46-3.97,1.5-7.47-.23-3.5-1.73-5.04-5.54-3.62-9.17,1.19-3.06,3.81-3.86,5.15-4.02,1.34-.16,4.06.08,5.41,2.03,1.52,2.17.5,4.14-.5,4.87-.42.31-1.09.41-1.63.36-.4-.04-.78-.21-1.05-.51-.25-.27-.42-.67-.27-1.17.18-.6.8-.76,1.15-.89.06-.02.12-.04.18-.06.24-.07.47-.16.62-.52.22-.53-.11-1.66-1.74-2.19-1.53-.51-3.92-.17-4.91,2.22-.92,2.25-.25,5.3,3.4,6.9h0c.49.19,1.04.35,1.63.45,5.18.9,9.12-3.76,8.35-8.8-.71-4.6-4.9-7.94-9.91-8.34-5.14-.41-11.85,2.21-13.86,8.86-2.27,7.49,1.96,13.19,6.61,15.29,4.18,1.88,8.61,1.45,11.04.63,1.96-.67,3.17-1.6,3.89-2.26,1.07-.99,2.3-2.97,1.92-4.81h0Z"/>
              <path class="cls-6" d="M62.5,68.07c0-2.25,2.1-4.79,3.99-4.79,2.79,0,2.05,6.1,6.1,6.1,1.8,0,3.04-1.15,3.04-2.94,0-2.2-1.31-2.75-5.5-4.7-4.14-1.95-6.2-4.49-6.2-8.13,0-3.64,3.17-7.09,9.44-7.09,5.69,0,9.68,1.65,9.68,3.54s-1.45,5.04-2.99,5.04c-2.15,0-2.5-4.1-6.15-4.05-.96.01-1.85.49-2,1.5-.14.99.11,2.05,4.5,4.04,4.25,1.93,7,4.07,7,8.39,0,5.19-3.55,9.08-10.74,9.08-5.74,0-10.18-4.09-10.18-5.99h0Z"/>
              <path class="cls-6" d="M86.36,58.64c0-7.24,4.94-12.13,12.48-12.13,6.74,0,10.03,3.09,10.03,7.24,0,4.39-3.84,7.19-12.63,7.19-.6,0-.85.25-.85.65,0,2.15,1.85,3.34,4.59,3.34,3.69,0,5.49-2.05,6.94-2.05.8,0,1.3.45,1.3,1.3,0,2.3-3.29,6.39-10.33,6.39s-11.53-4.54-11.53-11.93h0ZM100.19,55.15c1.28-1.82,1.42-3.74.06-4.35-1.59-.71-4.37.56-5.35,4.33-.35,1.35-.1,1.77.57,1.96,1.8.48,3.73-.53,4.71-1.94h0Z"/>
              <g class="cls-4">
                <g class="cls-4">
                  <path class="cls-6" d="M20.42,52.59c.02-.14.07-.24.14-.31.08-.07.18-.09.31-.07.13.02.22.07.28.16.06.09.07.2.05.34l-.23,1.67,5.26.71c.16.02.28.07.35.16.07.08.1.2.08.34-.02.15-.08.25-.17.31-.09.06-.22.08-.38.06l-5.26-.71-.23,1.66c-.02.14-.07.25-.14.32s-.18.1-.31.08c-.13-.02-.22-.07-.28-.16-.05-.09-.07-.2-.05-.34l.57-4.19Z"/>
                </g>
              </g>
              <g class="cls-4">
                <g class="cls-4">
                  <path class="cls-6" d="M27.39,51.92c-.06.14-.14.22-.24.25-.1.03-.23.02-.38-.05l-5.23-2.22c-.15-.06-.25-.14-.3-.24-.05-.1-.04-.22.01-.35.06-.14.14-.22.24-.25.1-.03.23-.02.38.04l5.23,2.22c.15.06.25.14.3.24.05.1.04.22-.01.35ZM29.07,47.95c-.06.14-.14.22-.24.25-.1.03-.23.02-.38-.05l-5.23-2.22c-.15-.06-.25-.14-.3-.24-.05-.1-.04-.22.01-.35.06-.14.14-.22.24-.25s.23-.02.38.05l5.23,2.22c.15.06.25.14.3.24.05.1.04.22-.01.35ZM24.69,50.76l-.73-.31,1.67-3.94.73.31-1.67,3.94Z"/>
                </g>
              </g>
              <g class="cls-4">
                <g class="cls-4">
                  <path class="cls-6" d="M31.67,42.94c.09-.11.18-.18.28-.2.1-.02.2.01.31.09.1.08.16.17.16.28,0,.1-.04.21-.13.32l-2.07,2.63c-.09.12-.19.18-.3.18-.11,0-.23-.04-.35-.14l-4.36-3.43c-.12-.1-.2-.2-.22-.31-.02-.11.01-.22.1-.34l2.07-2.63c.09-.11.18-.18.28-.2.1-.02.2.01.31.09.1.08.16.17.16.28s-.04.21-.13.32l-1.8,2.28,1.58,1.24,1.57-1.99c.09-.11.18-.17.28-.19.1-.02.2,0,.31.09.1.08.16.17.16.28,0,.1-.04.21-.13.32l-1.57,1.99,1.68,1.32,1.8-2.28Z"/>
                </g>
              </g>
              <g class="cls-4">
                <g class="cls-4">
                  <path class="cls-6" d="M32.71,38.07c-.34-.55-.55-1.05-.63-1.53-.08-.47-.02-.9.17-1.29.19-.39.52-.73,1-1.02.47-.29.92-.44,1.36-.45.43,0,.85.13,1.23.41.39.28.75.69,1.1,1.24l1.71,2.74c.08.13.12.26.1.36s-.08.2-.21.28c-.13.08-.24.1-.35.07-.1-.03-.2-.12-.28-.25l-.95-1.52-2.76,1.73.95,1.52c.09.14.12.26.1.37-.02.11-.09.2-.21.28-.12.08-.24.1-.34.06-.1-.04-.2-.12-.28-.25l-1.71-2.74ZM33.8,38.18l2.76-1.73-.33-.52c-.26-.41-.52-.73-.78-.95-.26-.22-.54-.34-.83-.35-.29-.01-.6.08-.94.29-.33.21-.55.44-.67.71-.12.27-.14.57-.06.9.08.33.25.71.51,1.13l.33.52Z"/>
                </g>
              </g>
              <g class="cls-4">
                <g class="cls-4">
                  <path class="cls-6" d="M40.55,37.97c-.15.04-.26.03-.35-.03-.09-.06-.16-.17-.2-.32l-1.6-5.38c-.09-.31,0-.51.28-.6.27-.08.46.04.55.35l1.6,5.38c.09.31,0,.51-.27.59ZM39.89,35.77l-.23-.76,1.58-.47c.52-.15.88-.38,1.1-.68.22-.3.26-.67.13-1.1-.13-.43-.36-.72-.71-.85-.34-.13-.77-.12-1.29.03l-1.58.47-.23-.76,1.55-.46c.79-.23,1.45-.24,1.99-.03.54.21.92.68,1.13,1.39.21.71.15,1.28-.19,1.73-.34.45-.91.79-1.71,1.03l-1.55.46ZM44.17,36.9c-.08.02-.15.03-.22.01-.06-.02-.14-.05-.23-.12l-2.36-1.71.73-.49,2.09,1.48c.09.05.15.11.19.15.04.05.07.11.09.17.02.06.02.12,0,.19-.01.07-.05.13-.1.18-.05.06-.12.1-.2.12Z"/>
                </g>
              </g>
              <g class="cls-4">
                <g class="cls-4">
                  <path class="cls-6" d="M49.23,29.9c.14,0,.25.02.33.08.08.06.12.16.13.29,0,.13-.03.23-.1.3-.07.07-.18.11-.32.12l-1.68.08.25,5.31c0,.16-.02.28-.09.37-.07.09-.17.13-.32.14-.15,0-.26-.03-.33-.11-.07-.08-.12-.2-.12-.36l-.25-5.31-1.67.08c-.14,0-.25-.02-.34-.08-.08-.06-.13-.16-.13-.29,0-.13.03-.23.11-.3.08-.07.19-.11.33-.12l4.23-.2Z"/>
                </g>
              </g>
              <g class="cls-4">
                <g class="cls-4">
                  <path class="cls-6" d="M54.83,37.56c-.6-.18-1.07-.47-1.42-.87-.35-.4-.57-.88-.66-1.43-.08-.55-.03-1.15.16-1.79.19-.64.48-1.17.86-1.59.38-.41.82-.69,1.34-.82.52-.13,1.07-.11,1.67.07.6.18,1.08.47,1.43.87.36.4.58.88.66,1.43.09.56.03,1.15-.16,1.8-.19.64-.48,1.17-.86,1.58-.38.41-.83.69-1.35.82-.52.13-1.08.11-1.68-.07ZM55.06,36.78c.43.13.83.14,1.2.03.37-.11.69-.32.95-.64.27-.32.48-.72.62-1.21.15-.49.2-.95.15-1.36-.05-.41-.19-.77-.44-1.06-.24-.29-.58-.51-1.02-.64-.43-.13-.83-.14-1.19-.03-.36.11-.68.32-.95.64-.27.32-.48.72-.63,1.21-.15.49-.2.94-.15,1.35.05.41.19.77.44,1.06.24.29.58.51,1.01.64Z"/>
                </g>
              </g>
              <g class="cls-4">
                <g class="cls-4">
                  <path class="cls-6" d="M64.76,35.99l-2.4-1.5-1.27,2.03,2.16,1.35c.12.08.2.16.23.26.03.1,0,.21-.06.32-.07.11-.15.17-.25.19-.1.01-.21-.02-.33-.09l-2.16-1.35-1.12,1.8c-.09.14-.18.22-.28.26-.1.03-.22.01-.35-.07-.13-.08-.2-.17-.21-.28-.02-.11.02-.23.1-.37l2.97-4.77c.08-.13.18-.22.28-.25s.22-.01.35.07l2.77,1.73c.12.08.2.16.23.26.03.1.01.2-.06.31-.07.11-.16.18-.26.19-.1.02-.21-.01-.33-.09Z"/>
                </g>
              </g>
            </g>
            <path class="cls-6" d="M112.11,64.3c0-4.34.35-19.16.35-22.8,0-4.34-2.3-3.59-2.3-5.39,0-2,3.99-2.99,6.69-2.99,2.94,0,4.29,1.45,4.29,4.74,0,3.29-.45,21.61-.45,23.7,0,4.69,2.79,3.54,2.79,5.49,0,1.95-3.19,3.39-6.09,3.39-3.34,0-5.29-1.8-5.29-6.14h0Z"/>
            <path class="cls-6" d="M126.28,64.23c0-2.1.4-5.29.4-7.84,0-5.44-2.2-4.59-2.2-6.34,0-2.1,3.84-3.19,6.64-3.19,3.19,0,4.34,1.7,4.34,4.99,0,2.45-.5,8.03-.5,10.13,0,4.14,2.74,3.14,2.74,4.99,0,2-3.14,3.39-6.19,3.39-3.29,0-5.24-1.8-5.24-6.14Z"/>
            <path class="cls-6" d="M179.86,63.52c-.03-1.47-.41-2.74-1-3.81h0s-.03-.05-.04-.07c-1.03-1.82-2.7-3.05-4.45-3.72-2.05-.8-4.35-.83-6.5-.09-4.38,1.49-5.89,6.54-3.51,10.2,1.93,2.97,6.31,2.85,7.93.86,1.22-1.49.86-3.79-.19-4.75-1.23-1.12-2.19-.92-2.52-.52-.26.32-.17.58-.12.84.03.33.34.92-.19,1.38s-1.4.34-1.92-.56c-.27-.48-.31-1.04-.2-1.58.2-.97,1.24-2.26,3.43-2,.65.08,1.22.34,1.72.69,1.12.68,2.47,2.17,2.36,4.4-.16,3.22-2.84,4.92-6.36,4.61-3.98-.35-6.09-3.24-6.09-8.58,0-3.59.6-9.28.6-11.18s-1.58-2.95-2.83-2.98c-3.19-.07-3.01,2.13-4,2.13s-2.5-2.2-6.69-2.2c-5.39,0-11.26,3.75-11.49,11.36-.25,8.25,4.85,12.31,10.09,12.4,5.99.1,7.27-3.53,7.94-4.09.76-.65,2.44,7.94,12.48,7.94,6.54,0,11.72-4.04,11.56-10.67h0ZM153.49,58.83c-.95,4.13-2.99,5.07-5.18,4.57-2.07-.47-3.59-2.36-2.79-5.83.73-3.19,2.99-5.13,5.48-4.56,2.43.56,3.12,3.09,2.5,5.83h0Z"/>
          </g>
          <path class="cls-6" d="M131.1,43.53l-2.05,1.14c-1.06.59-2.32-.33-2.09-1.52l.45-2.31-1.72-1.6c-.88-.82-.4-2.31.8-2.45l2.33-.29.99-2.13c.51-1.1,2.07-1.1,2.58,0l.99,2.13,2.33.29c1.2.15,1.68,1.63.8,2.45l-1.72,1.6.45,2.31c.23,1.19-1.03,2.1-2.09,1.52l-2.05-1.14h0Z"/>
        </g>
      </g>
    </g>
  </g>
</svg>