<?xml version="1.0" encoding="UTF-8"?>
<svg id="Layer_2" xmlns="http://www.w3.org/2000/svg" xmlns:xlink="http://www.w3.org/1999/xlink" viewBox="0 0 15.49 15.49">
  <defs>
    <style>
      .cls-1 {
        fill: #422a1e;
      }

      .cls-2 {
        fill: none;
      }

      .cls-3 {
        clip-path: url(#clippath);
      }
    </style>
    <clipPath id="clippath">
      <rect class="cls-2" x="3.16" y="3.17" width="9.16" height="9.16"/>
    </clipPath>
  </defs>
  <g id="Layer_1-2" data-name="Layer_1">
    <g>
      <path class="cls-1" d="M7.75.75c3.86,0,7,3.14,7,7s-3.14,7-7,7S.75,11.61.75,7.75,3.89.75,7.75.75M7.75,0C3.47,0,0,3.47,0,7.75s3.47,7.75,7.75,7.75,7.75-3.47,7.75-7.75S12.03,0,7.75,0h0Z"/>
      <g class="cls-3">
        <path class="cls-1" d="M12.31,7.45c-.03-.48-.13-.94-.31-1.38h.03l-.22-.43-.08-.16h-.01c-.77-1.34-2.14-2.19-3.67-2.29v-.02h-.59v.02c-1.54.1-2.91.95-3.67,2.29h-.01l-.08.16-.22.43h.03c-.17.44-.27.9-.3,1.38h-.02v.59h.02c.03.47.13.94.3,1.38h-.03l.22.43.08.16h.01c.77,1.34,2.14,2.2,3.67,2.3v.02h.59v-.02c1.53-.1,2.91-.95,3.67-2.3h.01l.08-.16.22-.43h-.03c.18-.44.28-.9.31-1.38h.02v-.59h-.02ZM6.06,4.17c-.26.35-.47.8-.64,1.31h-.91c.4-.57.93-1.01,1.55-1.31M4.15,6.07h1.11c-.1.44-.16.9-.18,1.38h-1.28c.04-.48.15-.94.35-1.38M4.15,9.42c-.2-.44-.32-.9-.35-1.38h1.28c.02.47.08.94.18,1.38h-1.11ZM4.51,10.01h.91c.17.51.39.95.64,1.31-.62-.29-1.15-.73-1.55-1.31M7.45,11.66c-.55-.16-1.06-.76-1.39-1.64h1.39v1.64ZM7.45,9.42h-1.57c-.11-.44-.17-.9-.19-1.38h1.76v1.38ZM7.45,7.45h-1.76c.02-.48.08-.94.19-1.38h1.57v1.38ZM7.45,5.48h-1.39c.34-.89.84-1.48,1.39-1.64v1.64ZM10.98,5.48h-.91c-.17-.51-.38-.95-.64-1.31.62.29,1.15.73,1.55,1.31M8.04,3.84c.55.16,1.06.76,1.39,1.64h-1.39v-1.64ZM8.04,6.07h1.57c.11.44.17.9.19,1.38h-1.75v-1.38ZM8.04,8.04h1.75c-.02.48-.08.94-.19,1.38h-1.57v-1.38ZM8.04,11.66v-1.64h1.39c-.34.89-.84,1.48-1.39,1.64M9.43,11.32c.26-.35.47-.8.64-1.31h.91c-.4.57-.93,1.02-1.55,1.31M11.35,9.42h-1.11c.1-.44.16-.9.18-1.38h1.28c-.04.48-.15.94-.35,1.38M10.42,7.45c-.02-.48-.08-.94-.18-1.38h1.11c.21.44.32.9.35,1.38h-1.28Z"/>
      </g>
    </g>
  </g>
</svg>