<?xml version="1.0" encoding="UTF-8"?>
<svg id="Layer_2" data-name="Layer 2" xmlns="http://www.w3.org/2000/svg" viewBox="0 0 162.22 85.97">
  <defs>
    <style>
      .cls-1 {
        fill: #593625;
        stroke-width: 0px;
      }
    </style>
  </defs>
  <g id="Layer_1-2" data-name="Layer 1">
    <g>
      <circle class="cls-1" cx="115.45" cy="27.6" r="4.19"/>
      <path class="cls-1" d="M162.18,60.93c-.2-1.2-1.17-2.16-2.37-2.35-1.3-.2-2.47.48-3.01,1.53h0s-.07.16-.07.16c0,.01-.01.03-.02.04l-.11.26c-.71,1.6-1.39,3.11-2.06,3.85-.79.87-1.99,1.27-2.47,1.09-.38-.14-.99-1.18-1.09-3.49-.34-7.74,3.76-25.9,3.8-26.04.24-.73.17-1.51-.18-2.19-.35-.68-.94-1.19-1.67-1.42-.73-.24-1.51-.17-2.19.17-.52.27-.95.68-1.22,1.2l-.09.17-.14-.14c-1.8-1.78-3.24-2.53-5.95-3.08-.64-.13-1.31-.2-2-.2-3.01,0-6.28,1.27-9.21,3.58-3.31,2.61-4.95,6.43-6.23,9.81l-.02.05-.05.03c-1.71.97-2.97,2.55-4.18,4.08-1.82,2.3-2.84,3.32-4.06,3.32-.06,0-.13,0-.19,0-.41-.04-.67-.19-.94-.55-1.73-2.31-1.32-9.26-.48-13.46.29-1.46-.6-2.92-2.03-3.33-.25-.07-.51-.11-.77-.11-1.2,0-2.29.76-2.7,1.88-3.05,8.33-5.04,17.2-6.8,25.04-1.36,6.06-2.53,11.3-3.91,15.01-1.24,3.36-2.18,4.15-2.52,4.33l-.11.06-.08-.1c-1.19-1.51-3.33-8.81,2.45-43.76,4.71-28.44,5.98-32.58,5.99-32.61.49-1.5-.33-3.13-1.83-3.62-.73-.24-1.51-.18-2.19.16-.68.35-1.19.94-1.43,1.66-.31.95-1.68,6.17-6.2,33.47-.59,3.57-1.13,7.01-1.59,10.21l-.04.3-.1.44c-.31,1.42-1.09,4.12-2.87,6.26-.18.2-.35.4-.52.59-.07.08-.14.15-.19.22-4.55,5.01-10.93,10.37-15.15,10.37-.49,0-.94-.07-1.35-.21-1.5-.53-2.54-1.43-3.15-2.76-.91-1.98-.97-5.13-.16-8.85l.02-.09.09-.02c.83-.19,1.65-.4,2.45-.64,3.29-.98,7.05-3.04,10.04-5.51,3.28-2.71,5.39-5.64,5.92-8.24.5-2.46-.26-4.67-2.15-6.23-1.24-1.03-2.68-1.55-4.29-1.55-.67,0-1.37.09-2.08.28-5.37,1.4-11.39,8.55-13.64,14.36-.31.8-.6,1.62-.87,2.43l-.03.09h-.09c-1.56.2-3.07.3-4.56.4-.56.04-1.13.07-1.7.12h-.11s-.04-.09-.04-.09c-3.18-8.23-6.7-12.29-13.3-15.44,0,0-3.43-1.63-4.86-1.63-.56,0-1.08.11-1.61.33-2.08.87-2.78,2.9-4.07,6.58-.42,1.22-.95,2.73-1.63,4.53-3.56,9.45-12.76,18.38-18.93,18.38-.22,0-.43-.01-.64-.03-2.12-.24-3.95-1.3-5.17-3.01-1.78-2.49-2.2-6.14-1.23-10.53,1.78-7.99,8.2-12.42,11.25-13.03.32-.06.62-.09.9-.09.7,0,1.2.2,1.45.39.23.17.4.39.45.45.57.93,1.64,1.47,2.73,1.37,1.5-.14,2.65-1.44,2.61-2.95-.01-.59-.17-1.12-.46-1.56-.93-1.58-3.24-3.44-6.69-3.44-.68,0-1.38.07-2.1.21-5.15,1.02-13.44,7.09-15.74,17.41-1.7,7.62.24,12.42,2.16,15.11,2.18,3.05,5.44,4.95,9.2,5.37.4.04.81.07,1.23.07,4.36,0,9.41-2.53,14.22-7.12,4.38-4.18,8.17-9.78,10.13-14.97.7-1.86,1.25-3.42,1.68-4.68.28-.79.59-1.71.85-2.4.07-.19.18-.29.46-.19.27.1,1.33.61,1.33.61,4.79,2.58,7.01,5.18,9.85,11.02l.08.17-.18.04c-1.07.25-2.08.55-3.08.93-5.37,1.99-9.2,6.9-9.3,11.95-.07,3.51,1.74,6.39,4.85,7.69,1.12.47,2.27.7,3.44.7,2.29,0,4.55-.9,6.52-2.61,2.69-2.33,5.62-7.31,5.04-13.7v-.15s.81-.05.81-.05c.84-.06,1.71-.11,2.6-.19l.19-.02-.03.19c-.62,4.09-.29,7.55.97,10.28,1.28,2.78,3.46,4.72,6.47,5.77,1,.35,2.08.53,3.19.53,6.41,0,13.34-5.99,16.9-9.56l.29-.29-.04.41c-1.56,16.81.25,21.46,2.23,23.79,1.15,1.35,2.65,2.07,4.35,2.07,4.53,0,6.77-4.64,8.06-8.13,1.51-4.07,2.72-9.49,4.13-15.76.6-2.69,1.23-5.48,1.93-8.37l.08-.34.19.3c.12.2.25.39.39.57,1.24,1.67,2.98,2.65,5.01,2.83.26.02.51.04.76.04,2.44,0,4.59-1.09,6.76-3.42l.22-.24.04.32c.53,4.62,2.54,8.14,5.8,10.18,1.71,1.07,3.68,1.63,5.72,1.63,1.9,0,3.84-.49,5.61-1.43,1.15-.61,2.2-1.36,3.19-2.3l.24-.23v.33c.01.1.02.21.02.31.2,4.57,1.88,7.55,4.86,8.63.71.26,1.45.39,2.23.39,2.73,0,5.12-1.55,6.44-3,1.3-1.42,2.15-3.34,3.06-5.38l.06-.15c.28-.53.4-1.16.29-1.83ZM71.08,44.99c2.21-4.47,6.3-8.71,9.1-9.44.23-.06.43-.09.61-.09.34,0,.52.11.66.23.21.17.27.26.18.67-.53,2.62-5.57,6.91-10.37,8.84l-.36.14.17-.35ZM50.35,62.57h0c-.63.55-1.63,1.2-2.8,1.2-.41,0-.81-.08-1.2-.24-.92-.38-1.35-1.13-1.33-2.28.05-2.31,1.97-5.35,5.56-6.68.87-.32,1.75-.58,2.69-.79l.17-.04v.17c.34,4.12-1.38,7.18-3.09,8.66ZM139.17,59.05c-.21.07-.41.14-.61.22-.83.3-1.61.58-2.39.58-.96,0-1.89-.26-2.68-.76-2.2-1.38-3.38-4.41-3.24-8.33.04-1.25.25-2.49.61-3.71.04-.1.06-.18.07-.23,1.52-4.83,4.03-7.56,4.77-8.28,2.13-2.09,4.63-2.32,5.61-2.32.3,0,.6.03.87.08,3.42.7,4.84,4.31,5.07,4.95-.17,1.4-2.08,15.74-8.07,17.8Z"/>
    </g>
  </g>
</svg>