<svg xmlns="http://www.w3.org/2000/svg" xmlns:xlink="http://www.w3.org/1999/xlink" width="160" height="160" viewBox="0 0 160 160">
  <defs>
    <clipPath id="clip-path">
      <rect id="Rectangle_103" data-name="Rectangle 103" width="104.413" height="90.852" fill="none"/>
    </clipPath>
    <clipPath id="clip-path-3">
      <rect id="Rectangle_96" data-name="Rectangle 96" width="14.201" height="17.817" fill="none"/>
    </clipPath>
    <clipPath id="clip-path-4">
      <rect id="Rectangle_97" data-name="Rectangle 97" width="9.435" height="13.108" fill="none"/>
    </clipPath>
    <clipPath id="clip-path-5">
      <rect id="Rectangle_98" data-name="Rectangle 98" width="4.625" height="7.236" fill="none"/>
    </clipPath>
    <clipPath id="clip-path-6">
      <rect id="Rectangle_99" data-name="Rectangle 99" width="14.695" height="16.632" fill="none"/>
    </clipPath>
    <clipPath id="clip-path-7">
      <rect id="Rectangle_100" data-name="Rectangle 100" width="10.445" height="11.301" fill="none"/>
    </clipPath>
    <clipPath id="clip-path-8">
      <rect id="Rectangle_101" data-name="Rectangle 101" width="3.251" height="5.936" fill="none"/>
    </clipPath>
  </defs>
  <g id="Group_67" data-name="Group 67" transform="translate(739 1167)">
    <rect id="Rectangle_104" data-name="Rectangle 104" width="160" height="160" transform="translate(-739 -1167)" fill="#fcb200"/>
    <g id="Group_66" data-name="Group 66" transform="translate(-718.854 -1138.834)">
      <g id="Group_54" data-name="Group 54" transform="translate(7.854 6.834)" clip-path="url(#clip-path)">
        <g id="Group_53" data-name="Group 53">
          <g id="Group_52" data-name="Group 52" clip-path="url(#clip-path)">
            <path id="Path_50" data-name="Path 50" d="M113.181,57.513a66.849,66.849,0,0,0-4.692-13.91A60.785,60.785,0,0,0,98.517,28.21,41.438,41.438,0,0,0,86.73,18.956a37.7,37.7,0,0,0-11.524-3.4,73.858,73.858,0,0,0-11-.56,72.141,72.141,0,0,0-12.968,1.238A38.494,38.494,0,0,0,39.162,20.3c-8.1,4.518-13.439,11.561-17.3,19.813a70.7,70.7,0,0,0-4.527,12.6,65.809,65.809,0,0,0-2.249,14.627,55.47,55.47,0,0,0,.249,9.6,25.966,25.966,0,0,0,1.792,7.047c2.234,4.89,6.1,8.129,10.723,10.577a71.544,71.544,0,0,0,15.017,5.507,8.247,8.247,0,0,0,4.443.229c.2-.65-.141-1.053-.413-1.5a61.74,61.74,0,0,1-3.74-7.089A86.006,86.006,0,0,1,39.592,82.2q-.82-2.622-1.456-5.282A31.41,31.41,0,0,0,48.5,84a44.778,44.778,0,0,0,9.9,2.606,32.843,32.843,0,0,0,15.813-1.49A32.723,32.723,0,0,0,89.617,74.542a19.268,19.268,0,0,0,1.823-2.569,98.1,98.1,0,0,1-2.236,9.7,112.363,112.363,0,0,1-5.58,16.037c-.145.321-.392.683-.163,1.022.272.4.715.221,1.1.173A21.935,21.935,0,0,0,89.189,97.7a45.894,45.894,0,0,0,16.377-10.129,24.849,24.849,0,0,0,6.492-10.086,36.4,36.4,0,0,0,1.123-19.968" transform="translate(-12.329 -12.329)" fill="#593624"/>
            <path id="Path_52" data-name="Path 52" d="M134.1,107.817a25.387,25.387,0,0,1,5.377-7.964c3.553-3.561,7.981-3.47,11.732-1.276,1.065.623,1.716.683,2.642-.283a10.5,10.5,0,0,1,5.631-3c2.21-.433,4.134.512,6,1.576,3.88,2.213,6.431,5.647,8.744,9.338a77.112,77.112,0,0,0,6.737,9.742,9.464,9.464,0,0,0,.67.682c1.366,1.288,2.136,1.225,3.2-.286A5.463,5.463,0,0,1,187.772,114a4.6,4.6,0,0,1,5.332,2.183c2.094,3.51,1.841,8.988-.893,12.051-2.213,2.479-4.078,3.057-7.115.99a6.174,6.174,0,0,0-.6,3.221c.087,3.194-1.376,5.68-3.294,8.006A34.4,34.4,0,0,1,150,152.517a44.779,44.779,0,0,1-9.9-2.606,31.712,31.712,0,0,1-11.547-8.339,5.272,5.272,0,0,1-.912-2.925,102.861,102.861,0,0,1-1.205-12.993,4.331,4.331,0,0,1,1.038-3.188c1.784-2.053,2.609-4.653,3.685-7.089s1.957-4.977,2.951-7.559" transform="translate(-103.918 -78.242)" fill="#fee0c6"/>
            <path id="Path_53" data-name="Path 53" d="M134.1,107.817a25.387,25.387,0,0,1,5.377-7.964c3.553-3.561,7.981-3.47,11.732-1.276,1.065.623,1.716.683,2.642-.283a10.5,10.5,0,0,1,5.631-3c2.21-.433,4.134.512,6,1.576,3.88,2.213,6.431,5.647,8.744,9.338a77.112,77.112,0,0,0,6.737,9.742,9.464,9.464,0,0,0,.67.682c1.366,1.288,2.136,1.225,3.2-.286A5.463,5.463,0,0,1,187.772,114a4.6,4.6,0,0,1,5.332,2.183c2.094,3.51,1.841,8.988-.893,12.051-2.213,2.479-4.078,3.057-7.115.99a6.174,6.174,0,0,0-.6,3.221c.087,3.194-1.376,5.68-3.294,8.006A34.4,34.4,0,0,1,150,152.517a44.779,44.779,0,0,1-9.9-2.606,31.712,31.712,0,0,1-11.547-8.339,5.272,5.272,0,0,1-.912-2.925,102.861,102.861,0,0,1-1.205-12.993,4.331,4.331,0,0,1,1.038-3.188c1.784-2.053,2.609-4.653,3.685-7.089s1.957-4.977,2.951-7.559" transform="translate(-103.918 -78.242)" fill="#fee0c6"/>
            <path id="Path_54" data-name="Path 54" d="M353.31,263.338a12.2,12.2,0,0,0,7.879,11.407,34.2,34.2,0,0,0,6.5-6.1c1.918-2.327,3.381-4.812,3.295-8.006-.029-1.051-.849-4.569-.284-5.588,0-1.062-.041-1.983-.113-2.794a12.195,12.195,0,0,0-17.281,11.084" transform="translate(-290.406 -206.428)" fill="#fa9"/>
            <path id="Path_55" data-name="Path 55" d="M135.256,282.8a12.137,12.137,0,0,0-7.165,2.329c.213,2.563.524,5.115.912,7.658a5.274,5.274,0,0,0,.912,2.925,31.711,31.711,0,0,0,11.547,8.339c.444.186.891.359,1.341.521a12.193,12.193,0,0,0-7.547-21.772" transform="translate(-105.286 -232.451)" fill="#fa9"/>
            <path id="Path_56" data-name="Path 56" d="M315.487,186.984a28.987,28.987,0,0,1-.978-6.213,8.227,8.227,0,0,1,.261-2.405,7.486,7.486,0,0,1,5.205-4.733,20.209,20.209,0,0,1,7.284-.415,7.4,7.4,0,0,1,1.713.263,5.755,5.755,0,0,1,1.377.691,12.119,12.119,0,0,1,5.4,9.217c.043.657-.041,1.447-.622,1.758a1.263,1.263,0,0,1-1.161-.06,3.732,3.732,0,0,1-.92-.778l-2.615-2.749a11.016,11.016,0,0,0-6.223-3.112,6.713,6.713,0,0,0-4.8,1.716,19.293,19.293,0,0,0-3.349,4c-.294.426-.6.871-.576,2.821" transform="translate(-258.512 -142.268)" fill="#fee0c6"/>
            <g id="Group_36" data-name="Group 36" transform="translate(66.058 49.266)" opacity="0.702">
              <g id="Group_35" data-name="Group 35">
                <g id="Group_34" data-name="Group 34" clip-path="url(#clip-path-3)">
                  <path id="Path_57" data-name="Path 57" d="M377.557,294.53a12.064,12.064,0,0,1-5.3-4.906,9.667,9.667,0,0,1-1.066-2.76,8.644,8.644,0,0,1,4.1-9.033,9.017,9.017,0,0,1,9.933.824l-.335.416a8.472,8.472,0,0,0-9.333-.777,8.1,8.1,0,0,0-3.848,8.46,9.143,9.143,0,0,0,1.009,2.607,11.519,11.519,0,0,0,5.06,4.684Z" transform="translate(-371.027 -276.714)" fill="#fffcf8"/>
                </g>
              </g>
            </g>
            <g id="Group_39" data-name="Group 39" transform="translate(70.629 52.017)" opacity="0.702">
              <g id="Group_38" data-name="Group 38">
                <g id="Group_37" data-name="Group 37" clip-path="url(#clip-path-4)">
                  <path id="Path_58" data-name="Path 58" d="M400.84,305.271a6.539,6.539,0,0,1-4.136-5.821,7.837,7.837,0,0,1,1.736-4.893,6.332,6.332,0,0,1,2.467-2.04,4.81,4.81,0,0,1,5.23,1.086l-.388.367a4.26,4.26,0,0,0-4.632-.961,5.809,5.809,0,0,0-2.254,1.874,7.3,7.3,0,0,0-1.625,4.554,6.074,6.074,0,0,0,3.791,5.335Z" transform="translate(-396.702 -292.163)" fill="#fffcf8"/>
                </g>
              </g>
            </g>
            <g id="Group_42" data-name="Group 42" transform="translate(73.33 56.268)" opacity="0.702">
              <g id="Group_41" data-name="Group 41">
                <g id="Group_40" data-name="Group 40" clip-path="url(#clip-path-5)">
                  <path id="Path_59" data-name="Path 59" d="M414.827,323.275a5.71,5.71,0,0,1-2.4-2.144,3.779,3.779,0,0,1-.344-3.216,2.88,2.88,0,0,1,2.621-1.876,2.007,2.007,0,0,1,.772.153,1.683,1.683,0,0,1,.263,2.949,1.391,1.391,0,0,1-1.4.11,1.065,1.065,0,0,1-.473-1.367l.476.244a.53.53,0,0,0,.25.652.863.863,0,0,0,.854-.085,1.149,1.149,0,0,0-.179-2.013,1.474,1.474,0,0,0-.567-.11,2.356,2.356,0,0,0-2.116,1.533,3.242,3.242,0,0,0,.306,2.756,5.18,5.18,0,0,0,2.176,1.937Z" transform="translate(-411.872 -316.039)" fill="#fffcf8"/>
                </g>
              </g>
            </g>
            <g id="Group_45" data-name="Group 45" transform="translate(23.917 54.517)" opacity="0.702">
              <g id="Group_44" data-name="Group 44">
                <g id="Group_43" data-name="Group 43" clip-path="url(#clip-path-6)">
                  <path id="Path_60" data-name="Path 60" d="M145.137,322.836l-.361-.394a11.458,11.458,0,0,0,3.384-5.368,8.927,8.927,0,0,0-.5-6.227,7.2,7.2,0,0,0-4.76-3.872,11.436,11.436,0,0,0-2.212-.226,13.29,13.29,0,0,0-3.211.215,5.591,5.591,0,0,0-2.763,1.4l-.376-.38a6.123,6.123,0,0,1,3.024-1.546,13.99,13.99,0,0,1,3.34-.227,11.932,11.932,0,0,1,2.316.239,7.743,7.743,0,0,1,5.121,4.157,9.468,9.468,0,0,1,.54,6.6,11.993,11.993,0,0,1-3.539,5.621" transform="translate(-134.335 -306.204)" fill="#fffcf8"/>
                </g>
              </g>
            </g>
            <g id="Group_48" data-name="Group 48" transform="translate(24.754 58.804)" opacity="0.702">
              <g id="Group_47" data-name="Group 47">
                <g id="Group_46" data-name="Group 46" clip-path="url(#clip-path-7)">
                  <path id="Path_61" data-name="Path 61" d="M147.033,341.582l-.346-.407a6.45,6.45,0,0,0,1.727-2.976,7.3,7.3,0,0,0,.432-3.742,4.936,4.936,0,0,0-4.068-3.582,6.811,6.811,0,0,0-5.387,1.768l-.354-.4a7.348,7.348,0,0,1,5.82-1.9,5.413,5.413,0,0,1,4.511,4,7.785,7.785,0,0,1-.447,4.024,6.924,6.924,0,0,1-1.888,3.215" transform="translate(-139.038 -330.281)" fill="#fffcf8"/>
                </g>
              </g>
            </g>
            <g id="Group_51" data-name="Group 51" transform="translate(28.805 62.349)" opacity="0.702">
              <g id="Group_50" data-name="Group 50">
                <g id="Group_49" data-name="Group 49" clip-path="url(#clip-path-8)">
                  <path id="Path_62" data-name="Path 62" d="M162.9,356.131l-.234-.48a3.275,3.275,0,0,0,1.509-4.378,1.1,1.1,0,0,0-.338-.443.836.836,0,0,0-.655-.064,1.137,1.137,0,0,0-.852.848.823.823,0,0,0,.15.6.646.646,0,0,0,.415.275.428.428,0,0,0,.46-.207.238.238,0,0,0-.038-.211.133.133,0,0,0-.106-.068l-.023-.534a.653.653,0,0,1,.565.293.766.766,0,0,1,.1.718.958.958,0,0,1-1.04.535,1.176,1.176,0,0,1-.764-.491,1.349,1.349,0,0,1-.243-1,1.661,1.661,0,0,1,1.246-1.277,1.346,1.346,0,0,1,1.078.133,1.593,1.593,0,0,1,.528.657,3.809,3.809,0,0,1-1.755,5.092" transform="translate(-161.789 -350.195)" fill="#fffcf8"/>
                </g>
              </g>
            </g>
            <path id="Path_63" data-name="Path 63" d="M312.142,163.077c-.859.447-1.676.688-2.137-.3-.5-1.07-.868-2.3.3-3.17,3.361-2.519,11.717-2.694,15.145-.4,1.019.681,1.358,1.83,1.995,2.772.106.156.093.58-.015.651a.931.931,0,0,1-.757.094c-4.865-2.059-9.667-1.613-14.53.35" transform="translate(-254.42 -129.54)" fill="#402416"/>
            <path id="Path_64" data-name="Path 64" d="M157.579,179.525a22.555,22.555,0,0,1,6.291-.532c1.291.13,2.6.339,2.823,2.023.2,1.546-.275,2.375-2.013,2.183a20.477,20.477,0,0,0-13.319,3.022c-.318-3.307,2.091-5.865,6.217-6.7" transform="translate(-124.39 -147.073)" fill="#402416"/>
            <path id="Path_65" data-name="Path 65" d="M303.237,176.611c-.2.092-.049.934.1,1.315a4.25,4.25,0,0,0,.7,1.243c.153.2.565.537.76.417a.248.248,0,0,0-.01-.276,3.125,3.125,0,0,1-1.146-1.964c-.026-.135-.07-.471-.112-.6a.193.193,0,0,0-.291-.133" transform="translate(-249.17 -145.145)" fill="#402416"/>
            <path id="Path_66" data-name="Path 66" d="M240.029,185.089c.214.039.285.891.24,1.3a4.254,4.254,0,0,1-.364,1.381c-.1.229-.411.662-.63.6a.248.248,0,0,1-.06-.269,3.125,3.125,0,0,0,.61-2.19c-.009-.137-.052-.473-.045-.611a.193.193,0,0,1,.248-.2" transform="translate(-196.613 -152.132)" fill="#402416"/>
            <path id="Path_67" data-name="Path 67" d="M98.517,28.21A60.782,60.782,0,0,1,108.488,43.6a66.844,66.844,0,0,1,4.692,13.91,36.4,36.4,0,0,1-1.123,19.968,24.854,24.854,0,0,1-6.492,10.085A45.9,45.9,0,0,1,89.189,97.7a21.941,21.941,0,0,1-4.624,1.211c-.389.048-.832.23-1.1-.173-.23-.339.018-.7.163-1.022A112.37,112.37,0,0,0,89.2,81.675,95.055,95.055,0,0,0,91.61,70.953c.474-3,.609-4.883.864-7.906.026-.309-.092-1.8.153-2.1.449.151.624.56.874.906,1.645,2.283,3.907,2.5,5.892.5a8.691,8.691,0,0,0,2.278-6.61,8.956,8.956,0,0,0-.851-4.062c-1.562-3.052-4.626-3.34-6.715-.588-1.4,1.849-2.182,1.974-4.075.577a12.943,12.943,0,0,1-1.5-1.374,36.891,36.891,0,0,1-4.26-6.071,66.311,66.311,0,0,0-5.661-8.167c-2.43-2.736-5.166-5.013-8.9-5.721a6.883,6.883,0,0,0-3.915.817,14.7,14.7,0,0,0-3.967,2.663,1.468,1.468,0,0,1-1.959.091c-5.1-3.136-8.637-2.229-12.387,1.717-2.822,2.969-4.325,6.68-5.81,10.4-1.27,3.184-2.047,5.711-3.632,8.88-.072.143-.645,1.223-.733,1.347-1.977,2.786-1.737,2.583-1.662,5.118a91.476,91.476,0,0,0,1.236,9.32,83.051,83.051,0,0,0,2.708,11.5,86.008,86.008,0,0,0,3.562,9.506,61.771,61.771,0,0,0,3.74,7.089c.273.444.617.847.413,1.5a8.247,8.247,0,0,1-4.443-.229,71.535,71.535,0,0,1-15.017-5.508c-4.62-2.448-8.489-5.688-10.723-10.577a25.974,25.974,0,0,1-1.792-7.047,55.487,55.487,0,0,1-.249-9.6A65.821,65.821,0,0,1,17.334,52.71a70.69,70.69,0,0,1,4.527-12.6c3.861-8.252,9.2-15.3,17.3-19.813a38.494,38.494,0,0,1,12.075-4.06A72.142,72.142,0,0,1,64.205,15a73.884,73.884,0,0,1,11,.56,37.7,37.7,0,0,1,11.524,3.4A41.435,41.435,0,0,1,98.517,28.21" transform="translate(-12.329 -12.329)" fill="#593624"/>
            <path id="Path_68" data-name="Path 68" d="M98.517,28.21A60.782,60.782,0,0,1,108.488,43.6a66.844,66.844,0,0,1,4.692,13.91,36.4,36.4,0,0,1-1.123,19.968,24.854,24.854,0,0,1-6.492,10.085A45.9,45.9,0,0,1,89.189,97.7a21.941,21.941,0,0,1-4.624,1.211c-.389.048-.832.23-1.1-.173-.23-.339.018-.7.163-1.022A112.37,112.37,0,0,0,89.2,81.675,95.055,95.055,0,0,0,91.61,70.953c.474-3,.609-4.883.864-7.906.026-.309-.092-1.8.153-2.1.449.151.624.56.874.906,1.645,2.283,3.907,2.5,5.892.5a8.691,8.691,0,0,0,2.278-6.61,8.956,8.956,0,0,0-.851-4.062c-1.562-3.052-4.626-3.34-6.715-.588-1.4,1.849-2.182,1.974-4.075.577a12.943,12.943,0,0,1-1.5-1.374,36.891,36.891,0,0,1-4.26-6.071,66.311,66.311,0,0,0-5.661-8.167c-2.43-2.736-5.166-5.013-8.9-5.721a6.883,6.883,0,0,0-3.915.817,14.7,14.7,0,0,0-3.967,2.663,1.468,1.468,0,0,1-1.959.091c-5.1-3.136-8.637-2.229-12.387,1.717-2.822,2.969-4.325,6.68-5.81,10.4-1.27,3.184-2.047,5.711-3.632,8.88-.072.143-.645,1.223-.733,1.347-1.977,2.786-1.737,2.583-1.662,5.118a91.476,91.476,0,0,0,1.236,9.32,83.051,83.051,0,0,0,2.708,11.5,86.008,86.008,0,0,0,3.562,9.506,61.771,61.771,0,0,0,3.74,7.089c.273.444.617.847.413,1.5a8.247,8.247,0,0,1-4.443-.229,71.535,71.535,0,0,1-15.017-5.508c-4.62-2.448-8.489-5.688-10.723-10.577a25.974,25.974,0,0,1-1.792-7.047,55.487,55.487,0,0,1-.249-9.6A65.821,65.821,0,0,1,17.334,52.71a70.69,70.69,0,0,1,4.527-12.6c3.861-8.252,9.2-15.3,17.3-19.813a38.494,38.494,0,0,1,12.075-4.06A72.142,72.142,0,0,1,64.205,15a73.884,73.884,0,0,1,11,.56,37.7,37.7,0,0,1,11.524,3.4A41.435,41.435,0,0,1,98.517,28.21" transform="translate(-12.329 -12.329)" fill="#593624"/>
            <path id="Path_69" data-name="Path 69" d="M374.411,225.327a.89.89,0,1,1,.89.89.89.89,0,0,1-.89-.89" transform="translate(-307.75 -184.478)" fill="#fffcf8"/>
            <path id="Path_70" data-name="Path 70" d="M320.48,211.107a5.964,5.964,0,0,0-.567,1.662,1.919,1.919,0,0,0,.288,1.634,2.938,2.938,0,0,0,2.561.608c2.02-.188,3.795-.578,5.987-.846.641-.078,1.144-.235,2.239-.332,1.4-.172,2.491-.364,3.894-.535.334-.041.484-.043.62-.238.18-.257.7-.562.8-.861a3.429,3.429,0,0,0-.327-3.114c-.638-.819-1.732-1.117-2.548-1.759-.346-.272-.641-.606-1-.859a4.5,4.5,0,0,0-1.71-.656,8.634,8.634,0,0,0-10.232,5.3" transform="translate(-262.908 -168.994)" fill="#fffcf8"/>
            <path id="Path_71" data-name="Path 71" d="M262.613,49.519a116.447,116.447,0,0,1-2-15.859.065.065,0,0,1,.129-.014c.963,5.321,2.106,10.949,2.489,15.773a1.129,1.129,0,0,1-.622.1" transform="translate(-214.216 -27.611)" fill="#0f0b0a"/>
            <path id="Path_72" data-name="Path 72" d="M128.664,203.507a34.766,34.766,0,0,1,.786-14.613c-.257,2.42-.512,4.864-.636,7.293-.139,2.429-.147,4.885-.15,7.32" transform="translate(-105.397 -155.263)" fill="#0f0b0a"/>
            <path id="Path_73" data-name="Path 73" d="M335.1,213.15a6.246,6.246,0,0,1,6.282-2.712,4.943,4.943,0,0,1,4.347,3.841c.515,1.8-.265,3.14-2.091,3.369-2.32.291-4.625.72-6.94,1.01-1.467.184-1.828-.308-2.11-1.155a4.985,4.985,0,0,1,.513-4.353" transform="translate(-274.789 -172.909)" fill="#0f0b0a"/>
            <path id="Path_74" data-name="Path 74" d="M330.246,203.394c-4.622-.92-8.358,1.444-10.269,6.44a.094.094,0,0,1-.182-.039,9.142,9.142,0,0,1,1.933-4.691,9.335,9.335,0,0,1,13.963.261c1.294,1.391,2.457,2.933,4.435,3.8a9.408,9.408,0,0,1-4.523,1.179.142.142,0,0,1-.152-.159c.437-3.887-1.62-5.819-5.2-6.784l-.009,0" transform="translate(-262.858 -166.113)" fill="#0f0b0a"/>
            <path id="Path_75" data-name="Path 75" d="M148.852,260.546a17.856,17.856,0,0,1,5.811,1.339.064.064,0,0,1-.034.123c-6.383-.912-12.186,2.446-18.431,2.549,3.933-2.193,7.867-4.279,12.654-4.01" transform="translate(-111.949 -214.139)" fill="#0f0b0a"/>
            <path id="Path_76" data-name="Path 76" d="M158.479,236.79c-3.745-1.23-7.2-1.2-10.522.85a22.065,22.065,0,0,0-2.1,1.632.143.143,0,0,1-.2-.2,8.7,8.7,0,0,1,4-2.839,13.118,13.118,0,0,1,12.75,2.128.1.1,0,0,1-.1.166,20.207,20.207,0,0,0-3.832-1.737" transform="translate(-119.698 -193.517)" fill="#0f0b0a"/>
            <path id="Path_77" data-name="Path 77" d="M320.894,193.952a2.017,2.017,0,0,1-.435.191c-2.784.9-5.464,4.074-6.417,7.25a9.972,9.972,0,0,1,6.84-7.678c.369-.106.326.046.012.237" transform="translate(-258.13 -159.197)" fill="#0f0b0a"/>
            <path id="Path_78" data-name="Path 78" d="M375.97,191.2a7.537,7.537,0,0,1,6.427,3.245c.041.056-.037.13-.086.081a9.466,9.466,0,0,0-4.313-2.87,6.285,6.285,0,0,0-1.929-.178c-.323.06-.417-.234-.1-.279" transform="translate(-308.87 -157.136)" fill="#0f0b0a"/>
            <path id="Path_79" data-name="Path 79" d="M221.692,353.792a28.341,28.341,0,0,1-7.01-1.049,14.447,14.447,0,0,1-5.6-2.893,2.2,2.2,0,0,1-.426-.418c-.153-.2-.263-.419-.111-.626.207-.282.5-.1.664.028a24.942,24.942,0,0,0,3.511,2.331,22.987,22.987,0,0,0,9.929,2.067c.33,0,.942-.18,1.019.191.1.465-1.147.389-1.977.371" transform="translate(-171.358 -286.582)" fill="#0f0b0a"/>
            <path id="Path_80" data-name="Path 80" d="M316.387,324.775a25.033,25.033,0,0,1-2.552.937.228.228,0,0,1-.149-.422c.464-.264,2.184-.829,3.152-1.379,2.786-1.584,5.568-3,8.264-6.774.251-.352.851-1.483,1.405-1.1.6.415-.217,1.464-.472,1.838a18.556,18.556,0,0,1-4.379,3.966,34.606,34.606,0,0,1-5.27,2.934" transform="translate(-257.743 -259.706)" fill="#0f0b0a"/>
            <path id="Path_81" data-name="Path 81" d="M267.607,313.206c.674.126,1.141.473,1.027,1.067-.109.573-.769.64-1.22.593a4.636,4.636,0,0,0-3.307,1.039,3.344,3.344,0,0,1-3.395.2,3.421,3.421,0,0,0-2.682-.352c-.184.047-.706.122-.9.141a.83.83,0,0,1-.941-.573.76.76,0,0,1,.5-.944c.761-.256,1.529-.376,3,.7,1.334.976,2.993,1.4,4.055.563.475-.375.937-.975,1.359-1.378a3.065,3.065,0,0,1,2.509-1.058" transform="translate(-210.542 -257.432)" fill="#0f0b0a"/>
            <path id="Path_82" data-name="Path 82" d="M461.7,226.617c.76-2.775,2.308-3.673,2.857-3.742s.965.13.838.5c-.193.555-.743-.421-1.743.818a7.557,7.557,0,0,0-1.564,5.169c.015.346.33,3.121,1.851,1.391.109-.124.287-.374.479-.165.155.169-.025.382-.142.525-.409.5-.779.849-1.364.808a1.494,1.494,0,0,1-1.24-1.117,6.965,6.965,0,0,1,.027-4.182" transform="translate(-379.226 -183.182)" fill="#0f0b0a"/>
            <path id="Path_83" data-name="Path 83" d="M243.346,304.027a2.879,2.879,0,0,1,.41-1.331,2.191,2.191,0,0,1,1.162-1.027c.227-.072.535.137.267.4-.2.193-.362.286-.557.482a2.494,2.494,0,0,0-.527,2.656,2.362,2.362,0,0,0,1.994,1.629c.187.033.642-.093.612.256-.02.235-.443.228-.692.2a2.92,2.92,0,0,1-2.669-3.268" transform="translate(-200.013 -247.947)" fill="#0f0b0a"/>
            <path id="Path_84" data-name="Path 84" d="M326.4,296.53a1.347,1.347,0,0,0-.477-.371c-.269-.13-.624-.257-.445-.532.2-.3.652.02.924.223,1.551,1.155,1.276,3.75-.307,4.908-.208.152-.613.346-.747.162-.226-.31.189-.413.395-.572a2.781,2.781,0,0,0,.657-3.819" transform="translate(-267.369 -242.893)" fill="#0f0b0a"/>
            <path id="Path_85" data-name="Path 85" d="M379.411,223.306a1.914,1.914,0,1,1,1.914,1.914,1.914,1.914,0,0,1-1.914-1.914" transform="translate(-311.86 -181.975)" fill="#fffcf8"/>
          </g>
        </g>
      </g>
    </g>
  </g>
</svg>
