<svg xmlns="http://www.w3.org/2000/svg" xmlns:xlink="http://www.w3.org/1999/xlink" width="160" height="160" viewBox="0 0 160 160">
  <defs>
    <clipPath id="clip-path">
      <rect id="Rectangle_103" data-name="Rectangle 103" width="151.255" height="131.609" fill="none"/>
    </clipPath>
    <clipPath id="clip-path-3">
      <rect id="Rectangle_96" data-name="Rectangle 96" width="20.572" height="25.81" fill="none"/>
    </clipPath>
    <clipPath id="clip-path-4">
      <rect id="Rectangle_97" data-name="Rectangle 97" width="13.667" height="18.988" fill="none"/>
    </clipPath>
    <clipPath id="clip-path-5">
      <rect id="Rectangle_98" data-name="Rectangle 98" width="6.7" height="10.482" fill="none"/>
    </clipPath>
    <clipPath id="clip-path-6">
      <rect id="Rectangle_99" data-name="Rectangle 99" width="21.287" height="24.093" fill="none"/>
    </clipPath>
    <clipPath id="clip-path-7">
      <rect id="Rectangle_100" data-name="Rectangle 100" width="15.13" height="16.371" fill="none"/>
    </clipPath>
    <clipPath id="clip-path-8">
      <rect id="Rectangle_101" data-name="Rectangle 101" width="4.709" height="8.599" fill="none"/>
    </clipPath>
  </defs>
  <g id="Group_67" data-name="Group 67" transform="translate(739 1167)">
    <rect id="Rectangle_104" data-name="Rectangle 104" width="160" height="160" transform="translate(-739 -1167)" fill="#fcb200"/>
    <g id="Group_66" data-name="Group 66" transform="translate(-742.275 -1159.213)">
      <g id="Group_54" data-name="Group 54" transform="translate(7.854 6.834)" clip-path="url(#clip-path)">
        <g id="Group_53" data-name="Group 53">
          <g id="Group_52" data-name="Group 52" clip-path="url(#clip-path)">
            <path id="Path_50" data-name="Path 50" d="M157.226,76.585a96.84,96.84,0,0,0-6.8-20.15,88.055,88.055,0,0,0-14.445-22.3,60.027,60.027,0,0,0-17.075-13.406,54.61,54.61,0,0,0-16.694-4.919A106.992,106.992,0,0,0,86.28,15a104.5,104.5,0,0,0-18.786,1.794A55.763,55.763,0,0,0,50,22.675C38.264,29.22,30.533,39.423,24.94,51.376a102.417,102.417,0,0,0-6.558,18.251,95.331,95.331,0,0,0-3.258,21.189,80.354,80.354,0,0,0,.36,13.9,37.615,37.615,0,0,0,2.6,10.208c3.236,7.083,8.84,11.776,15.533,15.323,6.882,3.646,14.279,5.959,21.753,7.978a11.947,11.947,0,0,0,6.436.332c.3-.941-.2-1.526-.6-2.169a89.437,89.437,0,0,1-5.417-10.269,124.589,124.589,0,0,1-5.161-13.771q-1.188-3.8-2.109-7.651a45.5,45.5,0,0,0,15.02,10.253,64.866,64.866,0,0,0,14.348,3.775c7.883,1.345,15.492.234,22.907-2.158a47.4,47.4,0,0,0,22.3-15.314,27.912,27.912,0,0,0,2.641-3.721,142.109,142.109,0,0,1-3.239,14.054,162.77,162.77,0,0,1-8.083,23.231c-.209.465-.568.989-.236,1.481.394.583,1.036.321,1.6.25a31.776,31.776,0,0,0,6.7-1.755A66.482,66.482,0,0,0,146.2,120.12a36,36,0,0,0,9.4-14.61,52.736,52.736,0,0,0,1.626-28.925" transform="translate(-11.131 -11.131)" fill="#593624"/>
            <path id="Path_52" data-name="Path 52" d="M137.548,113.482a36.775,36.775,0,0,1,7.789-11.537c5.147-5.159,11.561-5.026,16.995-1.848,1.543.9,2.486.99,3.827-.409a15.21,15.21,0,0,1,8.157-4.342c3.2-.628,5.988.741,8.693,2.284,5.62,3.206,9.316,8.18,12.666,13.527,3.038,4.849,6,9.762,9.76,14.112a13.714,13.714,0,0,0,.971.988c1.978,1.867,3.094,1.774,4.64-.414a7.914,7.914,0,0,1,4.246-3.4,6.657,6.657,0,0,1,7.723,3.162c3.034,5.085,2.667,13.02-1.293,17.457-3.205,3.592-5.907,4.429-10.307,1.434a8.944,8.944,0,0,0-.864,4.667c.126,4.627-1.993,8.228-4.772,11.6a47.406,47.406,0,0,1-22.3,15.314c-7.415,2.392-15.024,3.5-22.907,2.158a64.868,64.868,0,0,1-14.348-3.775A45.939,45.939,0,0,1,129.5,162.38c-1.07-1.2-1.105-2.823-1.321-4.237a149.006,149.006,0,0,1-1.746-18.823,6.274,6.274,0,0,1,1.5-4.618c2.585-2.974,3.779-6.74,5.339-10.27s2.835-7.21,4.275-10.951" transform="translate(-93.82 -70.639)" fill="#fee0c6"/>
            <path id="Path_53" data-name="Path 53" d="M137.548,113.482a36.775,36.775,0,0,1,7.789-11.537c5.147-5.159,11.561-5.026,16.995-1.848,1.543.9,2.486.99,3.827-.409a15.21,15.21,0,0,1,8.157-4.342c3.2-.628,5.988.741,8.693,2.284,5.62,3.206,9.316,8.18,12.666,13.527,3.038,4.849,6,9.762,9.76,14.112a13.714,13.714,0,0,0,.971.988c1.978,1.867,3.094,1.774,4.64-.414a7.914,7.914,0,0,1,4.246-3.4,6.657,6.657,0,0,1,7.723,3.162c3.034,5.085,2.667,13.02-1.293,17.457-3.205,3.592-5.907,4.429-10.307,1.434a8.944,8.944,0,0,0-.864,4.667c.126,4.627-1.993,8.228-4.772,11.6a47.406,47.406,0,0,1-22.3,15.314c-7.415,2.392-15.024,3.5-22.907,2.158a64.868,64.868,0,0,1-14.348-3.775A45.939,45.939,0,0,1,129.5,162.38c-1.07-1.2-1.105-2.823-1.321-4.237a149.006,149.006,0,0,1-1.746-18.823,6.274,6.274,0,0,1,1.5-4.618c2.585-2.974,3.779-6.74,5.339-10.27s2.835-7.21,4.275-10.951" transform="translate(-93.82 -70.639)" fill="#fee0c6"/>
            <path id="Path_54" data-name="Path 54" d="M353.31,268.809a17.671,17.671,0,0,0,11.414,16.525,49.547,49.547,0,0,0,9.422-8.841c2.779-3.37,4.9-6.971,4.772-11.6-.041-1.523-1.23-6.619-.411-8.094,0-1.539-.06-2.873-.163-4.047a17.666,17.666,0,0,0-25.034,16.057" transform="translate(-262.187 -186.369)" fill="#fa9"/>
            <path id="Path_55" data-name="Path 55" d="M138.47,282.8a17.582,17.582,0,0,0-10.379,3.374c.309,3.712.759,7.41,1.321,11.094.216,1.414.251,3.033,1.321,4.237a45.937,45.937,0,0,0,16.727,12.08c.643.27,1.291.52,1.943.755A17.663,17.663,0,0,0,138.47,282.8" transform="translate(-95.055 -209.863)" fill="#fa9"/>
            <path id="Path_56" data-name="Path 56" d="M315.926,193.219a41.991,41.991,0,0,1-1.416-9,11.917,11.917,0,0,1,.379-3.484c.977-3.406,4.147-5.836,7.54-6.856s7.017-.857,10.552-.6a10.72,10.72,0,0,1,2.481.381,8.336,8.336,0,0,1,1.995,1,17.556,17.556,0,0,1,7.828,13.352c.062.952-.06,2.1-.9,2.547a1.83,1.83,0,0,1-1.682-.087,5.405,5.405,0,0,1-1.333-1.127l-3.788-3.983a15.958,15.958,0,0,0-9.014-4.508,9.724,9.724,0,0,0-6.954,2.486,27.948,27.948,0,0,0-4.852,5.794c-.427.617-.863,1.262-.834,4.086" transform="translate(-233.392 -128.444)" fill="#fee0c6"/>
            <g id="Group_36" data-name="Group 36" transform="translate(95.693 71.368)" opacity="0.702">
              <g id="Group_35" data-name="Group 35">
                <g id="Group_34" data-name="Group 34" clip-path="url(#clip-path-3)">
                  <path id="Path_57" data-name="Path 57" d="M380.487,302.523a17.477,17.477,0,0,1-7.678-7.106,14,14,0,0,1-1.545-4,12.522,12.522,0,0,1,5.946-13.085,13.062,13.062,0,0,1,14.389,1.194l-.485.6a12.273,12.273,0,0,0-13.52-1.126,11.729,11.729,0,0,0-5.574,12.255,13.243,13.243,0,0,0,1.461,3.776,16.686,16.686,0,0,0,7.33,6.785Z" transform="translate(-371.027 -276.714)" fill="#fffcf8"/>
                </g>
              </g>
            </g>
            <g id="Group_39" data-name="Group 39" transform="translate(102.315 75.353)" opacity="0.702">
              <g id="Group_38" data-name="Group 38">
                <g id="Group_37" data-name="Group 37" clip-path="url(#clip-path-4)">
                  <path id="Path_58" data-name="Path 58" d="M402.7,311.151a9.472,9.472,0,0,1-5.992-8.432,11.353,11.353,0,0,1,2.514-7.088,9.172,9.172,0,0,1,3.574-2.955,6.967,6.967,0,0,1,7.576,1.572l-.562.531a6.171,6.171,0,0,0-6.709-1.392,8.414,8.414,0,0,0-3.265,2.715,10.581,10.581,0,0,0-2.354,6.6,8.8,8.8,0,0,0,5.492,7.728Z" transform="translate(-396.702 -292.163)" fill="#fffcf8"/>
                </g>
              </g>
            </g>
            <g id="Group_42" data-name="Group 42" transform="translate(106.227 81.511)" opacity="0.702">
              <g id="Group_41" data-name="Group 41">
                <g id="Group_40" data-name="Group 40" clip-path="url(#clip-path-5)">
                  <path id="Path_59" data-name="Path 59" d="M416.153,326.521a8.271,8.271,0,0,1-3.47-3.105,5.475,5.475,0,0,1-.5-4.659,4.173,4.173,0,0,1,3.8-2.718,2.907,2.907,0,0,1,1.118.222,2.438,2.438,0,0,1,.381,4.272,2.015,2.015,0,0,1-2.029.16,1.543,1.543,0,0,1-.686-1.98l.689.353a.768.768,0,0,0,.362.945,1.25,1.25,0,0,0,1.236-.123,1.664,1.664,0,0,0-.26-2.916,2.136,2.136,0,0,0-.821-.159,3.413,3.413,0,0,0-3.065,2.221,4.7,4.7,0,0,0,.444,3.992,7.5,7.5,0,0,0,3.152,2.805Z" transform="translate(-411.872 -316.04)" fill="#fffcf8"/>
                </g>
              </g>
            </g>
            <g id="Group_45" data-name="Group 45" transform="translate(34.647 78.974)" opacity="0.702">
              <g id="Group_44" data-name="Group 44">
                <g id="Group_43" data-name="Group 43" clip-path="url(#clip-path-6)">
                  <path id="Path_60" data-name="Path 60" d="M149.983,330.3l-.523-.57a16.6,16.6,0,0,0,4.9-7.777,12.932,12.932,0,0,0-.73-9.021,10.436,10.436,0,0,0-6.9-5.609,16.567,16.567,0,0,0-3.2-.327,19.253,19.253,0,0,0-4.652.312,8.1,8.1,0,0,0-4,2.033l-.544-.55a8.87,8.87,0,0,1,4.381-2.239,20.265,20.265,0,0,1,4.839-.329,17.283,17.283,0,0,1,3.355.346,11.217,11.217,0,0,1,7.418,6.022,13.715,13.715,0,0,1,.782,9.567,17.374,17.374,0,0,1-5.127,8.143" transform="translate(-134.335 -306.204)" fill="#fffcf8"/>
                </g>
              </g>
            </g>
            <g id="Group_48" data-name="Group 48" transform="translate(35.86 85.184)" opacity="0.702">
              <g id="Group_47" data-name="Group 47">
                <g id="Group_46" data-name="Group 46" clip-path="url(#clip-path-7)">
                  <path id="Path_61" data-name="Path 61" d="M150.62,346.652l-.5-.59a9.344,9.344,0,0,0,2.5-4.311,10.582,10.582,0,0,0,.626-5.421,7.15,7.15,0,0,0-5.893-5.189,9.867,9.867,0,0,0-7.8,2.561l-.512-.58a10.645,10.645,0,0,1,8.431-2.747,7.841,7.841,0,0,1,6.534,5.79,11.278,11.278,0,0,1-.647,5.829,10.03,10.03,0,0,1-2.735,4.657" transform="translate(-139.038 -330.281)" fill="#fffcf8"/>
                </g>
              </g>
            </g>
            <g id="Group_51" data-name="Group 51" transform="translate(41.727 90.32)" opacity="0.702">
              <g id="Group_50" data-name="Group 50">
                <g id="Group_49" data-name="Group 49" clip-path="url(#clip-path-8)">
                  <path id="Path_62" data-name="Path 62" d="M163.4,358.794l-.339-.7a4.744,4.744,0,0,0,2.186-6.343,1.6,1.6,0,0,0-.49-.641,1.211,1.211,0,0,0-.948-.092,1.647,1.647,0,0,0-1.234,1.229,1.192,1.192,0,0,0,.217.87.935.935,0,0,0,.6.4.62.62,0,0,0,.666-.3.345.345,0,0,0-.055-.305.193.193,0,0,0-.153-.1l-.034-.773a.946.946,0,0,1,.818.425,1.109,1.109,0,0,1,.141,1.041,1.387,1.387,0,0,1-1.506.776,1.7,1.7,0,0,1-1.107-.711,1.954,1.954,0,0,1-.352-1.449,2.406,2.406,0,0,1,1.8-1.85,1.95,1.95,0,0,1,1.562.192,2.308,2.308,0,0,1,.764.951,5.517,5.517,0,0,1-2.543,7.377" transform="translate(-161.789 -350.195)" fill="#fffcf8"/>
                </g>
              </g>
            </g>
            <path id="Path_63" data-name="Path 63" d="M313.314,165.534c-1.244.648-2.427,1-3.1-.428-.726-1.55-1.258-3.325.432-4.592,4.869-3.649,16.973-3.9,21.939-.582,1.476.987,1.967,2.651,2.889,4.016.153.226.135.84-.021.943a1.348,1.348,0,0,1-1.1.136c-7.047-2.983-14-2.337-21.048.507" transform="translate(-229.698 -116.952)" fill="#402416"/>
            <path id="Path_64" data-name="Path 64" d="M160.381,179.792a32.674,32.674,0,0,1,9.114-.771c1.871.188,3.765.491,4.089,2.93.3,2.239-.4,3.441-2.916,3.162a29.663,29.663,0,0,0-19.293,4.377c-.461-4.791,3.029-8.5,9.007-9.7" transform="translate(-112.303 -132.782)" fill="#402416"/>
            <path id="Path_65" data-name="Path 65" d="M303.28,176.623c-.285.133-.072,1.353.14,1.9a6.157,6.157,0,0,0,1.017,1.8c.221.285.819.777,1.1.6a.359.359,0,0,0-.015-.4,4.528,4.528,0,0,1-1.66-2.845c-.038-.2-.1-.682-.162-.872a.28.28,0,0,0-.421-.193" transform="translate(-224.958 -131.041)" fill="#402416"/>
            <path id="Path_66" data-name="Path 66" d="M240.4,185.092c.31.056.413,1.291.348,1.878a6.162,6.162,0,0,1-.527,2c-.142.332-.595.959-.912.863a.359.359,0,0,1-.087-.39,4.526,4.526,0,0,0,.884-3.173c-.012-.2-.075-.685-.065-.884a.28.28,0,0,1,.359-.294" transform="translate(-177.507 -137.349)" fill="#402416"/>
            <path id="Path_67" data-name="Path 67" d="M135.984,34.137a88.05,88.05,0,0,1,14.445,22.3,96.832,96.832,0,0,1,6.8,20.15A52.736,52.736,0,0,1,155.6,105.51a36,36,0,0,1-9.4,14.61,66.489,66.489,0,0,1-23.724,14.673,31.784,31.784,0,0,1-6.7,1.755c-.563.07-1.2.333-1.6-.25-.332-.492.026-1.016.236-1.481a162.782,162.782,0,0,0,8.083-23.231,137.7,137.7,0,0,0,3.486-15.532c.687-4.352.882-7.073,1.252-11.453.038-.447-.133-2.6.221-3.04.651.218.9.811,1.266,1.313,2.383,3.307,5.659,3.625,8.535.73,2.617-2.634,3.355-5.991,3.3-9.576a12.974,12.974,0,0,0-1.233-5.885c-2.263-4.421-6.7-4.838-9.727-.852-2.033,2.678-3.161,2.859-5.9.836a18.75,18.75,0,0,1-2.171-1.99c-2.543-2.588-4.217-5.788-6.172-8.794-2.616-4.023-4.994-8.219-8.2-11.83-3.52-3.964-7.483-7.262-12.887-8.288-2.04-.387-3.868.449-5.671,1.184a21.287,21.287,0,0,0-5.747,3.857A2.126,2.126,0,0,1,80,42.4c-7.394-4.542-12.511-3.23-17.944,2.487-4.088,4.3-6.265,9.677-8.417,15.072-1.84,4.612-2.965,8.274-5.262,12.864-.1.208-.934,1.772-1.062,1.952-2.864,4.036-2.517,3.742-2.407,7.414a132.513,132.513,0,0,0,1.79,13.5,120.308,120.308,0,0,0,3.923,16.66,124.593,124.593,0,0,0,5.161,13.771A89.482,89.482,0,0,0,61.2,136.39c.395.643.894,1.227.6,2.169a11.947,11.947,0,0,1-6.436-.331c-7.475-2.019-14.872-4.332-21.753-7.978-6.693-3.546-12.3-8.239-15.533-15.322a37.627,37.627,0,0,1-2.6-10.208,80.379,80.379,0,0,1-.36-13.9,95.349,95.349,0,0,1,3.258-21.189A102.4,102.4,0,0,1,24.94,51.377C30.533,39.423,38.263,29.22,50,22.676a55.763,55.763,0,0,1,17.492-5.882A104.505,104.505,0,0,1,86.279,15a107.03,107.03,0,0,1,15.935.812,54.608,54.608,0,0,1,16.693,4.919,60.024,60.024,0,0,1,17.075,13.406" transform="translate(-11.131 -11.131)" fill="#593624"/>
            <path id="Path_68" data-name="Path 68" d="M135.984,34.137a88.05,88.05,0,0,1,14.445,22.3,96.832,96.832,0,0,1,6.8,20.15A52.736,52.736,0,0,1,155.6,105.51a36,36,0,0,1-9.4,14.61,66.489,66.489,0,0,1-23.724,14.673,31.784,31.784,0,0,1-6.7,1.755c-.563.07-1.2.333-1.6-.25-.332-.492.026-1.016.236-1.481a162.782,162.782,0,0,0,8.083-23.231,137.7,137.7,0,0,0,3.486-15.532c.687-4.352.882-7.073,1.252-11.453.038-.447-.133-2.6.221-3.04.651.218.9.811,1.266,1.313,2.383,3.307,5.659,3.625,8.535.73,2.617-2.634,3.355-5.991,3.3-9.576a12.974,12.974,0,0,0-1.233-5.885c-2.263-4.421-6.7-4.838-9.727-.852-2.033,2.678-3.161,2.859-5.9.836a18.75,18.75,0,0,1-2.171-1.99c-2.543-2.588-4.217-5.788-6.172-8.794-2.616-4.023-4.994-8.219-8.2-11.83-3.52-3.964-7.483-7.262-12.887-8.288-2.04-.387-3.868.449-5.671,1.184a21.287,21.287,0,0,0-5.747,3.857A2.126,2.126,0,0,1,80,42.4c-7.394-4.542-12.511-3.23-17.944,2.487-4.088,4.3-6.265,9.677-8.417,15.072-1.84,4.612-2.965,8.274-5.262,12.864-.1.208-.934,1.772-1.062,1.952-2.864,4.036-2.517,3.742-2.407,7.414a132.513,132.513,0,0,0,1.79,13.5,120.308,120.308,0,0,0,3.923,16.66,124.593,124.593,0,0,0,5.161,13.771A89.482,89.482,0,0,0,61.2,136.39c.395.643.894,1.227.6,2.169a11.947,11.947,0,0,1-6.436-.331c-7.475-2.019-14.872-4.332-21.753-7.978-6.693-3.546-12.3-8.239-15.533-15.322a37.627,37.627,0,0,1-2.6-10.208,80.379,80.379,0,0,1-.36-13.9,95.349,95.349,0,0,1,3.258-21.189A102.4,102.4,0,0,1,24.94,51.377C30.533,39.423,38.263,29.22,50,22.676a55.763,55.763,0,0,1,17.492-5.882A104.505,104.505,0,0,1,86.279,15a107.03,107.03,0,0,1,15.935.812,54.608,54.608,0,0,1,16.693,4.919,60.024,60.024,0,0,1,17.075,13.406" transform="translate(-11.131 -11.131)" fill="#593624"/>
            <path id="Path_69" data-name="Path 69" d="M374.411,225.727a1.29,1.29,0,1,1,1.289,1.29,1.29,1.29,0,0,1-1.289-1.29" transform="translate(-277.846 -166.552)" fill="#fffcf8"/>
            <path id="Path_70" data-name="Path 70" d="M320.76,213.579a8.64,8.64,0,0,0-.821,2.408,2.78,2.78,0,0,0,.417,2.367c.863,1,2.393,1,3.711.881,2.926-.273,5.5-.837,8.672-1.226.929-.113,1.657-.341,3.244-.481,2.032-.249,3.608-.527,5.64-.776.484-.059.7-.063.9-.345.26-.372,1.017-.814,1.154-1.247a4.967,4.967,0,0,0-.474-4.511c-.925-1.186-2.509-1.619-3.69-2.548-.5-.394-.929-.878-1.45-1.245a6.516,6.516,0,0,0-2.477-.95,14.046,14.046,0,0,0-8.626.875c-2.67,1.229-4.572,3.633-6.2,6.8" transform="translate(-237.361 -152.572)" fill="#fffcf8"/>
            <path id="Path_71" data-name="Path 71" d="M263.508,56.664a168.688,168.688,0,0,1-2.891-22.974.1.1,0,0,1,.188-.02c1.395,7.708,3.05,15.861,3.605,22.85a1.636,1.636,0,0,1-.9.145" transform="translate(-193.4 -24.928)" fill="#0f0b0a"/>
            <path id="Path_72" data-name="Path 72" d="M128.86,210.063A50.362,50.362,0,0,1,130,188.894c-.372,3.506-.742,7.046-.921,10.565-.2,3.519-.213,7.076-.217,10.6" transform="translate(-95.156 -140.176)" fill="#0f0b0a"/>
            <path id="Path_73" data-name="Path 73" d="M335.455,214.4a9.048,9.048,0,0,1,9.1-3.929,7.161,7.161,0,0,1,6.3,5.565c.746,2.611-.385,4.549-3.029,4.88-3.361.421-6.7,1.043-10.053,1.464-2.125.266-2.648-.446-3.057-1.673a7.221,7.221,0,0,1,.743-6.306" transform="translate(-248.087 -156.107)" fill="#0f0b0a"/>
            <path id="Path_74" data-name="Path 74" d="M334.934,203.977c-6.7-1.332-12.108,2.092-14.876,9.328a.136.136,0,0,1-.263-.057,13.244,13.244,0,0,1,2.8-6.8c5-5.5,14.071-6.243,20.227.378,1.874,2.016,3.559,4.248,6.425,5.5a13.629,13.629,0,0,1-6.552,1.708.206.206,0,0,1-.221-.23c.632-5.631-2.346-8.43-7.528-9.828l-.013,0" transform="translate(-237.316 -149.971)" fill="#0f0b0a"/>
            <path id="Path_75" data-name="Path 75" d="M154.528,260.557a25.867,25.867,0,0,1,8.418,1.939.093.093,0,0,1-.049.178c-9.247-1.321-17.653,3.543-26.7,3.692,5.7-3.177,11.4-6.2,18.33-5.809" transform="translate(-101.071 -193.331)" fill="#0f0b0a"/>
            <path id="Path_76" data-name="Path 76" d="M164.245,237.4c-5.425-1.781-10.429-1.736-15.243,1.231a31.965,31.965,0,0,0-3.036,2.363.208.208,0,0,1-.295-.289,12.608,12.608,0,0,1,5.8-4.112c6.783-2.346,12.92-1.033,18.47,3.083a.141.141,0,0,1-.144.241,29.272,29.272,0,0,0-5.551-2.517" transform="translate(-108.066 -174.712)" fill="#0f0b0a"/>
            <path id="Path_77" data-name="Path 77" d="M323.969,194.074a2.921,2.921,0,0,1-.63.276c-4.032,1.3-7.915,5.9-9.3,10.5.7-5.239,5.319-9.8,9.908-11.122.534-.153.472.066.018.344" transform="translate(-233.046 -143.727)" fill="#0f0b0a"/>
            <path id="Path_78" data-name="Path 78" d="M376.058,191.208c3.559-.345,7.174,1.805,9.31,4.7.06.081-.054.189-.125.118-2.505-2.505-4-3.474-6.248-4.158a9.1,9.1,0,0,0-2.795-.258c-.467.087-.6-.339-.142-.4" transform="translate(-278.856 -141.866)" fill="#0f0b0a"/>
            <path id="Path_79" data-name="Path 79" d="M227.621,356.1a41.056,41.056,0,0,1-10.155-1.52,20.928,20.928,0,0,1-8.108-4.191,3.187,3.187,0,0,1-.617-.606c-.222-.29-.38-.607-.161-.907.3-.409.717-.138.961.04a36.136,36.136,0,0,0,5.086,3.376,33.3,33.3,0,0,0,14.383,2.994c.478,0,1.364-.261,1.475.276.14.673-1.662.564-2.864.538" transform="translate(-154.707 -258.734)" fill="#0f0b0a"/>
            <path id="Path_80" data-name="Path 80" d="M317.65,328.73a36.27,36.27,0,0,1-3.7,1.358.33.33,0,0,1-.216-.611c.672-.383,3.164-1.2,4.566-2,4.036-2.295,8.066-4.347,11.972-9.813.364-.51,1.233-2.148,2.036-1.593.868.6-.314,2.12-.683,2.662-1.465,2.151-4.243,4.253-6.343,5.745a50.138,50.138,0,0,1-7.634,4.25" transform="translate(-232.697 -234.47)" fill="#0f0b0a"/>
            <path id="Path_81" data-name="Path 81" d="M272.749,313.212c.976.183,1.653.685,1.488,1.546-.159.83-1.114.928-1.767.859a6.716,6.716,0,0,0-4.79,1.505,4.844,4.844,0,0,1-4.917.294c-1.44-.58-2.087-.967-3.885-.51-.267.068-1.022.177-1.309.2a1.2,1.2,0,0,1-1.363-.83,1.1,1.1,0,0,1,.724-1.367c1.1-.371,2.215-.544,4.342,1.011,1.933,1.414,4.336,2.031,5.874.815.688-.543,1.357-1.413,1.969-2a4.439,4.439,0,0,1,3.635-1.532" transform="translate(-190.083 -232.417)" fill="#0f0b0a"/>
            <path id="Path_82" data-name="Path 82" d="M461.855,228.3c1.1-4.02,3.344-5.321,4.139-5.421.816-.1,1.4.188,1.214.718-.279.8-1.077-.609-2.525,1.185a10.948,10.948,0,0,0-2.266,7.488c.022.5.478,4.522,2.682,2.015.157-.179.415-.542.694-.239.225.245-.036.553-.206.761-.592.722-1.128,1.231-1.976,1.17a2.164,2.164,0,0,1-1.8-1.618,10.09,10.09,0,0,1,.038-6.058" transform="translate(-342.375 -165.382)" fill="#0f0b0a"/>
            <path id="Path_83" data-name="Path 83" d="M243.351,305.091a4.17,4.17,0,0,1,.594-1.928,3.173,3.173,0,0,1,1.683-1.488c.329-.1.775.2.387.579-.286.28-.524.415-.807.7a3.613,3.613,0,0,0-.763,3.847,3.422,3.422,0,0,0,2.889,2.36c.271.048.931-.135.886.371-.03.34-.642.331-1,.294a4.229,4.229,0,0,1-3.866-4.734" transform="translate(-180.577 -223.853)" fill="#0f0b0a"/>
            <path id="Path_84" data-name="Path 84" d="M326.9,296.99a1.951,1.951,0,0,0-.69-.537c-.389-.189-.9-.373-.644-.77.285-.435.944.03,1.339.323,2.246,1.673,1.849,5.432-.445,7.11-.3.22-.888.5-1.082.234-.327-.448.274-.6.572-.828a4.029,4.029,0,0,0,.951-5.533" transform="translate(-241.388 -219.29)" fill="#0f0b0a"/>
            <path id="Path_85" data-name="Path 85" d="M379.411,224.165a2.773,2.773,0,1,1,2.773,2.773,2.773,2.773,0,0,1-2.773-2.773" transform="translate(-281.556 -164.292)" fill="#fffcf8"/>
          </g>
        </g>
      </g>
    </g>
  </g>
</svg>
