<svg xmlns="http://www.w3.org/2000/svg" width="80" height="80" viewBox="0 0 80 80">
  <path id="Path_86" data-name="Path 86" d="M40,0C29.145,0,27.78.05,23.515.24A29.473,29.473,0,0,0,13.8,2.1,19.585,19.585,0,0,0,6.715,6.715,19.635,19.635,0,0,0,2.1,13.8,29.3,29.3,0,0,0,.24,23.5C.05,27.775,0,29.135,0,40.005S.05,52.225.24,56.49A29.468,29.468,0,0,0,2.1,66.2,20.478,20.478,0,0,0,13.795,77.9a29.366,29.366,0,0,0,9.71,1.86c4.27.19,5.63.24,16.5.24s12.22-.05,16.49-.24A29.528,29.528,0,0,0,66.2,77.9,20.478,20.478,0,0,0,77.9,66.2a29.6,29.6,0,0,0,1.86-9.71c.19-4.265.24-5.625.24-16.49s-.05-12.225-.24-16.495a29.564,29.564,0,0,0-1.86-9.7,19.63,19.63,0,0,0-4.615-7.085A19.555,19.555,0,0,0,66.2,2.1,29.427,29.427,0,0,0,56.485.24C52.215.05,50.86,0,39.99,0h.015ZM36.415,7.21h3.59c10.68,0,11.945.035,16.16.23A22.167,22.167,0,0,1,63.6,8.815a12.411,12.411,0,0,1,4.6,2.995,12.359,12.359,0,0,1,2.99,4.6,21.971,21.971,0,0,1,1.375,7.425c.195,4.215.235,5.48.235,16.155s-.04,11.945-.235,16.16a22.129,22.129,0,0,1-1.375,7.425,13.258,13.258,0,0,1-7.6,7.585,22.005,22.005,0,0,1-7.425,1.38c-4.215.19-5.48.235-16.16.235s-11.95-.045-16.165-.235a22.094,22.094,0,0,1-7.425-1.38,12.39,12.39,0,0,1-4.6-2.99,12.4,12.4,0,0,1-3-4.6A22.1,22.1,0,0,1,7.44,56.145c-.19-4.215-.23-5.48-.23-16.165s.04-11.94.23-16.155A22.132,22.132,0,0,1,8.82,16.4a12.411,12.411,0,0,1,2.995-4.6,12.359,12.359,0,0,1,4.6-2.99,22.094,22.094,0,0,1,7.425-1.38c3.69-.17,5.12-.22,12.575-.225v.01Zm24.94,6.64a4.8,4.8,0,1,0,4.8,4.8,4.8,4.8,0,0,0-4.8-4.8ZM40,19.46A20.544,20.544,0,1,0,60.55,40,20.541,20.541,0,0,0,40,19.46Zm0,7.205A13.335,13.335,0,1,1,26.67,40,13.335,13.335,0,0,1,40,26.665Z" fill="#fffcf8"/>
</svg>
