<svg xmlns="http://www.w3.org/2000/svg" width="77.555" height="74.133" viewBox="0 0 77.555 74.133">
  <g id="linkedin" transform="translate(0 0)">
    <path id="Path_89" data-name="Path 89" d="M17.605,74.133V24.115H.98V74.133ZM9.3,17.282c5.8,0,9.406-3.841,9.406-8.64C18.593,3.734,15.093,0,9.405,0S0,3.734,0,8.642c0,4.8,3.608,8.64,9.187,8.64h.108ZM26.807,74.133H43.432V46.2a11.4,11.4,0,0,1,.547-4.057,9.1,9.1,0,0,1,8.53-6.08c6.016,0,8.422,4.587,8.422,11.311V74.132H77.555V45.453c0-15.363-8.2-22.512-19.14-22.512-8.968,0-12.906,5.013-15.094,8.427h.111V24.114H26.807c.218,4.693,0,50.017,0,50.017Z" transform="translate(0)" fill="#fffcf8"/>
  </g>
</svg>
