<svg id="pinterest-p" xmlns="http://www.w3.org/2000/svg" width="61.538" height="80" viewBox="0 0 61.538 80">
  <path id="Path_87" data-name="Path 87" d="M0,28.7a26.525,26.525,0,0,1,1.8-9.784,25.1,25.1,0,0,1,4.976-8,33.975,33.975,0,0,1,16.2-9.663A38.074,38.074,0,0,1,32.692,0,31.744,31.744,0,0,1,46.827,3.2a26.692,26.692,0,0,1,10.625,9.3,24.243,24.243,0,0,1,4.087,13.8,44.572,44.572,0,0,1-.913,9.038,36.513,36.513,0,0,1-2.885,8.51,29.649,29.649,0,0,1-4.808,7.188,20.859,20.859,0,0,1-6.971,4.952,21.985,21.985,0,0,1-9.087,1.851,14.932,14.932,0,0,1-6.49-1.538,9.643,9.643,0,0,1-4.615-4.231q-.481,1.875-1.346,5.409t-1.13,4.567q-.264,1.034-.986,3.413a22.657,22.657,0,0,1-1.25,3.413l-1.538,3A34.067,34.067,0,0,1,17.308,75.6q-1.2,1.755-2.981,4.159l-.673.24-.433-.481q-.721-7.548-.721-9.038a54.3,54.3,0,0,1,1.034-9.928q1.034-5.5,3.2-13.822t2.5-9.76a18.452,18.452,0,0,1-1.538-8.125,12.693,12.693,0,0,1,2.5-7.5,7.521,7.521,0,0,1,6.346-3.51,5.637,5.637,0,0,1,4.567,1.947,7.4,7.4,0,0,1,1.635,4.928q0,3.173-2.115,9.183t-2.115,8.99a6.543,6.543,0,0,0,2.163,5.024,7.452,7.452,0,0,0,5.24,2,10.281,10.281,0,0,0,4.9-1.2,11.058,11.058,0,0,0,3.774-3.269,27.631,27.631,0,0,0,2.692-4.567,26.3,26.3,0,0,0,1.827-5.312,52.478,52.478,0,0,0,.962-5.337,39.006,39.006,0,0,0,.313-4.784q0-8.317-5.264-12.957T31.394,7.837a22.194,22.194,0,0,0-16.058,6.226A21.024,21.024,0,0,0,8.894,29.856a13.935,13.935,0,0,0,.6,4.087,14.122,14.122,0,0,0,1.3,3.125q.7,1.154,1.3,2.188a3.638,3.638,0,0,1,.6,1.466,11.709,11.709,0,0,1-.721,3.51q-.721,2.163-1.779,2.163-.1,0-.817-.144a9.834,9.834,0,0,1-4.351-2.692,14.017,14.017,0,0,1-2.933-4.543A29.624,29.624,0,0,1,.529,33.822,25.846,25.846,0,0,1,0,28.7Z" fill="#fffcf8"/>
</svg>
