<?xml version="1.0" encoding="UTF-8"?>
<svg id="Layer_2" data-name="Layer 2" xmlns="http://www.w3.org/2000/svg" viewBox="0 0 712.84 240.47">
  <defs>
    <style>
      .cls-1 {
        fill: #505313;
      }

      .cls-1, .cls-2, .cls-3, .cls-4, .cls-5 {
        stroke-width: 0px;
      }

      .cls-6 {
        isolation: isolate;
      }

      .cls-2 {
        fill: #fee0c6;
      }

      .cls-3 {
        fill: #f88725;
      }

      .cls-4 {
        fill: #593624;
      }

      .cls-5 {
        fill: #fcb200;
      }
    </style>
  </defs>
  <g id="Layer_1-2" data-name="Layer 1">
    <g id="Group_65" data-name="Group 65">
      <g id="_WIP" data-name=" WIP" class="cls-6">
        <g class="cls-6">
          <path class="cls-4" d="M187.79,78.33c-1.14,10.87-7.15,17.16-12.87,17.16h-14.3l-4.58,45.19h16.3c6.86,0,8.58,3.15,7.72,10.01-1.14,11.15-7.15,17.16-12.87,17.16h-14.01l-3.15,30.03c-.86,6.86-5.43,11.73-20.88,11.73-14.01,0-17.45-4.58-16.87-11.44l3.15-30.89h-23.45l-3.15,30.6c-.86,6.86-5.43,11.73-20.02,11.73s-18.59-4.58-17.73-11.44l3.15-30.32h-17.16c-6.01,0-7.72-3.15-6.86-10.3,1.14-11.15,7.15-16.87,12.01-16.87h14.87l4.86-45.47h-17.16c-6.01,0-7.72-2.86-7.15-10.01,1.14-11.15,7.15-17.16,12.3-17.16h14.59l2.86-26.31c.57-6.86,5.15-11.73,20.02-11.73s18.3,4.58,17.73,11.44l-2.86,27.17h23.45l2.86-26.88c.86-6.86,5.43-11.73,19.16-11.73,15.73,0,19.16,4.58,18.59,11.44l-2.86,26.88h16.3c6.86,0,8.87,2.86,8.01,10.01ZM123.15,94.92h-23.45l-4.86,46.33h23.45l4.86-46.33Z"/>
          <path class="cls-4" d="M239.84,193.31l-25.74-117.54c-4.29-19.73-19.73-16.02-19.73-26.6s20.59-17.73,33.18-17.73c14.87,0,32.32,4.58,36.89,31.75l14.01,80.36c.57,2.86,1.43,4.58,3.43,4.58,2.29,0,2.86-2.29,3.43-4.58l13.73-55.77c1.43-5.43,2.57-11.15,2.57-16.02,0-9.15-4.29-12.3-7.44-14.87-2.57-2.57-4.86-4.86-4.86-8.29,0-9.44,17.73-17.16,34.03-17.16,15.44,0,24.88,10.58,27.74,25.74l16.02,86.37c.57,2.86,1.43,4.58,3.43,4.58s2.86-1.72,3.43-4.58l18.3-98.95c2-11.15,8.87-12.58,21.74-12.58,12.01,0,18.59,3.43,18.59,9.72,0,2.86-.86,5.43-1.72,9.15-2,6.86-12.01,41.18-19.45,71.5-7.44,30.89-14.87,62.92-17.73,72.36-3.72,11.44-13.44,15.73-30.32,15.73s-28.6-5.15-30.6-18.3l-10.58-60.06c-.57-3.15-1.43-5.15-3.72-5.15-1.72,0-3.15,2.29-3.72,5.15l-13.73,60.06c-2.57,12.87-16.02,18.3-31.46,18.3-16.3,0-27.17-5.43-29.74-17.16Z"/>
          <path class="cls-4" d="M454.05,193.88c0-8.58,3.43-38.61,3.43-69.21v-49.76c0-19.16-14.01-17.16-14.01-27.46s20.02-16.02,39.47-16.02c18.3,0,26.03,6.86,26.03,24.88v136.99c0,9.15-5.72,15.73-26.88,15.73s-28.03-6.58-28.03-15.16Z"/>
          <path class="cls-4" d="M539.56,193.88c0-8.58,3.43-38.61,3.43-69.21v-49.76c0-19.16-13.44-16.87-13.44-27.46,0-6.29,8.58-17.16,66.06-17.16h1.14c56.34,0,86.08,26.03,86.08,60.63s-31.17,59.77-80.08,59.77c-7.15,0-8.29,2.29-8.29,6.86v35.75c0,8.01-4.58,15.73-26.31,15.73s-28.6-6.58-28.6-15.16ZM629.65,89.77c0-27.74-20.02-34.61-28.31-34.61h-.86c-5.43,0-6.86,1.43-6.86,6.01v58.63c0,4.86,1.43,6.58,7.72,6.58,11.73,0,28.31-9.72,28.31-36.61Z"/>
        </g>
      </g>
      <path class="cls-1" d="M596.76.29h-1.14c-16.97,0-52.13,0-74.87,12.72-9.41-7.52-22.21-11.58-37.81-11.58s-29.29,2.49-40.21,7.06c-7.09-3.94-16.47-6.49-28.71-6.49-22.34,0-37.65,7.16-45.7,21.26-10.54-13.78-26.41-21.83-44.96-21.83s-36.85,5.93-49.27,16.66c-11.54-10.84-27.36-16.66-46.54-16.66-12.9,0-28.92,3.89-41.6,11.94C174.5,1.4,158.69,0,147.73,0c-12.59,0-22.42,2.93-29.87,7.62C106.12,0,92.48,0,87.39,0c-44.4,0-49.37,32.68-49.85,38.48l-.19,1.72c-15.75,5.61-27.49,21.66-29.64,42.61-1.02,12.69,2.14,23.1,9.38,30.94,1.18,1.27,2.45,2.46,3.8,3.54-11.08,7.5-18.87,20.77-20.5,36.69-1.55,12.95,1.36,23.68,8.65,31.91,3.39,3.79,7.55,6.79,12.21,8.81-1.37,11.51,1.84,22.33,9.05,30.5,12.72,14.41,32.11,14.41,38.48,14.41,13.58,0,23.48-3.07,30.68-7.55,11.54,7.55,24.73,7.55,29.66,7.55,42.59,0,49.53-29.09,50.72-38.6l.57-5.48c10.38-3.78,18.98-11.9,24.21-22.65l5.88,26.86c2.1,9.55,12.55,40.73,59.05,40.73,19.8,0,36.23-6.1,47.14-16.66,9.7,9.76,24.82,16.66,46.66,16.66,38.85,0,53.44-19.83,59.03-37.03.51-1.67,1.1-3.79,1.79-6.36.99,11.67,8.32,41.96,57.89,41.96,20.73,0,33.92-5.58,42.31-12.9,8.63,7.31,22.27,12.9,43.78,12.9,53.6,0,56.31-38.09,56.31-45.73v-14.07c52.99-7.32,88.37-41.59,88.37-88.32S676.95.29,596.76.29ZM272.98,180.28c-1.13.13-2.27.19-3.41.18-.68,0-1.3-.02-1.85-.04l-1.35-6.18c2.33,1.23,4.8,2.19,7.35,2.84l-.73,3.2ZM327.36,98.17l.46-1.89.4,2.14c-.29-.09-.57-.18-.86-.25ZM363.38,180.47c-.82,0-1.56-.02-2.21-.06l-.68-3.87c2.18.69,4.42,1.16,6.69,1.4-.22.87-.43,1.68-.62,2.44-.88.05-1.93.08-3.17.08Z"/>
      <path class="cls-5" d="M596.78,10.28h-1.14c-19.24,0-57.75,0-76.01,15.48-7.74-9.39-20.13-14.34-36.67-14.34s-30.82,3.05-41.03,8.52c-6.13-4.76-15.18-7.95-27.9-7.95-9.9,0-36.2,0-41.4,28.95l-2.1,11.34c-5.21-25.24-23.19-40.86-47.16-40.86-20.01,0-40.54,7.89-49.45,21.73-9.84-14.18-25.66-21.73-46.36-21.73-12.44,0-32.14,4.98-43.74,16.32-1.19-2.59-2.78-4.98-4.71-7.07-8.81-9.57-22.11-10.68-31.34-10.68-15.01,0-24.28,4.69-29.99,10.47-8.72-9.38-21.49-10.47-30.35-10.47-34.74,0-39.36,23.01-39.9,29.56l-.95,8.7c-13.21,1.75-26.64,13.69-28.85,35.34-.29,3.65-1.18,14.76,6.76,23.36,4.03,4.31,9.43,7.09,15.27,7.87l-.65,6.04c-13.16,1.63-26.61,13.43-28.74,34.3-.45,3.72-1.81,15.05,6.2,24.08,4.03,4.51,9.54,7.43,15.54,8.24l-.85,8.2c-1.39,11.16,2.82,18.61,6.6,22.89,8.73,9.89,21.86,11.03,30.98,11.03,15.48,0,25-4.59,30.84-10.4,9.64,10.4,24.58,10.4,29.5,10.4,33.46,0,39.62-20.45,40.77-29.64l1.3-12.38c15.22-2.07,26.78-15.78,28.69-34.41,1.22-9.73-.84-17.69-6.11-23.67-4.08-4.54-9.63-7.51-15.67-8.37l.6-5.9c8.23-1.11,15.51-5.78,20.75-12.8l20.84,95.16c2.17,9.88,11.32,32.87,49.28,32.87,22.35,0,39.53-8.85,47.26-23.43,5.39,10.67,17.84,23.43,46.54,23.43,26.37,0,42.97-9.94,49.46-29.93,2.31-7.65,6.81-26.51,12.51-50.4l5.5-23c1.9-7.73,4.13-16.4,6.62-25.71v23.23c0,19.27-1.4,38.17-2.43,51.97-.58,7.93-1,13.99-1,17.24,0,10.57,4.68,35.16,48.03,35.16,24.8,0,36.63-8.58,42.18-17.85,5.67,9.23,17.92,17.85,43.9,17.85,42.97,0,46.31-27.35,46.31-35.73v-23.06c52.6-4.06,88.37-35.54,88.37-79.33,0-37.2-27.79-80.63-106.09-80.63Z"/>
      <g>
        <path class="cls-3" d="M482.94,21.43c-15.73,0-33.27,3.24-42.66,11.53-3.09-5.4-10.18-10.96-26.27-10.96-9.73,0-27.84,0-31.57,20.77l-11.92,64.33-9.6-51.79c-3.94-20.9-18.34-33.89-37.57-33.89-21.18,0-44.03,10.38-44.03,27.16,0,7.57,4.69,12.27,7.79,15.37.24.24.84.75,1.11.97,2.47,2.02,3.4,2.77,3.4,6.83-.21,4.62-.97,9.19-2.28,13.63l-6.36,25.85-8.67-49.72c-3.08-18.29-13.69-40.09-46.76-40.09-14.59,0-43.18,8.37-43.18,27.73-.08,3.7,1.05,7.33,3.2,10.35-2.51-.85-5.14-1.25-7.79-1.18h-5.18l1.71-16.05c.5-5.99-1.04-10.98-4.57-14.82-4.74-5.15-12.14-7.45-23.98-7.45-23.08,0-28.13,12.83-29.11,20.67l-1.91,17.94h-3.35l1.72-16.34c.5-6.04-1.04-11.05-4.6-14.92-6.07-6.59-16.09-7.35-23.1-7.35-23.34,0-29.19,11.36-29.97,20.64l-1.89,17.39h-5.61c-9.72,0-20.49,8.98-22.27,26.36-.36,4.46-.32,10.96,4.14,15.78,3.08,3.33,7.45,5.03,12.98,5.03h6.03l-2.72,25.47h-5.88c-9.59,0-20.22,8.88-21.94,25.68-.55,4.54-.75,11.17,3.75,16.25,3.08,3.47,7.47,5.24,13.04,5.24h6.07l-1.98,19.08c-.93,7.46,1.75,12.29,4.17,15.03,6.05,6.85,16.3,7.65,23.49,7.65,22.63,0,28.77-11.14,29.97-20.7l2.22-21.62h3.36l-2.04,20.06c-.5,6.08,1.06,11.13,4.63,15.03,5.98,6.49,15.54,7.25,22.21,7.25,18.74,0,29.1-6.89,30.82-20.68l2.21-21.07h5.01c9.7,0,20.98-8.18,22.79-25.92.55-4.37.76-10.77-3.69-15.81-3.19-3.61-7.88-5.44-13.96-5.44h-5.24l2.55-25.19h5.26c11.63,0,21.22-10.98,22.8-25.97.43-3.56.62-8.46-1.75-12.88,3.99,2.51,6.88,4.42,8.36,11.25l25.74,117.55c2.05,9.34,9.91,25.02,39.51,25.02,22.54,0,37.97-9.85,41.21-26.08l6.91-30.22,5.2,29.5c1.23,8.06,7.63,26.8,40.49,26.8,13.94,0,33.23-2.35,39.89-22.83,2.23-7.35,6.92-27.03,12.36-49.81l5.52-23.06c4.33-17.66,10.4-40.14,17.37-64.37,1.19,1.3,2.47,2.51,3.83,3.63,3.31,2.84,5.13,4.41,5.13,10.88v49.76c0,19.64-1.42,38.76-2.45,52.71-.56,7.59-.98,13.39-.98,16.5,0,11.48,6.6,25.16,38.03,25.16s36.88-13.99,36.88-25.73V56.31c0-23.47-11.78-34.88-36.03-34.88ZM112.05,104.92l-2.76,26.33h-3.34l2.76-26.33h3.34Z"/>
        <path class="cls-3" d="M596.77,20.29h-1.14c-32.65,0-76.07,2.82-76.07,27.16,0,9,5.38,13.79,8.6,16.65,3.12,2.78,4.84,4.31,4.84,10.81v49.76c0,19.64-1.42,38.76-2.46,52.71-.56,7.59-.98,13.39-.98,16.5,0,11.48,6.7,25.16,38.6,25.16s36.31-16.12,36.31-25.73l.02-32.62c52.92-.59,88.35-28.48,88.35-69.76s-37.72-70.63-96.09-70.63ZM619.66,89.78c0,18.73-9.48,25.19-16.04,26.39v-50.67c4.92,1.06,16.04,5.55,16.04,24.28Z"/>
      </g>
      <g>
        <path class="cls-2" d="M186.86,70.09c-1.37-1.54-3.62-2.26-7.08-2.26h-15.75l2.8-26.33h0c.14-1.39.06-2.79-.25-4.14-.31-1.29-.94-2.49-1.84-3.47-1.66-1.64-3.75-2.77-6.03-3.26-3.59-.84-7.28-1.22-10.97-1.13-6.63,0-11.44,1.1-14.69,3.38-2.88,2.04-4.7,5.26-4.97,8.78h0s-2.81,26.45-2.81,26.45h-22.45l2.8-26.62h0c.28-3.34-.42-5.86-2.12-7.71-1.59-1.59-3.6-2.69-5.79-3.18-3.38-.82-6.85-1.19-10.32-1.1-7.16,0-12.29,1.1-15.65,3.38-2.94,1.98-4.75,5.25-4.87,8.8l-2.81,25.86h-14.14c-2.81,0-5.74,1.67-8.04,4.59-2.78,3.81-4.43,8.32-4.75,13.02h0c-.35,4.33.16,6.98,1.65,8.59,1.24,1.34,3.15,1.97,6,1.97h16.6l-4.76,44.47h-14.42c-2.7,0-5.54,1.62-7.79,4.44-1.78,2.23-4.04,6.28-4.72,12.88-.25,1.73-.28,3.49-.07,5.23.13,1.31.66,2.56,1.5,3.58,1.22,1.37,3.16,2.04,5.93,2.04h16.61l-3.09,29.76c-.4,3.21.21,5.69,1.86,7.56,2.63,2.98,7.99,4.43,16.36,4.43,7.02,0,12.07-1.1,15.44-3.37,2.94-2,4.81-5.24,5.08-8.79h0s3.1-30.16,3.1-30.16h22.45l-3.09,30.34h0c-.28,3.38.42,5.93,2.15,7.81,1.52,1.53,3.44,2.6,5.54,3.1,3.16.8,6.42,1.16,9.67,1.08,7.41,0,12.7-1.1,16.18-3.37,1.53-.97,2.8-2.3,3.69-3.89.82-1.52,1.33-3.19,1.51-4.91h0s3.1-29.59,3.1-29.59h13.56c3.1,0,6.13-1.63,8.54-4.58,2.61-3.21,4.28-7.71,4.83-13.02.52-4.1.09-6.67-1.38-8.34-1.34-1.52-3.52-2.23-6.84-2.23h-15.75l4.47-44.19h13.85c1.58-.02,3.13-.44,4.5-1.22,1.56-.88,2.93-2.06,4.04-3.48,2.81-3.76,4.48-8.24,4.83-12.91.24-1.62.25-3.27.04-4.9-.15-1.25-.66-2.44-1.47-3.41ZM122.59,95.43l-4.76,45.33h-22.45l4.76-45.33h22.45Z"/>
        <path class="cls-2" d="M677.77,66.63c-3.92-7.67-9.58-14.31-16.53-19.4-8.17-5.91-17.36-10.26-27.12-12.81-12.19-3.22-24.75-4.77-37.35-4.63h-1.14c-25.29,0-43.72,2.1-54.76,6.25-9.75,3.66-11.8,8.23-11.8,11.41-.05,2,.53,3.97,1.66,5.62,1.08,1.46,2.35,2.78,3.76,3.92,3.76,3.34,8.03,7.14,8.03,17.91v49.76c0,19.99-1.49,40.11-2.48,53.42-.53,7.15-.95,12.8-.95,15.79-.04,2.16.45,4.3,1.43,6.22,1.14,2.07,2.81,3.8,4.85,5,2.77,1.6,5.81,2.71,8.96,3.26,4.57.84,9.21,1.24,13.85,1.18,4.5.08,9-.38,13.4-1.35,2.95-.64,5.75-1.87,8.21-3.62,3.5-2.66,5.2-6.34,5.2-11.27v-35.75c0-2.5.38-3.89,1.31-4.79,1.11-1.08,3.17-1.58,6.48-1.58,11.25.11,22.46-1.39,33.29-4.45,9.16-2.57,17.76-6.79,25.4-12.45,6.78-5.05,12.32-11.58,16.21-19.08,3.8-7.53,5.75-15.85,5.69-24.29.07-8.43-1.84-16.75-5.58-24.3ZM601.34,125.89c-6.13,0-7.22-1.59-7.22-6.08v-58.63c0-4.06.96-5.51,6.36-5.51h.86c6.25.29,12.22,2.68,16.94,6.78,3.3,2.85,5.92,6.41,7.66,10.42,2.24,5.35,3.33,11.11,3.22,16.91,0,11.85-3.33,21.54-9.62,28.04-2.55,2.65-5.62,4.75-9.02,6.17-2.91,1.23-6.02,1.87-9.18,1.9Z"/>
        <path class="cls-2" d="M428.04,34.07c-3.25-1.7-7.97-2.56-14.03-2.56-6.46,0-11.51.37-15.16,2.16-1.85.88-3.43,2.26-4.56,3.98-1.29,2.09-2.15,4.42-2.51,6.86l-18.3,98.95c-.6,3-1.42,4.17-2.94,4.17s-2.34-1.17-2.94-4.17l-16.02-86.37c-.66-3.65-1.81-7.2-3.41-10.54-1.47-3.07-3.46-5.87-5.88-8.28-2.38-2.34-5.21-4.17-8.31-5.4-3.39-1.31-7-1.96-10.63-1.92-4.14.02-8.26.47-12.3,1.37-3.81.82-7.52,2.07-11.04,3.72-2.99,1.35-5.71,3.23-8.03,5.57-1.92,1.84-3.05,4.35-3.16,7,0,3.64,2.43,6.07,5.01,8.65.01.01.02.02.04.03l.35.29c3.07,2.5,6.9,5.62,6.9,14.2,0,4.15-.84,9.35-2.56,15.89h0s-13.73,55.77-13.73,55.77c-.65,2.61-1.18,4.2-2.95,4.2-1.52,0-2.34-1.17-2.94-4.17l-14.02-80.35c-.86-5.83-2.78-11.45-5.67-16.59-2.27-3.91-5.39-7.26-9.14-9.8-3.38-2.21-7.13-3.77-11.08-4.62-3.78-.81-7.64-1.2-11.5-1.15-3.57.05-7.13.5-10.6,1.34-3.76.86-7.41,2.11-10.91,3.72-7.84,3.67-12.16,8.35-12.16,13.18s3.22,6.97,6.96,9.31c4.65,2.92,10.43,6.56,12.79,17.39l25.74,117.55c1.17,5.7,4.82,10.59,9.97,13.31,5.06,2.82,11.88,4.25,20.26,4.25s15.36-1.52,20.79-4.38c2.78-1.42,5.24-3.4,7.23-5.81,1.98-2.47,3.33-5.39,3.93-8.5l13.73-60.05h0c.56-2.81,1.89-4.76,3.23-4.76,1.73,0,2.6,1.28,3.23,4.73l10.58,60.05c.82,6.2,4.63,11.6,10.2,14.44,5.19,2.84,12.22,4.28,20.9,4.28,3.82.04,7.64-.24,11.42-.86,3.08-.48,6.08-1.42,8.89-2.77,5.09-2.49,8.89-7.01,10.48-12.45h0c2.15-7.09,6.81-26.64,12.21-49.27,1.8-7.55,3.66-15.36,5.53-23.12,4.79-19.54,11.7-44.93,19.44-71.48,0,0,0-.02,0-.03.2-.87.4-1.67.59-2.44.66-2.22,1.05-4.51,1.14-6.83.02-1.58-.43-3.13-1.3-4.45-.96-1.37-2.26-2.48-3.76-3.21Z"/>
        <path class="cls-2" d="M503.16,36.75c-2.36-2.14-5.21-3.67-8.3-4.45-3.89-1-7.91-1.46-11.92-1.37-10.02,0-19.93,1.52-27.19,4.18-3.36,1.11-6.47,2.85-9.17,5.12-2.19,1.77-3.51,4.4-3.6,7.22-.04,1.97.56,3.89,1.71,5.49,1.13,1.45,2.43,2.75,3.87,3.89,3.96,3.4,8.44,7.25,8.44,18.08v49.76c0,19.99-1.49,40.11-2.48,53.42-.53,7.15-.95,12.8-.95,15.79-.04,2.15.43,4.29,1.38,6.22,1.09,2.06,2.72,3.79,4.72,5,2.71,1.6,5.68,2.71,8.78,3.27,4.5.84,9.07,1.24,13.65,1.17,10.13,0,17.21-1.48,21.66-4.52,3.85-2.63,5.72-6.47,5.72-11.71V56.32c.09-3.94-.42-7.86-1.52-11.64-.88-3.01-2.53-5.74-4.79-7.92Z"/>
      </g>
    </g>
  </g>
</svg>